<mxfile host="app.diagrams.net" modified="2022-12-11T19:42:48.285Z" agent="5.0 (Windows)" version="20.6.2" etag="9IWtpTcty-8g40ZzqBrw" type="github">
  <diagram id="V0knbV8iQ22P4xH83Vtx" name="Page-1">
    <mxGraphModel dx="3066" dy="722" grid="1" gridSize="10" guides="1" tooltips="1" connect="1" arrows="1" fold="1" page="1" pageScale="1" pageWidth="850" pageHeight="1100" math="0" shadow="0">
      <root>
        <mxCell id="0" />
        <mxCell id="1" parent="0" />
        <UserObject label="" plantUmlData="{&#xa;  &quot;data&quot;: &quot;@startuml\nset namespaceSeparator ::\n\nclass \&quot;blackjackapp::api::cardvalue.dart::CardType\&quot; {\n  +int index\n  {static} +List&lt;CardType&gt; values\n  {static} +CardType one\n  {static} +CardType two\n  {static} +CardType three\n  {static} +CardType four\n  {static} +CardType five\n  {static} +CardType six\n  {static} +CardType seven\n  {static} +CardType eight\n  {static} +CardType nine\n  {static} +CardType ten\n  {static} +CardType jack\n  {static} +CardType queen\n  {static} +CardType king\n}\n\n\&quot;blackjackapp::api::cardvalue.dart::CardType\&quot; o-- \&quot;blackjackapp::api::cardvalue.dart::CardType\&quot;\n\&quot;dart::core::Enum\&quot; &lt;|-- \&quot;blackjackapp::api::cardvalue.dart::CardType\&quot;\n\nclass \&quot;blackjackapp::api::cardvalue.dart::Suit\&quot; {\n  +int index\n  {static} +List&lt;Suit&gt; values\n  {static} +Suit spades\n  {static} +Suit hearts\n  {static} +Suit diamonds\n  {static} +Suit clubs\n  {static} +Suit joker\n}\n\n\&quot;blackjackapp::api::cardvalue.dart::Suit\&quot; o-- \&quot;blackjackapp::api::cardvalue.dart::Suit\&quot;\n\&quot;dart::core::Enum\&quot; &lt;|-- \&quot;blackjackapp::api::cardvalue.dart::Suit\&quot;\n\nclass \&quot;blackjackapp::api::playingcard.dart::PlayingCard\&quot; {\n  +Suit suit\n  +CardType value\n}\n\n\&quot;blackjackapp::api::playingcard.dart::PlayingCard\&quot; o-- \&quot;blackjackapp::api::cardvalue.dart::Suit\&quot;\n\&quot;blackjackapp::api::playingcard.dart::PlayingCard\&quot; o-- \&quot;blackjackapp::api::cardvalue.dart::CardType\&quot;\n\nclass \&quot;blackjackapp::components::cardback.dart::CardBack\&quot; {\n  +dynamic color\n  +Widget build()\n}\n\n\&quot;flutter::src::widgets::framework.dart::StatelessWidget\&quot; &lt;|-- \&quot;blackjackapp::components::cardback.dart::CardBack\&quot;\n\nclass \&quot;blackjackapp::components::cardtemplate.dart::CardTemplate\&quot; {\n  +dynamic suit\n  +dynamic number\n  +Widget build()\n}\n\n\&quot;flutter::src::widgets::framework.dart::StatelessWidget\&quot; &lt;|-- \&quot;blackjackapp::components::cardtemplate.dart::CardTemplate\&quot;\n\nclass \&quot;blackjackapp::components::gameboard.dart::GameBoard\&quot; {\n  +Widget build()\n}\n\n\&quot;flutter::src::widgets::framework.dart::StatelessWidget\&quot; &lt;|-- \&quot;blackjackapp::components::gameboard.dart::GameBoard\&quot;\n\nclass \&quot;blackjackapp::main.dart::MyApp\&quot; {\n  +Widget build()\n}\n\n\&quot;flutter::src::widgets::framework.dart::StatelessWidget\&quot; &lt;|-- \&quot;blackjackapp::main.dart::MyApp\&quot;\n\nclass \&quot;blackjackapp::models::card_model.dart::CardModel\&quot; {\n  +String image\n  +String suit\n  +String value\n}\n\nclass \&quot;blackjackapp::models::card_model.dart::Suit\&quot; {\n  +int index\n  {static} +List&lt;Suit&gt; values\n  {static} +Suit hearts\n  {static} +Suit clubs\n  {static} +Suit diamonds\n  {static} +Suit spades\n  {static} +Suit other\n}\n\n\&quot;blackjackapp::models::card_model.dart::Suit\&quot; o-- \&quot;blackjackapp::models::card_model.dart::Suit\&quot;\n\&quot;dart::core::Enum\&quot; &lt;|-- \&quot;blackjackapp::models::card_model.dart::Suit\&quot;\n\nclass \&quot;blackjackapp::models::deck_model.dart::DeckModel\&quot; {\n  +String deckId\n  +bool shuffled\n  +int remaining\n}\n\nclass \&quot;blackjackapp::models::draw_model.dart::DrawModel\&quot; {\n  +int remaining\n  +List&lt;Card&gt; cards\n}\n\nclass \&quot;blackjackapp::models::player_model.dart::PlayerModel\&quot; {\n  +String name\n  +bool isHuman\n  +List&lt;CardModel&gt; cards\n}\n\nclass \&quot;blackjackapp::screens::game_screen.dart::GameScreen\&quot; {\n  +Widget build()\n}\n\n\&quot;flutter::src::widgets::framework.dart::StatelessWidget\&quot; &lt;|-- \&quot;blackjackapp::screens::game_screen.dart::GameScreen\&quot;\n\nclass \&quot;blackjackapp::screens::homepage.dart::Homepage\&quot; {\n  +_HomePageState createState()\n}\n\n\&quot;flutter::src::widgets::framework.dart::StatefulWidget\&quot; &lt;|-- \&quot;blackjackapp::screens::homepage.dart::Homepage\&quot;\n\nclass \&quot;blackjackapp::screens::homepage.dart::_HomePageState\&quot; {\n  -AnimationController _animationController\n  -Animation&lt;double&gt; _animation\n  -AnimationStatus _animationStatus\n  +void initState()\n  +Widget build()\n  +Widget getFlippingCard()\n}\n\n\&quot;blackjackapp::screens::homepage.dart::_HomePageState\&quot; o-- \&quot;flutter::src::animation::animation_controller.dart::AnimationController\&quot;\n\&quot;blackjackapp::screens::homepage.dart::_HomePageState\&quot; o-- \&quot;flutter::src::animation::animation.dart::Animation&lt;double&gt;\&quot;\n\&quot;blackjackapp::screens::homepage.dart::_HomePageState\&quot; o-- \&quot;flutter::src::animation::animation.dart::AnimationStatus\&quot;\n\&quot;flutter::src::widgets::framework.dart::State\&quot; &lt;|-- \&quot;blackjackapp::screens::homepage.dart::_HomePageState\&quot;\n\&quot;flutter::src::widgets::ticker_provider.dart::SingleTickerProviderStateMixin\&quot; &lt;|-- \&quot;blackjackapp::screens::homepage.dart::_HomePageState\&quot;\n\nclass \&quot;blackjackapp::screens::splashscreen.dart::SplashScreen\&quot; {\n  +State&lt;StatefulWidget&gt; createState()\n}\n\n\&quot;flutter::src::widgets::framework.dart::StatefulWidget\&quot; &lt;|-- \&quot;blackjackapp::screens::splashscreen.dart::SplashScreen\&quot;\n\nclass \&quot;blackjackapp::screens::splashscreen.dart::StartState\&quot; {\n  +void initState()\n  +dynamic startTimer()\n  +dynamic route()\n  +Widget build()\n}\n\n\&quot;flutter::src::widgets::framework.dart::State\&quot; &lt;|-- \&quot;blackjackapp::screens::splashscreen.dart::StartState\&quot;\n\nclass \&quot;blackjackapp::services::api_service.dart::ApiService\&quot; {\n  {static} +String baseUrl\n  -Uri _url()\n  +Future&lt;Map&lt;String, dynamic&gt;&gt; get()\n}\n\nclass \&quot;blackjackapp::services::deck_service.dart::DeckService\&quot; {\n}\n\n\&quot;blackjackapp::services::api_service.dart::ApiService\&quot; &lt;|-- \&quot;blackjackapp::services::deck_service.dart::DeckService\&quot;\n\n\n@enduml&quot;,&#xa;  &quot;format&quot;: &quot;svg&quot;&#xa;}" id="XBm1K8RDqBiJByxtORtm-1">
          <mxCell style="shape=image;noLabel=1;verticalAlign=top;aspect=fixed;imageAspect=0;image=data:image/svg+xml,PD94bWwgdmVyc2lvbj0iMS4wIiBlbmNvZGluZz0iVVRGLTgiIHN0YW5kYWxvbmU9Im5vIj8+PHN2ZyB4bWxucz0iaHR0cDovL3d3dy53My5vcmcvMjAwMC9zdmciIHhtbG5zOnhsaW5rPSJodHRwOi8vd3d3LnczLm9yZy8xOTk5L3hsaW5rIiBjb250ZW50U3R5bGVUeXBlPSJ0ZXh0L2NzcyIgaGVpZ2h0PSI2MjJweCIgcHJlc2VydmVBc3BlY3RSYXRpbz0ibm9uZSIgc3R5bGU9IndpZHRoOjQ3ODlweDtoZWlnaHQ6NjIycHg7YmFja2dyb3VuZDojRkZGRkZGOyIgdmVyc2lvbj0iMS4xIiB2aWV3Qm94PSIwIDAgNDc4OSA2MjIiIHdpZHRoPSI0Nzg5cHgiIHpvb21BbmRQYW49Im1hZ25pZnkiPjxkZWZzLz48Zz48IS0tTUQ1PVs3ODJmNDU5ZDk1OTgyMDNiYTg4NjA4NjE1MDE4OTU4ZF0KY2x1c3RlciBibGFja2phY2thcHA6OmFwaTo6Y2FyZHZhbHVlLmRhcnQtLT48ZyBpZD0iY2x1c3Rlcl9ibGFja2phY2thcHA6OmFwaTo6Y2FyZHZhbHVlLmRhcnQiPjxwYXRoIGQ9Ik03MC41LDE3MiBMMzAyLjUsMTcyIEEzLjc1LDMuNzUgMCAwIDEgMzA1LDE3NC41IEwzMTIsMTkyLjk4NDQgTDQ4Ny41LDE5Mi45ODQ0IEEyLjUsMi41IDAgMCAxIDQ5MCwxOTUuNDg0NCBMNDkwLDQ5MS41IEEyLjUsMi41IDAgMCAxIDQ4Ny41LDQ5NCBMNzAuNSw0OTQgQTIuNSwyLjUgMCAwIDEgNjgsNDkxLjUgTDY4LDE3NC41IEEyLjUsMi41IDAgMCAxIDcwLjUsMTcyICIgc3R5bGU9InN0cm9rZTojMDAwMDAwO3N0cm9rZS13aWR0aDoxLjU7ZmlsbDpub25lOyIvPjxsaW5lIHN0eWxlPSJzdHJva2U6IzAwMDAwMDtzdHJva2Utd2lkdGg6MS41O2ZpbGw6bm9uZTsiIHgxPSI2OCIgeDI9IjMxMiIgeTE9IjE5Mi45ODQ0IiB5Mj0iMTkyLjk4NDQiLz48dGV4dCBmaWxsPSIjMDAwMDAwIiBmb250LWZhbWlseT0ic2Fucy1zZXJpZiIgZm9udC1zaXplPSIxNCIgZm9udC13ZWlnaHQ9ImJvbGQiIGxlbmd0aEFkanVzdD0ic3BhY2luZyIgdGV4dExlbmd0aD0iMjMxIiB4PSI3MiIgeT0iMTg3LjIzNDQiPmJsYWNramFja2FwcDo6YXBpOjpjYXJkdmFsdWUuZGFydDwvdGV4dD48L2c+PCEtLU1ENT1bZGUyMzJmZGMxMzE0YzIwZDIzYzY0YmU1MTBiYTgxOGZdCmNsdXN0ZXIgZGFydDo6Y29yZS0tPjxnIGlkPSJjbHVzdGVyX2RhcnQ6OmNvcmUiPjxwYXRoIGQ9Ik0zMjQuNSwyOC41IEwzOTUuNSwyOC41IEEzLjc1LDMuNzUgMCAwIDEgMzk4LDMxIEw0MDUsNDkuNDg0NCBMNDEzLjUsNDkuNDg0NCBBMi41LDIuNSAwIDAgMSA0MTYsNTEuOTg0NCBMNDE2LDEyMyBBMi41LDIuNSAwIDAgMSA0MTMuNSwxMjUuNSBMMzI0LjUsMTI1LjUgQTIuNSwyLjUgMCAwIDEgMzIyLDEyMyBMMzIyLDMxIEEyLjUsMi41IDAgMCAxIDMyNC41LDI4LjUgIiBzdHlsZT0ic3Ryb2tlOiMwMDAwMDA7c3Ryb2tlLXdpZHRoOjEuNTtmaWxsOm5vbmU7Ii8+PGxpbmUgc3R5bGU9InN0cm9rZTojMDAwMDAwO3N0cm9rZS13aWR0aDoxLjU7ZmlsbDpub25lOyIgeDE9IjMyMiIgeDI9IjQwNSIgeTE9IjQ5LjQ4NDQiIHkyPSI0OS40ODQ0Ii8+PHRleHQgZmlsbD0iIzAwMDAwMCIgZm9udC1mYW1pbHk9InNhbnMtc2VyaWYiIGZvbnQtc2l6ZT0iMTQiIGZvbnQtd2VpZ2h0PSJib2xkIiBsZW5ndGhBZGp1c3Q9InNwYWNpbmciIHRleHRMZW5ndGg9IjcwIiB4PSIzMjYiIHk9IjQzLjczNDQiPmRhcnQ6OmNvcmU8L3RleHQ+PC9nPjwhLS1NRDU9W2ZjOTdiZDU5NTM1YzdjYzQ4ZGVhYmY1NjE0MTRjZTU0XQpjbHVzdGVyIGJsYWNramFja2FwcDo6YXBpOjpwbGF5aW5nY2FyZC5kYXJ0LS0+PGcgaWQ9ImNsdXN0ZXJfYmxhY2tqYWNrYXBwOjphcGk6OnBsYXlpbmdjYXJkLmRhcnQiPjxwYXRoIGQ9Ik04LjUsMTMuNSBMMjU0LjUsMTMuNSBBMy43NSwzLjc1IDAgMCAxIDI1NywxNiBMMjY0LDM0LjQ4NDQgTDI2NC41LDM0LjQ4NDQgQTIuNSwyLjUgMCAwIDEgMjY3LDM2Ljk4NDQgTDI2NywxMzggQTIuNSwyLjUgMCAwIDEgMjY0LjUsMTQwLjUgTDguNSwxNDAuNSBBMi41LDIuNSAwIDAgMSA2LDEzOCBMNiwxNiBBMi41LDIuNSAwIDAgMSA4LjUsMTMuNSAiIHN0eWxlPSJzdHJva2U6IzAwMDAwMDtzdHJva2Utd2lkdGg6MS41O2ZpbGw6bm9uZTsiLz48bGluZSBzdHlsZT0ic3Ryb2tlOiMwMDAwMDA7c3Ryb2tlLXdpZHRoOjEuNTtmaWxsOm5vbmU7IiB4MT0iNiIgeDI9IjI2NCIgeTE9IjM0LjQ4NDQiIHkyPSIzNC40ODQ0Ii8+PHRleHQgZmlsbD0iIzAwMDAwMCIgZm9udC1mYW1pbHk9InNhbnMtc2VyaWYiIGZvbnQtc2l6ZT0iMTQiIGZvbnQtd2VpZ2h0PSJib2xkIiBsZW5ndGhBZGp1c3Q9InNwYWNpbmciIHRleHRMZW5ndGg9IjI0NSIgeD0iMTAiIHk9IjI4LjczNDQiPmJsYWNramFja2FwcDo6YXBpOjpwbGF5aW5nY2FyZC5kYXJ0PC90ZXh0PjwvZz48IS0tTUQ1PVtjNTA3YjlmYjU1NDdjZDA4YzM0MjZkMjgwZWQ1NGY1ZF0KY2x1c3RlciBibGFja2phY2thcHA6OmNvbXBvbmVudHM6OmNhcmRiYWNrLmRhcnQtLT48ZyBpZD0iY2x1c3Rlcl9ibGFja2phY2thcHA6OmNvbXBvbmVudHM6OmNhcmRiYWNrLmRhcnQiPjxwYXRoIGQ9Ik04ODEuNSwyNjkuNSBMMTE1Ni41LDI2OS41IEEzLjc1LDMuNzUgMCAwIDEgMTE1OSwyNzIgTDExNjYsMjkwLjQ4NDQgTDExNjYuNSwyOTAuNDg0NCBBMi41LDIuNSAwIDAgMSAxMTY5LDI5Mi45ODQ0IEwxMTY5LDM5NCBBMi41LDIuNSAwIDAgMSAxMTY2LjUsMzk2LjUgTDg4MS41LDM5Ni41IEEyLjUsMi41IDAgMCAxIDg3OSwzOTQgTDg3OSwyNzIgQTIuNSwyLjUgMCAwIDEgODgxLjUsMjY5LjUgIiBzdHlsZT0ic3Ryb2tlOiMwMDAwMDA7c3Ryb2tlLXdpZHRoOjEuNTtmaWxsOm5vbmU7Ii8+PGxpbmUgc3R5bGU9InN0cm9rZTojMDAwMDAwO3N0cm9rZS13aWR0aDoxLjU7ZmlsbDpub25lOyIgeDE9Ijg3OSIgeDI9IjExNjYiIHkxPSIyOTAuNDg0NCIgeTI9IjI5MC40ODQ0Ii8+PHRleHQgZmlsbD0iIzAwMDAwMCIgZm9udC1mYW1pbHk9InNhbnMtc2VyaWYiIGZvbnQtc2l6ZT0iMTQiIGZvbnQtd2VpZ2h0PSJib2xkIiBsZW5ndGhBZGp1c3Q9InNwYWNpbmciIHRleHRMZW5ndGg9IjI3NCIgeD0iODgzIiB5PSIyODQuNzM0NCI+YmxhY2tqYWNrYXBwOjpjb21wb25lbnRzOjpjYXJkYmFjay5kYXJ0PC90ZXh0PjwvZz48IS0tTUQ1PVsxYjkxMjM2Y2NjNGUyNTg0MzFkMDBiOGIxOWZkZjZjYV0KY2x1c3RlciBmbHV0dGVyOjpzcmM6OndpZGdldHM6OmZyYW1ld29yay5kYXJ0LS0+PGcgaWQ9ImNsdXN0ZXJfZmx1dHRlcjo6c3JjOjp3aWRnZXRzOjpmcmFtZXdvcmsuZGFydCI+PHBhdGggZD0iTTIxMjIuNSwyOC41IEwyMzg1LjUsMjguNSBBMy43NSwzLjc1IDAgMCAxIDIzODgsMzEgTDIzOTUsNDkuNDg0NCBMMjU1NS41LDQ5LjQ4NDQgQTIuNSwyLjUgMCAwIDEgMjU1OCw1MS45ODQ0IEwyNTU4LDEyMyBBMi41LDIuNSAwIDAgMSAyNTU1LjUsMTI1LjUgTDIxMjIuNSwxMjUuNSBBMi41LDIuNSAwIDAgMSAyMTIwLDEyMyBMMjEyMCwzMSBBMi41LDIuNSAwIDAgMSAyMTIyLjUsMjguNSAiIHN0eWxlPSJzdHJva2U6IzAwMDAwMDtzdHJva2Utd2lkdGg6MS41O2ZpbGw6bm9uZTsiLz48bGluZSBzdHlsZT0ic3Ryb2tlOiMwMDAwMDA7c3Ryb2tlLXdpZHRoOjEuNTtmaWxsOm5vbmU7IiB4MT0iMjEyMCIgeDI9IjIzOTUiIHkxPSI0OS40ODQ0IiB5Mj0iNDkuNDg0NCIvPjx0ZXh0IGZpbGw9IiMwMDAwMDAiIGZvbnQtZmFtaWx5PSJzYW5zLXNlcmlmIiBmb250LXNpemU9IjE0IiBmb250LXdlaWdodD0iYm9sZCIgbGVuZ3RoQWRqdXN0PSJzcGFjaW5nIiB0ZXh0TGVuZ3RoPSIyNjIiIHg9IjIxMjQiIHk9IjQzLjczNDQiPmZsdXR0ZXI6OnNyYzo6d2lkZ2V0czo6ZnJhbWV3b3JrLmRhcnQ8L3RleHQ+PC9nPjwhLS1NRDU9W2IxNTZjMGM3ODAzOGI5NTYzOGZhYmYzNDhmNjQxZDFjXQpjbHVzdGVyIGJsYWNramFja2FwcDo6Y29tcG9uZW50czo6Y2FyZHRlbXBsYXRlLmRhcnQtLT48ZyBpZD0iY2x1c3Rlcl9ibGFja2phY2thcHA6OmNvbXBvbmVudHM6OmNhcmR0ZW1wbGF0ZS5kYXJ0Ij48cGF0aCBkPSJNMTE5NS41LDI2MiBMMTQ5OS41LDI2MiBBMy43NSwzLjc1IDAgMCAxIDE1MDIsMjY0LjUgTDE1MDksMjgyLjk4NDQgTDE1MDkuNSwyODIuOTg0NCBBMi41LDIuNSAwIDAgMSAxNTEyLDI4NS40ODQ0IEwxNTEyLDQwMS41IEEyLjUsMi41IDAgMCAxIDE1MDkuNSw0MDQgTDExOTUuNSw0MDQgQTIuNSwyLjUgMCAwIDEgMTE5Myw0MDEuNSBMMTE5MywyNjQuNSBBMi41LDIuNSAwIDAgMSAxMTk1LjUsMjYyICIgc3R5bGU9InN0cm9rZTojMDAwMDAwO3N0cm9rZS13aWR0aDoxLjU7ZmlsbDpub25lOyIvPjxsaW5lIHN0eWxlPSJzdHJva2U6IzAwMDAwMDtzdHJva2Utd2lkdGg6MS41O2ZpbGw6bm9uZTsiIHgxPSIxMTkzIiB4Mj0iMTUwOSIgeTE9IjI4Mi45ODQ0IiB5Mj0iMjgyLjk4NDQiLz48dGV4dCBmaWxsPSIjMDAwMDAwIiBmb250LWZhbWlseT0ic2Fucy1zZXJpZiIgZm9udC1zaXplPSIxNCIgZm9udC13ZWlnaHQ9ImJvbGQiIGxlbmd0aEFkanVzdD0ic3BhY2luZyIgdGV4dExlbmd0aD0iMzAzIiB4PSIxMTk3IiB5PSIyNzcuMjM0NCI+YmxhY2tqYWNrYXBwOjpjb21wb25lbnRzOjpjYXJkdGVtcGxhdGUuZGFydDwvdGV4dD48L2c+PCEtLU1ENT1bNDRlMmY1NDQyYzlmYmE1OGQ1MzhiN2E2YmFlMDMxMTBdCmNsdXN0ZXIgYmxhY2tqYWNrYXBwOjpjb21wb25lbnRzOjpnYW1lYm9hcmQuZGFydC0tPjxnIGlkPSJjbHVzdGVyX2JsYWNramFja2FwcDo6Y29tcG9uZW50czo6Z2FtZWJvYXJkLmRhcnQiPjxwYXRoIGQ9Ik0xNTM4LjUsMjc3IEwxODIxLjUsMjc3IEEzLjc1LDMuNzUgMCAwIDEgMTgyNCwyNzkuNSBMMTgzMSwyOTcuOTg0NCBMMTgzMS41LDI5Ny45ODQ0IEEyLjUsMi41IDAgMCAxIDE4MzQsMzAwLjQ4NDQgTDE4MzQsMzg2LjUgQTIuNSwyLjUgMCAwIDEgMTgzMS41LDM4OSBMMTUzOC41LDM4OSBBMi41LDIuNSAwIDAgMSAxNTM2LDM4Ni41IEwxNTM2LDI3OS41IEEyLjUsMi41IDAgMCAxIDE1MzguNSwyNzcgIiBzdHlsZT0ic3Ryb2tlOiMwMDAwMDA7c3Ryb2tlLXdpZHRoOjEuNTtmaWxsOm5vbmU7Ii8+PGxpbmUgc3R5bGU9InN0cm9rZTojMDAwMDAwO3N0cm9rZS13aWR0aDoxLjU7ZmlsbDpub25lOyIgeDE9IjE1MzYiIHgyPSIxODMxIiB5MT0iMjk3Ljk4NDQiIHkyPSIyOTcuOTg0NCIvPjx0ZXh0IGZpbGw9IiMwMDAwMDAiIGZvbnQtZmFtaWx5PSJzYW5zLXNlcmlmIiBmb250LXNpemU9IjE0IiBmb250LXdlaWdodD0iYm9sZCIgbGVuZ3RoQWRqdXN0PSJzcGFjaW5nIiB0ZXh0TGVuZ3RoPSIyODIiIHg9IjE1NDAiIHk9IjI5Mi4yMzQ0Ij5ibGFja2phY2thcHA6OmNvbXBvbmVudHM6OmdhbWVib2FyZC5kYXJ0PC90ZXh0PjwvZz48IS0tTUQ1PVs4ZTI5NmM0YzU4OWFkMjA2OGQ3MjkxMTVmNzgyYTVhY10KY2x1c3RlciBibGFja2phY2thcHA6Om1haW4uZGFydC0tPjxnIGlkPSJjbHVzdGVyX2JsYWNramFja2FwcDo6bWFpbi5kYXJ0Ij48cGF0aCBkPSJNMTg2MC41LDI3NyBMMjAyMy41LDI3NyBBMy43NSwzLjc1IDAgMCAxIDIwMjYsMjc5LjUgTDIwMzMsMjk3Ljk4NDQgTDIwMzMuNSwyOTcuOTg0NCBBMi41LDIuNSAwIDAgMSAyMDM2LDMwMC40ODQ0IEwyMDM2LDM4Ni41IEEyLjUsMi41IDAgMCAxIDIwMzMuNSwzODkgTDE4NjAuNSwzODkgQTIuNSwyLjUgMCAwIDEgMTg1OCwzODYuNSBMMTg1OCwyNzkuNSBBMi41LDIuNSAwIDAgMSAxODYwLjUsMjc3ICIgc3R5bGU9InN0cm9rZTojMDAwMDAwO3N0cm9rZS13aWR0aDoxLjU7ZmlsbDpub25lOyIvPjxsaW5lIHN0eWxlPSJzdHJva2U6IzAwMDAwMDtzdHJva2Utd2lkdGg6MS41O2ZpbGw6bm9uZTsiIHgxPSIxODU4IiB4Mj0iMjAzMyIgeTE9IjI5Ny45ODQ0IiB5Mj0iMjk3Ljk4NDQiLz48dGV4dCBmaWxsPSIjMDAwMDAwIiBmb250LWZhbWlseT0ic2Fucy1zZXJpZiIgZm9udC1zaXplPSIxNCIgZm9udC13ZWlnaHQ9ImJvbGQiIGxlbmd0aEFkanVzdD0ic3BhY2luZyIgdGV4dExlbmd0aD0iMTYyIiB4PSIxODYyIiB5PSIyOTIuMjM0NCI+YmxhY2tqYWNrYXBwOjptYWluLmRhcnQ8L3RleHQ+PC9nPjwhLS1NRDU9W2IzM2Y2ZTA5YjJlZTlhZDY4NjZkZjJhYjM3ZDFkM2ZmXQpjbHVzdGVyIGJsYWNramFja2FwcDo6bW9kZWxzOjpjYXJkX21vZGVsLmRhcnQtLT48ZyBpZD0iY2x1c3Rlcl9ibGFja2phY2thcHA6Om1vZGVsczo6Y2FyZF9tb2RlbC5kYXJ0Ij48cGF0aCBkPSJNNTE2LjUsMjMyIEw3NzguNSwyMzIgQTMuNzUsMy43NSAwIDAgMSA3ODEsMjM0LjUgTDc4OCwyNTIuOTg0NCBMODUyLjUsMjUyLjk4NDQgQTIuNSwyLjUgMCAwIDEgODU1LDI1NS40ODQ0IEw4NTUsNDMxLjUgQTIuNSwyLjUgMCAwIDEgODUyLjUsNDM0IEw1MTYuNSw0MzQgQTIuNSwyLjUgMCAwIDEgNTE0LDQzMS41IEw1MTQsMjM0LjUgQTIuNSwyLjUgMCAwIDEgNTE2LjUsMjMyICIgc3R5bGU9InN0cm9rZTojMDAwMDAwO3N0cm9rZS13aWR0aDoxLjU7ZmlsbDpub25lOyIvPjxsaW5lIHN0eWxlPSJzdHJva2U6IzAwMDAwMDtzdHJva2Utd2lkdGg6MS41O2ZpbGw6bm9uZTsiIHgxPSI1MTQiIHgyPSI3ODgiIHkxPSIyNTIuOTg0NCIgeTI9IjI1Mi45ODQ0Ii8+PHRleHQgZmlsbD0iIzAwMDAwMCIgZm9udC1mYW1pbHk9InNhbnMtc2VyaWYiIGZvbnQtc2l6ZT0iMTQiIGZvbnQtd2VpZ2h0PSJib2xkIiBsZW5ndGhBZGp1c3Q9InNwYWNpbmciIHRleHRMZW5ndGg9IjI2MSIgeD0iNTE4IiB5PSIyNDcuMjM0NCI+YmxhY2tqYWNrYXBwOjptb2RlbHM6OmNhcmRfbW9kZWwuZGFydDwvdGV4dD48L2c+PCEtLU1ENT1bMGQ2MTc1MzJlNGM4MDUwMzRjOTZkYTQ0YTJiMjZmNThdCmNsdXN0ZXIgYmxhY2tqYWNrYXBwOjptb2RlbHM6OmRlY2tfbW9kZWwuZGFydC0tPjxnIGlkPSJjbHVzdGVyX2JsYWNramFja2FwcDo6bW9kZWxzOjpkZWNrX21vZGVsLmRhcnQiPjxwYXRoIGQ9Ik0zNTI1LjUsNiBMMzc4Ny41LDYgQTMuNzUsMy43NSAwIDAgMSAzNzkwLDguNSBMMzc5NywyNi45ODQ0IEwzNzk3LjUsMjYuOTg0NCBBMi41LDIuNSAwIDAgMSAzODAwLDI5LjQ4NDQgTDM4MDAsMTQ1LjUgQTIuNSwyLjUgMCAwIDEgMzc5Ny41LDE0OCBMMzUyNS41LDE0OCBBMi41LDIuNSAwIDAgMSAzNTIzLDE0NS41IEwzNTIzLDguNSBBMi41LDIuNSAwIDAgMSAzNTI1LjUsNiAiIHN0eWxlPSJzdHJva2U6IzAwMDAwMDtzdHJva2Utd2lkdGg6MS41O2ZpbGw6bm9uZTsiLz48bGluZSBzdHlsZT0ic3Ryb2tlOiMwMDAwMDA7c3Ryb2tlLXdpZHRoOjEuNTtmaWxsOm5vbmU7IiB4MT0iMzUyMyIgeDI9IjM3OTciIHkxPSIyNi45ODQ0IiB5Mj0iMjYuOTg0NCIvPjx0ZXh0IGZpbGw9IiMwMDAwMDAiIGZvbnQtZmFtaWx5PSJzYW5zLXNlcmlmIiBmb250LXNpemU9IjE0IiBmb250LXdlaWdodD0iYm9sZCIgbGVuZ3RoQWRqdXN0PSJzcGFjaW5nIiB0ZXh0TGVuZ3RoPSIyNjEiIHg9IjM1MjciIHk9IjIxLjIzNDQiPmJsYWNramFja2FwcDo6bW9kZWxzOjpkZWNrX21vZGVsLmRhcnQ8L3RleHQ+PC9nPjwhLS1NRDU9WzAzNzg0ODg1NjJkNjVlNjlkYmFhNTA0YzVmZGYyNTM2XQpjbHVzdGVyIGJsYWNramFja2FwcDo6bW9kZWxzOjpkcmF3X21vZGVsLmRhcnQtLT48ZyBpZD0iY2x1c3Rlcl9ibGFja2phY2thcHA6Om1vZGVsczo6ZHJhd19tb2RlbC5kYXJ0Ij48cGF0aCBkPSJNMzgyNi41LDEzLjUgTDQwODkuNSwxMy41IEEzLjc1LDMuNzUgMCAwIDEgNDA5MiwxNiBMNDA5OSwzNC40ODQ0IEw0MDk5LjUsMzQuNDg0NCBBMi41LDIuNSAwIDAgMSA0MTAyLDM2Ljk4NDQgTDQxMDIsMTM4IEEyLjUsMi41IDAgMCAxIDQwOTkuNSwxNDAuNSBMMzgyNi41LDE0MC41IEEyLjUsMi41IDAgMCAxIDM4MjQsMTM4IEwzODI0LDE2IEEyLjUsMi41IDAgMCAxIDM4MjYuNSwxMy41ICIgc3R5bGU9InN0cm9rZTojMDAwMDAwO3N0cm9rZS13aWR0aDoxLjU7ZmlsbDpub25lOyIvPjxsaW5lIHN0eWxlPSJzdHJva2U6IzAwMDAwMDtzdHJva2Utd2lkdGg6MS41O2ZpbGw6bm9uZTsiIHgxPSIzODI0IiB4Mj0iNDA5OSIgeTE9IjM0LjQ4NDQiIHkyPSIzNC40ODQ0Ii8+PHRleHQgZmlsbD0iIzAwMDAwMCIgZm9udC1mYW1pbHk9InNhbnMtc2VyaWYiIGZvbnQtc2l6ZT0iMTQiIGZvbnQtd2VpZ2h0PSJib2xkIiBsZW5ndGhBZGp1c3Q9InNwYWNpbmciIHRleHRMZW5ndGg9IjI2MiIgeD0iMzgyOCIgeT0iMjguNzM0NCI+YmxhY2tqYWNrYXBwOjptb2RlbHM6OmRyYXdfbW9kZWwuZGFydDwvdGV4dD48L2c+PCEtLU1ENT1bMmU5NWRkZjkxNzcxN2MyOTg0ZDMzZDBkYWU1YzBjNDldCmNsdXN0ZXIgYmxhY2tqYWNrYXBwOjptb2RlbHM6OnBsYXllcl9tb2RlbC5kYXJ0LS0+PGcgaWQ9ImNsdXN0ZXJfYmxhY2tqYWNrYXBwOjptb2RlbHM6OnBsYXllcl9tb2RlbC5kYXJ0Ij48cGF0aCBkPSJNNDEyOC41LDYgTDQ0MDQuNSw2IEEzLjc1LDMuNzUgMCAwIDEgNDQwNyw4LjUgTDQ0MTQsMjYuOTg0NCBMNDQxNC41LDI2Ljk4NDQgQTIuNSwyLjUgMCAwIDEgNDQxNywyOS40ODQ0IEw0NDE3LDE0NS41IEEyLjUsMi41IDAgMCAxIDQ0MTQuNSwxNDggTDQxMjguNSwxNDggQTIuNSwyLjUgMCAwIDEgNDEyNiwxNDUuNSBMNDEyNiw4LjUgQTIuNSwyLjUgMCAwIDEgNDEyOC41LDYgIiBzdHlsZT0ic3Ryb2tlOiMwMDAwMDA7c3Ryb2tlLXdpZHRoOjEuNTtmaWxsOm5vbmU7Ii8+PGxpbmUgc3R5bGU9InN0cm9rZTojMDAwMDAwO3N0cm9rZS13aWR0aDoxLjU7ZmlsbDpub25lOyIgeDE9IjQxMjYiIHgyPSI0NDE0IiB5MT0iMjYuOTg0NCIgeTI9IjI2Ljk4NDQiLz48dGV4dCBmaWxsPSIjMDAwMDAwIiBmb250LWZhbWlseT0ic2Fucy1zZXJpZiIgZm9udC1zaXplPSIxNCIgZm9udC13ZWlnaHQ9ImJvbGQiIGxlbmd0aEFkanVzdD0ic3BhY2luZyIgdGV4dExlbmd0aD0iMjc1IiB4PSI0MTMwIiB5PSIyMS4yMzQ0Ij5ibGFja2phY2thcHA6Om1vZGVsczo6cGxheWVyX21vZGVsLmRhcnQ8L3RleHQ+PC9nPjwhLS1NRDU9WzFiNWIyY2YxOWFiNTQxYmExYzhkNTVhMjQ3NjY1OWVjXQpjbHVzdGVyIGJsYWNramFja2FwcDo6c2NyZWVuczo6Z2FtZV9zY3JlZW4uZGFydC0tPjxnIGlkPSJjbHVzdGVyX2JsYWNramFja2FwcDo6c2NyZWVuczo6Z2FtZV9zY3JlZW4uZGFydCI+PHBhdGggZD0iTTIwNjIuNSwyNzcgTDIzMzcuNSwyNzcgQTMuNzUsMy43NSAwIDAgMSAyMzQwLDI3OS41IEwyMzQ3LDI5Ny45ODQ0IEwyMzQ3LjUsMjk3Ljk4NDQgQTIuNSwyLjUgMCAwIDEgMjM1MCwzMDAuNDg0NCBMMjM1MCwzODYuNSBBMi41LDIuNSAwIDAgMSAyMzQ3LjUsMzg5IEwyMDYyLjUsMzg5IEEyLjUsMi41IDAgMCAxIDIwNjAsMzg2LjUgTDIwNjAsMjc5LjUgQTIuNSwyLjUgMCAwIDEgMjA2Mi41LDI3NyAiIHN0eWxlPSJzdHJva2U6IzAwMDAwMDtzdHJva2Utd2lkdGg6MS41O2ZpbGw6bm9uZTsiLz48bGluZSBzdHlsZT0ic3Ryb2tlOiMwMDAwMDA7c3Ryb2tlLXdpZHRoOjEuNTtmaWxsOm5vbmU7IiB4MT0iMjA2MCIgeDI9IjIzNDciIHkxPSIyOTcuOTg0NCIgeTI9IjI5Ny45ODQ0Ii8+PHRleHQgZmlsbD0iIzAwMDAwMCIgZm9udC1mYW1pbHk9InNhbnMtc2VyaWYiIGZvbnQtc2l6ZT0iMTQiIGZvbnQtd2VpZ2h0PSJib2xkIiBsZW5ndGhBZGp1c3Q9InNwYWNpbmciIHRleHRMZW5ndGg9IjI3NCIgeD0iMjA2NCIgeT0iMjkyLjIzNDQiPmJsYWNramFja2FwcDo6c2NyZWVuczo6Z2FtZV9zY3JlZW4uZGFydDwvdGV4dD48L2c+PCEtLU1ENT1bYWE3YWMyYTM5Y2UwODBlMWUxMzgxOTQxMDFmNzA2ZjVdCmNsdXN0ZXIgYmxhY2tqYWNrYXBwOjpzY3JlZW5zOjpob21lcGFnZS5kYXJ0LS0+PGcgaWQ9ImNsdXN0ZXJfYmxhY2tqYWNrYXBwOjpzY3JlZW5zOjpob21lcGFnZS5kYXJ0Ij48cGF0aCBkPSJNMjkxMS41LDIzOS41IEwzMTY1LjUsMjM5LjUgQTMuNzUsMy43NSAwIDAgMSAzMTY4LDI0MiBMMzE3NSwyNjAuNDg0NCBMMzUwNy41LDI2MC40ODQ0IEEyLjUsMi41IDAgMCAxIDM1MTAsMjYyLjk4NDQgTDM1MTAsNDI0IEEyLjUsMi41IDAgMCAxIDM1MDcuNSw0MjYuNSBMMjkxMS41LDQyNi41IEEyLjUsMi41IDAgMCAxIDI5MDksNDI0IEwyOTA5LDI0MiBBMi41LDIuNSAwIDAgMSAyOTExLjUsMjM5LjUgIiBzdHlsZT0ic3Ryb2tlOiMwMDAwMDA7c3Ryb2tlLXdpZHRoOjEuNTtmaWxsOm5vbmU7Ii8+PGxpbmUgc3R5bGU9InN0cm9rZTojMDAwMDAwO3N0cm9rZS13aWR0aDoxLjU7ZmlsbDpub25lOyIgeDE9IjI5MDkiIHgyPSIzMTc1IiB5MT0iMjYwLjQ4NDQiIHkyPSIyNjAuNDg0NCIvPjx0ZXh0IGZpbGw9IiMwMDAwMDAiIGZvbnQtZmFtaWx5PSJzYW5zLXNlcmlmIiBmb250LXNpemU9IjE0IiBmb250LXdlaWdodD0iYm9sZCIgbGVuZ3RoQWRqdXN0PSJzcGFjaW5nIiB0ZXh0TGVuZ3RoPSIyNTMiIHg9IjI5MTMiIHk9IjI1NC43MzQ0Ij5ibGFja2phY2thcHA6OnNjcmVlbnM6OmhvbWVwYWdlLmRhcnQ8L3RleHQ+PC9nPjwhLS1NRDU9Wzk3NTE3NjI2MmQ4OWZiNDM2YTYzNjFlZTk3MWFmODJiXQpjbHVzdGVyIGZsdXR0ZXI6OnNyYzo6YW5pbWF0aW9uOjphbmltYXRpb25fY29udHJvbGxlci5kYXJ0LS0+PGcgaWQ9ImNsdXN0ZXJfZmx1dHRlcjo6c3JjOjphbmltYXRpb246OmFuaW1hdGlvbl9jb250cm9sbGVyLmRhcnQiPjxwYXRoIGQ9Ik0yODY1LjUsNTE4IEwzMjE4LjUsNTE4IEEzLjc1LDMuNzUgMCAwIDEgMzIyMSw1MjAuNSBMMzIyOCw1MzguOTg0NCBMMzIyOC41LDUzOC45ODQ0IEEyLjUsMi41IDAgMCAxIDMyMzEsNTQxLjQ4NDQgTDMyMzEsNjEyLjUgQTIuNSwyLjUgMCAwIDEgMzIyOC41LDYxNSBMMjg2NS41LDYxNSBBMi41LDIuNSAwIDAgMSAyODYzLDYxMi41IEwyODYzLDUyMC41IEEyLjUsMi41IDAgMCAxIDI4NjUuNSw1MTggIiBzdHlsZT0ic3Ryb2tlOiMwMDAwMDA7c3Ryb2tlLXdpZHRoOjEuNTtmaWxsOm5vbmU7Ii8+PGxpbmUgc3R5bGU9InN0cm9rZTojMDAwMDAwO3N0cm9rZS13aWR0aDoxLjU7ZmlsbDpub25lOyIgeDE9IjI4NjMiIHgyPSIzMjI4IiB5MT0iNTM4Ljk4NDQiIHkyPSI1MzguOTg0NCIvPjx0ZXh0IGZpbGw9IiMwMDAwMDAiIGZvbnQtZmFtaWx5PSJzYW5zLXNlcmlmIiBmb250LXNpemU9IjE0IiBmb250LXdlaWdodD0iYm9sZCIgbGVuZ3RoQWRqdXN0PSJzcGFjaW5nIiB0ZXh0TGVuZ3RoPSIzNTIiIHg9IjI4NjciIHk9IjUzMy4yMzQ0Ij5mbHV0dGVyOjpzcmM6OmFuaW1hdGlvbjo6YW5pbWF0aW9uX2NvbnRyb2xsZXIuZGFydDwvdGV4dD48L2c+PCEtLU1ENT1bZTUxNjE0Mzk3NDI5OWE0NzhkYmE5NjE4NGM0OWMxNzldCmNsdXN0ZXIgZmx1dHRlcjo6c3JjOjphbmltYXRpb246OmFuaW1hdGlvbi5kYXJ0LS0+PGcgaWQ9ImNsdXN0ZXJfZmx1dHRlcjo6c3JjOjphbmltYXRpb246OmFuaW1hdGlvbi5kYXJ0Ij48cGF0aCBkPSJNMzI1Ny41LDUxOCBMMzUzMy41LDUxOCBBMy43NSwzLjc1IDAgMCAxIDM1MzYsNTIwLjUgTDM1NDMsNTM4Ljk4NDQgTDM2MDkuNSw1MzguOTg0NCBBMi41LDIuNSAwIDAgMSAzNjEyLDU0MS40ODQ0IEwzNjEyLDYxMi41IEEyLjUsMi41IDAgMCAxIDM2MDkuNSw2MTUgTDMyNTcuNSw2MTUgQTIuNSwyLjUgMCAwIDEgMzI1NSw2MTIuNSBMMzI1NSw1MjAuNSBBMi41LDIuNSAwIDAgMSAzMjU3LjUsNTE4ICIgc3R5bGU9InN0cm9rZTojMDAwMDAwO3N0cm9rZS13aWR0aDoxLjU7ZmlsbDpub25lOyIvPjxsaW5lIHN0eWxlPSJzdHJva2U6IzAwMDAwMDtzdHJva2Utd2lkdGg6MS41O2ZpbGw6bm9uZTsiIHgxPSIzMjU1IiB4Mj0iMzU0MyIgeTE9IjUzOC45ODQ0IiB5Mj0iNTM4Ljk4NDQiLz48dGV4dCBmaWxsPSIjMDAwMDAwIiBmb250LWZhbWlseT0ic2Fucy1zZXJpZiIgZm9udC1zaXplPSIxNCIgZm9udC13ZWlnaHQ9ImJvbGQiIGxlbmd0aEFkanVzdD0ic3BhY2luZyIgdGV4dExlbmd0aD0iMjc1IiB4PSIzMjU5IiB5PSI1MzMuMjM0NCI+Zmx1dHRlcjo6c3JjOjphbmltYXRpb246OmFuaW1hdGlvbi5kYXJ0PC90ZXh0PjwvZz48IS0tTUQ1PVtkNzhhZTUyODJiYmJiYzg1NzQ2NTBmOWI1MGQwODFlMF0KY2x1c3RlciBmbHV0dGVyOjpzcmM6OndpZGdldHM6OnRpY2tlcl9wcm92aWRlci5kYXJ0LS0+PGcgaWQ9ImNsdXN0ZXJfZmx1dHRlcjo6c3JjOjp3aWRnZXRzOjp0aWNrZXJfcHJvdmlkZXIuZGFydCI+PHBhdGggZD0iTTMxODMuNSwyOC41IEwzNDg2LjUsMjguNSBBMy43NSwzLjc1IDAgMCAxIDM0ODksMzEgTDM0OTYsNDkuNDg0NCBMMzQ5Ni41LDQ5LjQ4NDQgQTIuNSwyLjUgMCAwIDEgMzQ5OSw1MS45ODQ0IEwzNDk5LDEyMyBBMi41LDIuNSAwIDAgMSAzNDk2LjUsMTI1LjUgTDMxODMuNSwxMjUuNSBBMi41LDIuNSAwIDAgMSAzMTgxLDEyMyBMMzE4MSwzMSBBMi41LDIuNSAwIDAgMSAzMTgzLjUsMjguNSAiIHN0eWxlPSJzdHJva2U6IzAwMDAwMDtzdHJva2Utd2lkdGg6MS41O2ZpbGw6bm9uZTsiLz48bGluZSBzdHlsZT0ic3Ryb2tlOiMwMDAwMDA7c3Ryb2tlLXdpZHRoOjEuNTtmaWxsOm5vbmU7IiB4MT0iMzE4MSIgeDI9IjM0OTYiIHkxPSI0OS40ODQ0IiB5Mj0iNDkuNDg0NCIvPjx0ZXh0IGZpbGw9IiMwMDAwMDAiIGZvbnQtZmFtaWx5PSJzYW5zLXNlcmlmIiBmb250LXNpemU9IjE0IiBmb250LXdlaWdodD0iYm9sZCIgbGVuZ3RoQWRqdXN0PSJzcGFjaW5nIiB0ZXh0TGVuZ3RoPSIzMDIiIHg9IjMxODUiIHk9IjQzLjczNDQiPmZsdXR0ZXI6OnNyYzo6d2lkZ2V0czo6dGlja2VyX3Byb3ZpZGVyLmRhcnQ8L3RleHQ+PC9nPjwhLS1NRDU9W2JiNzIwMTJlODZkMTRkOGVmMWZkMjVmZTE0NDZkN2Q0XQpjbHVzdGVyIGJsYWNramFja2FwcDo6c2NyZWVuczo6c3BsYXNoc2NyZWVuLmRhcnQtLT48ZyBpZD0iY2x1c3Rlcl9ibGFja2phY2thcHA6OnNjcmVlbnM6OnNwbGFzaHNjcmVlbi5kYXJ0Ij48cGF0aCBkPSJNMjM3Ni41LDI1NC41IEwyNjU3LjUsMjU0LjUgQTMuNzUsMy43NSAwIDAgMSAyNjYwLDI1NyBMMjY2NywyNzUuNDg0NCBMMjg4Mi41LDI3NS40ODQ0IEEyLjUsMi41IDAgMCAxIDI4ODUsMjc3Ljk4NDQgTDI4ODUsNDA5IEEyLjUsMi41IDAgMCAxIDI4ODIuNSw0MTEuNSBMMjM3Ni41LDQxMS41IEEyLjUsMi41IDAgMCAxIDIzNzQsNDA5IEwyMzc0LDI1NyBBMi41LDIuNSAwIDAgMSAyMzc2LjUsMjU0LjUgIiBzdHlsZT0ic3Ryb2tlOiMwMDAwMDA7c3Ryb2tlLXdpZHRoOjEuNTtmaWxsOm5vbmU7Ii8+PGxpbmUgc3R5bGU9InN0cm9rZTojMDAwMDAwO3N0cm9rZS13aWR0aDoxLjU7ZmlsbDpub25lOyIgeDE9IjIzNzQiIHgyPSIyNjY3IiB5MT0iMjc1LjQ4NDQiIHkyPSIyNzUuNDg0NCIvPjx0ZXh0IGZpbGw9IiMwMDAwMDAiIGZvbnQtZmFtaWx5PSJzYW5zLXNlcmlmIiBmb250LXNpemU9IjE0IiBmb250LXdlaWdodD0iYm9sZCIgbGVuZ3RoQWRqdXN0PSJzcGFjaW5nIiB0ZXh0TGVuZ3RoPSIyODAiIHg9IjIzNzgiIHk9IjI2OS43MzQ0Ij5ibGFja2phY2thcHA6OnNjcmVlbnM6OnNwbGFzaHNjcmVlbi5kYXJ0PC90ZXh0PjwvZz48IS0tTUQ1PVswNjgwOWI4ZDVkZTNkNzVjMjg4ZjQ3OTZmNDFhY2Q5Y10KY2x1c3RlciBibGFja2phY2thcHA6OnNlcnZpY2VzOjphcGlfc2VydmljZS5kYXJ0LS0+PGcgaWQ9ImNsdXN0ZXJfYmxhY2tqYWNrYXBwOjpzZXJ2aWNlczo6YXBpX3NlcnZpY2UuZGFydCI+PHBhdGggZD0iTTQ0NDMuNSw2IEw0NzI0LjUsNiBBMy43NSwzLjc1IDAgMCAxIDQ3MjcsOC41IEw0NzM0LDI2Ljk4NDQgTDQ3MzguNSwyNi45ODQ0IEEyLjUsMi41IDAgMCAxIDQ3NDEsMjkuNDg0NCBMNDc0MSwxNDUuNSBBMi41LDIuNSAwIDAgMSA0NzM4LjUsMTQ4IEw0NDQzLjUsMTQ4IEEyLjUsMi41IDAgMCAxIDQ0NDEsMTQ1LjUgTDQ0NDEsOC41IEEyLjUsMi41IDAgMCAxIDQ0NDMuNSw2ICIgc3R5bGU9InN0cm9rZTojMDAwMDAwO3N0cm9rZS13aWR0aDoxLjU7ZmlsbDpub25lOyIvPjxsaW5lIHN0eWxlPSJzdHJva2U6IzAwMDAwMDtzdHJva2Utd2lkdGg6MS41O2ZpbGw6bm9uZTsiIHgxPSI0NDQxIiB4Mj0iNDczNCIgeTE9IjI2Ljk4NDQiIHkyPSIyNi45ODQ0Ii8+PHRleHQgZmlsbD0iIzAwMDAwMCIgZm9udC1mYW1pbHk9InNhbnMtc2VyaWYiIGZvbnQtc2l6ZT0iMTQiIGZvbnQtd2VpZ2h0PSJib2xkIiBsZW5ndGhBZGp1c3Q9InNwYWNpbmciIHRleHRMZW5ndGg9IjI4MCIgeD0iNDQ0NSIgeT0iMjEuMjM0NCI+YmxhY2tqYWNrYXBwOjpzZXJ2aWNlczo6YXBpX3NlcnZpY2UuZGFydDwvdGV4dD48L2c+PCEtLU1ENT1bZWM2Njk1NTVhMWFiNmFmNzIyMTEwOWMwNDU4NzM1OWJdCmNsdXN0ZXIgYmxhY2tqYWNrYXBwOjpzZXJ2aWNlczo6ZGVja19zZXJ2aWNlLmRhcnQtLT48ZyBpZD0iY2x1c3Rlcl9ibGFja2phY2thcHA6OnNlcnZpY2VzOjpkZWNrX3NlcnZpY2UuZGFydCI+PHBhdGggZD0iTTQ0ODEuNSwyODQuNSBMNDc2OS41LDI4NC41IEEzLjc1LDMuNzUgMCAwIDEgNDc3MiwyODcgTDQ3NzksMzA1LjQ4NDQgTDQ3NzkuNSwzMDUuNDg0NCBBMi41LDIuNSAwIDAgMSA0NzgyLDMwNy45ODQ0IEw0NzgyLDM3OSBBMi41LDIuNSAwIDAgMSA0Nzc5LjUsMzgxLjUgTDQ0ODEuNSwzODEuNSBBMi41LDIuNSAwIDAgMSA0NDc5LDM3OSBMNDQ3OSwyODcgQTIuNSwyLjUgMCAwIDEgNDQ4MS41LDI4NC41ICIgc3R5bGU9InN0cm9rZTojMDAwMDAwO3N0cm9rZS13aWR0aDoxLjU7ZmlsbDpub25lOyIvPjxsaW5lIHN0eWxlPSJzdHJva2U6IzAwMDAwMDtzdHJva2Utd2lkdGg6MS41O2ZpbGw6bm9uZTsiIHgxPSI0NDc5IiB4Mj0iNDc3OSIgeTE9IjMwNS40ODQ0IiB5Mj0iMzA1LjQ4NDQiLz48dGV4dCBmaWxsPSIjMDAwMDAwIiBmb250LWZhbWlseT0ic2Fucy1zZXJpZiIgZm9udC1zaXplPSIxNCIgZm9udC13ZWlnaHQ9ImJvbGQiIGxlbmd0aEFkanVzdD0ic3BhY2luZyIgdGV4dExlbmd0aD0iMjg3IiB4PSI0NDgzIiB5PSIyOTkuNzM0NCI+YmxhY2tqYWNrYXBwOjpzZXJ2aWNlczo6ZGVja19zZXJ2aWNlLmRhcnQ8L3RleHQ+PC9nPjwhLS1NRDU9Wzg3ZjVhYTI2Mzc1YWMxYzM3MDg1NzFhZWFkODNlNTIxXQpjbGFzcyBibGFja2phY2thcHA6OmFwaTo6Y2FyZHZhbHVlLmRhcnQ6OkNhcmRUeXBlLS0+PGcgaWQ9ImVsZW1fYmxhY2tqYWNrYXBwOjphcGk6OmNhcmR2YWx1ZS5kYXJ0OjpDYXJkVHlwZSI+PHJlY3QgY29kZUxpbmU9IjMiIGZpbGw9IiNGMUYxRjEiIGhlaWdodD0iMjcyLjc2NTYiIGlkPSJibGFja2phY2thcHA6OmFwaTo6Y2FyZHZhbHVlLmRhcnQ6OkNhcmRUeXBlIiByeD0iMi41IiByeT0iMi41IiBzdHlsZT0ic3Ryb2tlOiMxODE4MTg7c3Ryb2tlLXdpZHRoOjAuNTsiIHdpZHRoPSIxNzMiIHg9IjI4Mi41IiB5PSIyMDUiLz48ZWxsaXBzZSBjeD0iMzM2Ljc1IiBjeT0iMjIxIiBmaWxsPSIjQUREMUIyIiByeD0iMTEiIHJ5PSIxMSIgc3R5bGU9InN0cm9rZTojMTgxODE4O3N0cm9rZS13aWR0aDoxLjA7Ii8+PHBhdGggZD0iTTMzNC4zNzUsMjI1LjI1IEwzMzQuMzc1LDIyNyBMMzM5LjMxMjUsMjI3IEwzMzkuMzEyNSwyMjUuMjUgTDMzNC4zNzUsMjI1LjI1IFogTTMzNS4wNjI1LDIyNS45Mzc1IFEzMzUuMDYyNSwyMjUuOTM3NSAzMzUuMDYyNSwyMTYuNzUgTDMzMy4zMTI1LDIxNi43NSBRMzMzLjMxMjUsMjE2Ljc1IDMzMy4zMTI1LDIyNS45Mzc1IEwzMzUuMDYyNSwyMjUuOTM3NSBaIE0zMzguNjI1LDIyNS45Mzc1IEwzNDAuMzc1LDIyNS45Mzc1IFEzNDAuMzc1LDIyNS45Mzc1IDM0MC4zNzUsMjIzLjEyNSBMMzM4LjYyNSwyMjMuMTI1IFEzMzguNjI1LDIyMy4xMjUgMzM4LjYyNSwyMjUuOTM3NSBaIE0zMzguNjI1LDIxNi43NSBRMzM4LjYyNSwyMTYuNzUgMzM4LjYyNSwyMTkuNTYyNSBMMzQwLjM3NSwyMTkuNTYyNSBRMzQwLjM3NSwyMTkuNTYyNSAzNDAuMzc1LDIxNi43NSBMMzM4LjYyNSwyMTYuNzUgWiBNMzM0LjM3NSwyMTcuNDM3NSBMMzM5LjMxMjUsMjE3LjQzNzUgTDMzOS4zMTI1LDIxNS42ODc1IEwzMzQuMzc1LDIxNS42ODc1IEwzMzQuMzc1LDIxNy40Mzc1IFogIiBmaWxsPSIjMDAwMDAwIi8+PHRleHQgZmlsbD0iIzAwMDAwMCIgZm9udC1mYW1pbHk9InNhbnMtc2VyaWYiIGZvbnQtc2l6ZT0iMTQiIGxlbmd0aEFkanVzdD0ic3BhY2luZyIgdGV4dExlbmd0aD0iNTYiIHg9IjM1Ny4yNSIgeT0iMjI2Ljc0MjIiPkNhcmRUeXBlPC90ZXh0PjxsaW5lIHN0eWxlPSJzdHJva2U6IzE4MTgxODtzdHJva2Utd2lkdGg6MC41OyIgeDE9IjI4My41IiB4Mj0iNDU0LjUiIHkxPSIyMzciIHkyPSIyMzciLz48ZWxsaXBzZSBjeD0iMjkzLjUiIGN5PSIyNDgiIGZpbGw9Im5vbmUiIHJ4PSIzIiByeT0iMyIgc3R5bGU9InN0cm9rZTojMDM4MDQ4O3N0cm9rZS13aWR0aDoxLjA7Ii8+PHRleHQgZmlsbD0iIzAwMDAwMCIgZm9udC1mYW1pbHk9InNhbnMtc2VyaWYiIGZvbnQtc2l6ZT0iMTQiIGxlbmd0aEFkanVzdD0ic3BhY2luZyIgdGV4dExlbmd0aD0iNjMiIHg9IjMwMi41IiB5PSIyNTQuMjM0NCI+aW50IGluZGV4PC90ZXh0PjxlbGxpcHNlIGN4PSIyOTMuNSIgY3k9IjI2Mi45ODQ0IiBmaWxsPSJub25lIiByeD0iMyIgcnk9IjMiIHN0eWxlPSJzdHJva2U6IzAzODA0ODtzdHJva2Utd2lkdGg6MS4wOyIvPjx0ZXh0IGZpbGw9IiMwMDAwMDAiIGZvbnQtZmFtaWx5PSJzYW5zLXNlcmlmIiBmb250LXNpemU9IjE0IiBsZW5ndGhBZGp1c3Q9InNwYWNpbmciIHRleHQtZGVjb3JhdGlvbj0idW5kZXJsaW5lIiB0ZXh0TGVuZ3RoPSIxNDciIHg9IjMwMi41IiB5PSIyNjkuMjE4OCI+TGlzdCZsdDtDYXJkVHlwZSZndDsgdmFsdWVzPC90ZXh0PjxlbGxpcHNlIGN4PSIyOTMuNSIgY3k9IjI3Ny45Njg4IiBmaWxsPSJub25lIiByeD0iMyIgcnk9IjMiIHN0eWxlPSJzdHJva2U6IzAzODA0ODtzdHJva2Utd2lkdGg6MS4wOyIvPjx0ZXh0IGZpbGw9IiMwMDAwMDAiIGZvbnQtZmFtaWx5PSJzYW5zLXNlcmlmIiBmb250LXNpemU9IjE0IiBsZW5ndGhBZGp1c3Q9InNwYWNpbmciIHRleHQtZGVjb3JhdGlvbj0idW5kZXJsaW5lIiB0ZXh0TGVuZ3RoPSI4NCIgeD0iMzAyLjUiIHk9IjI4NC4yMDMxIj5DYXJkVHlwZSBvbmU8L3RleHQ+PGVsbGlwc2UgY3g9IjI5My41IiBjeT0iMjkyLjk1MzEiIGZpbGw9Im5vbmUiIHJ4PSIzIiByeT0iMyIgc3R5bGU9InN0cm9rZTojMDM4MDQ4O3N0cm9rZS13aWR0aDoxLjA7Ii8+PHRleHQgZmlsbD0iIzAwMDAwMCIgZm9udC1mYW1pbHk9InNhbnMtc2VyaWYiIGZvbnQtc2l6ZT0iMTQiIGxlbmd0aEFkanVzdD0ic3BhY2luZyIgdGV4dC1kZWNvcmF0aW9uPSJ1bmRlcmxpbmUiIHRleHRMZW5ndGg9Ijg1IiB4PSIzMDIuNSIgeT0iMjk5LjE4NzUiPkNhcmRUeXBlIHR3bzwvdGV4dD48ZWxsaXBzZSBjeD0iMjkzLjUiIGN5PSIzMDcuOTM3NSIgZmlsbD0ibm9uZSIgcng9IjMiIHJ5PSIzIiBzdHlsZT0ic3Ryb2tlOiMwMzgwNDg7c3Ryb2tlLXdpZHRoOjEuMDsiLz48dGV4dCBmaWxsPSIjMDAwMDAwIiBmb250LWZhbWlseT0ic2Fucy1zZXJpZiIgZm9udC1zaXplPSIxNCIgbGVuZ3RoQWRqdXN0PSJzcGFjaW5nIiB0ZXh0LWRlY29yYXRpb249InVuZGVybGluZSIgdGV4dExlbmd0aD0iOTgiIHg9IjMwMi41IiB5PSIzMTQuMTcxOSI+Q2FyZFR5cGUgdGhyZWU8L3RleHQ+PGVsbGlwc2UgY3g9IjI5My41IiBjeT0iMzIyLjkyMTkiIGZpbGw9Im5vbmUiIHJ4PSIzIiByeT0iMyIgc3R5bGU9InN0cm9rZTojMDM4MDQ4O3N0cm9rZS13aWR0aDoxLjA7Ii8+PHRleHQgZmlsbD0iIzAwMDAwMCIgZm9udC1mYW1pbHk9InNhbnMtc2VyaWYiIGZvbnQtc2l6ZT0iMTQiIGxlbmd0aEFkanVzdD0ic3BhY2luZyIgdGV4dC1kZWNvcmF0aW9uPSJ1bmRlcmxpbmUiIHRleHRMZW5ndGg9IjkxIiB4PSIzMDIuNSIgeT0iMzI5LjE1NjMiPkNhcmRUeXBlIGZvdXI8L3RleHQ+PGVsbGlwc2UgY3g9IjI5My41IiBjeT0iMzM3LjkwNjMiIGZpbGw9Im5vbmUiIHJ4PSIzIiByeT0iMyIgc3R5bGU9InN0cm9rZTojMDM4MDQ4O3N0cm9rZS13aWR0aDoxLjA7Ii8+PHRleHQgZmlsbD0iIzAwMDAwMCIgZm9udC1mYW1pbHk9InNhbnMtc2VyaWYiIGZvbnQtc2l6ZT0iMTQiIGxlbmd0aEFkanVzdD0ic3BhY2luZyIgdGV4dC1kZWNvcmF0aW9uPSJ1bmRlcmxpbmUiIHRleHRMZW5ndGg9IjkxIiB4PSIzMDIuNSIgeT0iMzQ0LjE0MDYiPkNhcmRUeXBlIGZpdmU8L3RleHQ+PGVsbGlwc2UgY3g9IjI5My41IiBjeT0iMzUyLjg5MDYiIGZpbGw9Im5vbmUiIHJ4PSIzIiByeT0iMyIgc3R5bGU9InN0cm9rZTojMDM4MDQ4O3N0cm9rZS13aWR0aDoxLjA7Ii8+PHRleHQgZmlsbD0iIzAwMDAwMCIgZm9udC1mYW1pbHk9InNhbnMtc2VyaWYiIGZvbnQtc2l6ZT0iMTQiIGxlbmd0aEFkanVzdD0ic3BhY2luZyIgdGV4dC1kZWNvcmF0aW9uPSJ1bmRlcmxpbmUiIHRleHRMZW5ndGg9Ijg0IiB4PSIzMDIuNSIgeT0iMzU5LjEyNSI+Q2FyZFR5cGUgc2l4PC90ZXh0PjxlbGxpcHNlIGN4PSIyOTMuNSIgY3k9IjM2Ny44NzUiIGZpbGw9Im5vbmUiIHJ4PSIzIiByeT0iMyIgc3R5bGU9InN0cm9rZTojMDM4MDQ4O3N0cm9rZS13aWR0aDoxLjA7Ii8+PHRleHQgZmlsbD0iIzAwMDAwMCIgZm9udC1mYW1pbHk9InNhbnMtc2VyaWYiIGZvbnQtc2l6ZT0iMTQiIGxlbmd0aEFkanVzdD0ic3BhY2luZyIgdGV4dC1kZWNvcmF0aW9uPSJ1bmRlcmxpbmUiIHRleHRMZW5ndGg9Ijk4IiB4PSIzMDIuNSIgeT0iMzc0LjEwOTQiPkNhcmRUeXBlIHNldmVuPC90ZXh0PjxlbGxpcHNlIGN4PSIyOTMuNSIgY3k9IjM4Mi44NTk0IiBmaWxsPSJub25lIiByeD0iMyIgcnk9IjMiIHN0eWxlPSJzdHJva2U6IzAzODA0ODtzdHJva2Utd2lkdGg6MS4wOyIvPjx0ZXh0IGZpbGw9IiMwMDAwMDAiIGZvbnQtZmFtaWx5PSJzYW5zLXNlcmlmIiBmb250LXNpemU9IjE0IiBsZW5ndGhBZGp1c3Q9InNwYWNpbmciIHRleHQtZGVjb3JhdGlvbj0idW5kZXJsaW5lIiB0ZXh0TGVuZ3RoPSI5OCIgeD0iMzAyLjUiIHk9IjM4OS4wOTM4Ij5DYXJkVHlwZSBlaWdodDwvdGV4dD48ZWxsaXBzZSBjeD0iMjkzLjUiIGN5PSIzOTcuODQzOCIgZmlsbD0ibm9uZSIgcng9IjMiIHJ5PSIzIiBzdHlsZT0ic3Ryb2tlOiMwMzgwNDg7c3Ryb2tlLXdpZHRoOjEuMDsiLz48dGV4dCBmaWxsPSIjMDAwMDAwIiBmb250LWZhbWlseT0ic2Fucy1zZXJpZiIgZm9udC1zaXplPSIxNCIgbGVuZ3RoQWRqdXN0PSJzcGFjaW5nIiB0ZXh0LWRlY29yYXRpb249InVuZGVybGluZSIgdGV4dExlbmd0aD0iOTEiIHg9IjMwMi41IiB5PSI0MDQuMDc4MSI+Q2FyZFR5cGUgbmluZTwvdGV4dD48ZWxsaXBzZSBjeD0iMjkzLjUiIGN5PSI0MTIuODI4MSIgZmlsbD0ibm9uZSIgcng9IjMiIHJ5PSIzIiBzdHlsZT0ic3Ryb2tlOiMwMzgwNDg7c3Ryb2tlLXdpZHRoOjEuMDsiLz48dGV4dCBmaWxsPSIjMDAwMDAwIiBmb250LWZhbWlseT0ic2Fucy1zZXJpZiIgZm9udC1zaXplPSIxNCIgbGVuZ3RoQWRqdXN0PSJzcGFjaW5nIiB0ZXh0LWRlY29yYXRpb249InVuZGVybGluZSIgdGV4dExlbmd0aD0iODQiIHg9IjMwMi41IiB5PSI0MTkuMDYyNSI+Q2FyZFR5cGUgdGVuPC90ZXh0PjxlbGxpcHNlIGN4PSIyOTMuNSIgY3k9IjQyNy44MTI1IiBmaWxsPSJub25lIiByeD0iMyIgcnk9IjMiIHN0eWxlPSJzdHJva2U6IzAzODA0ODtzdHJva2Utd2lkdGg6MS4wOyIvPjx0ZXh0IGZpbGw9IiMwMDAwMDAiIGZvbnQtZmFtaWx5PSJzYW5zLXNlcmlmIiBmb250LXNpemU9IjE0IiBsZW5ndGhBZGp1c3Q9InNwYWNpbmciIHRleHQtZGVjb3JhdGlvbj0idW5kZXJsaW5lIiB0ZXh0TGVuZ3RoPSI5MSIgeD0iMzAyLjUiIHk9IjQzNC4wNDY5Ij5DYXJkVHlwZSBqYWNrPC90ZXh0PjxlbGxpcHNlIGN4PSIyOTMuNSIgY3k9IjQ0Mi43OTY5IiBmaWxsPSJub25lIiByeD0iMyIgcnk9IjMiIHN0eWxlPSJzdHJva2U6IzAzODA0ODtzdHJva2Utd2lkdGg6MS4wOyIvPjx0ZXh0IGZpbGw9IiMwMDAwMDAiIGZvbnQtZmFtaWx5PSJzYW5zLXNlcmlmIiBmb250LXNpemU9IjE0IiBsZW5ndGhBZGp1c3Q9InNwYWNpbmciIHRleHQtZGVjb3JhdGlvbj0idW5kZXJsaW5lIiB0ZXh0TGVuZ3RoPSI5OCIgeD0iMzAyLjUiIHk9IjQ0OS4wMzEzIj5DYXJkVHlwZSBxdWVlbjwvdGV4dD48ZWxsaXBzZSBjeD0iMjkzLjUiIGN5PSI0NTcuNzgxMyIgZmlsbD0ibm9uZSIgcng9IjMiIHJ5PSIzIiBzdHlsZT0ic3Ryb2tlOiMwMzgwNDg7c3Ryb2tlLXdpZHRoOjEuMDsiLz48dGV4dCBmaWxsPSIjMDAwMDAwIiBmb250LWZhbWlseT0ic2Fucy1zZXJpZiIgZm9udC1zaXplPSIxNCIgbGVuZ3RoQWRqdXN0PSJzcGFjaW5nIiB0ZXh0LWRlY29yYXRpb249InVuZGVybGluZSIgdGV4dExlbmd0aD0iOTEiIHg9IjMwMi41IiB5PSI0NjQuMDE1NiI+Q2FyZFR5cGUga2luZzwvdGV4dD48bGluZSBzdHlsZT0ic3Ryb2tlOiMxODE4MTg7c3Ryb2tlLXdpZHRoOjAuNTsiIHgxPSIyODMuNSIgeDI9IjQ1NC41IiB5MT0iNDY5Ljc2NTYiIHkyPSI0NjkuNzY1NiIvPjwvZz48IS0tTUQ1PVs5MWM0YWNhNWRmNjFkNWU2MWEwYzI3MmYzNGY0YmNlMl0KY2xhc3MgYmxhY2tqYWNrYXBwOjphcGk6OmNhcmR2YWx1ZS5kYXJ0OjpTdWl0LS0+PGcgaWQ9ImVsZW1fYmxhY2tqYWNrYXBwOjphcGk6OmNhcmR2YWx1ZS5kYXJ0OjpTdWl0Ij48cmVjdCBjb2RlTGluZT0iMjQiIGZpbGw9IiNGMUYxRjEiIGhlaWdodD0iMTUyLjg5MDYiIGlkPSJibGFja2phY2thcHA6OmFwaTo6Y2FyZHZhbHVlLmRhcnQ6OlN1aXQiIHJ4PSIyLjUiIHJ5PSIyLjUiIHN0eWxlPSJzdHJva2U6IzE4MTgxODtzdHJva2Utd2lkdGg6MC41OyIgd2lkdGg9IjE0NSIgeD0iODQuNSIgeT0iMjY1Ii8+PGVsbGlwc2UgY3g9IjEzOC43NSIgY3k9IjI4MSIgZmlsbD0iI0FERDFCMiIgcng9IjExIiByeT0iMTEiIHN0eWxlPSJzdHJva2U6IzE4MTgxODtzdHJva2Utd2lkdGg6MS4wOyIvPjxwYXRoIGQ9Ik0xMzYuMzc1LDI4NS4yNSBMMTM2LjM3NSwyODcgTDE0MS4zMTI1LDI4NyBMMTQxLjMxMjUsMjg1LjI1IEwxMzYuMzc1LDI4NS4yNSBaIE0xMzcuMDYyNSwyODUuOTM3NSBRMTM3LjA2MjUsMjg1LjkzNzUgMTM3LjA2MjUsMjc2Ljc1IEwxMzUuMzEyNSwyNzYuNzUgUTEzNS4zMTI1LDI3Ni43NSAxMzUuMzEyNSwyODUuOTM3NSBMMTM3LjA2MjUsMjg1LjkzNzUgWiBNMTQwLjYyNSwyODUuOTM3NSBMMTQyLjM3NSwyODUuOTM3NSBRMTQyLjM3NSwyODUuOTM3NSAxNDIuMzc1LDI4My4xMjUgTDE0MC42MjUsMjgzLjEyNSBRMTQwLjYyNSwyODMuMTI1IDE0MC42MjUsMjg1LjkzNzUgWiBNMTQwLjYyNSwyNzYuNzUgUTE0MC42MjUsMjc2Ljc1IDE0MC42MjUsMjc5LjU2MjUgTDE0Mi4zNzUsMjc5LjU2MjUgUTE0Mi4zNzUsMjc5LjU2MjUgMTQyLjM3NSwyNzYuNzUgTDE0MC42MjUsMjc2Ljc1IFogTTEzNi4zNzUsMjc3LjQzNzUgTDE0MS4zMTI1LDI3Ny40Mzc1IEwxNDEuMzEyNSwyNzUuNjg3NSBMMTM2LjM3NSwyNzUuNjg3NSBMMTM2LjM3NSwyNzcuNDM3NSBaICIgZmlsbD0iIzAwMDAwMCIvPjx0ZXh0IGZpbGw9IiMwMDAwMDAiIGZvbnQtZmFtaWx5PSJzYW5zLXNlcmlmIiBmb250LXNpemU9IjE0IiBsZW5ndGhBZGp1c3Q9InNwYWNpbmciIHRleHRMZW5ndGg9IjI4IiB4PSIxNTkuMjUiIHk9IjI4Ni43NDIyIj5TdWl0PC90ZXh0PjxsaW5lIHN0eWxlPSJzdHJva2U6IzE4MTgxODtzdHJva2Utd2lkdGg6MC41OyIgeDE9Ijg1LjUiIHgyPSIyMjguNSIgeTE9IjI5NyIgeTI9IjI5NyIvPjxlbGxpcHNlIGN4PSI5NS41IiBjeT0iMzA4IiBmaWxsPSJub25lIiByeD0iMyIgcnk9IjMiIHN0eWxlPSJzdHJva2U6IzAzODA0ODtzdHJva2Utd2lkdGg6MS4wOyIvPjx0ZXh0IGZpbGw9IiMwMDAwMDAiIGZvbnQtZmFtaWx5PSJzYW5zLXNlcmlmIiBmb250LXNpemU9IjE0IiBsZW5ndGhBZGp1c3Q9InNwYWNpbmciIHRleHRMZW5ndGg9IjYzIiB4PSIxMDQuNSIgeT0iMzE0LjIzNDQiPmludCBpbmRleDwvdGV4dD48ZWxsaXBzZSBjeD0iOTUuNSIgY3k9IjMyMi45ODQ0IiBmaWxsPSJub25lIiByeD0iMyIgcnk9IjMiIHN0eWxlPSJzdHJva2U6IzAzODA0ODtzdHJva2Utd2lkdGg6MS4wOyIvPjx0ZXh0IGZpbGw9IiMwMDAwMDAiIGZvbnQtZmFtaWx5PSJzYW5zLXNlcmlmIiBmb250LXNpemU9IjE0IiBsZW5ndGhBZGp1c3Q9InNwYWNpbmciIHRleHQtZGVjb3JhdGlvbj0idW5kZXJsaW5lIiB0ZXh0TGVuZ3RoPSIxMTkiIHg9IjEwNC41IiB5PSIzMjkuMjE4OCI+TGlzdCZsdDtTdWl0Jmd0OyB2YWx1ZXM8L3RleHQ+PGVsbGlwc2UgY3g9Ijk1LjUiIGN5PSIzMzcuOTY4OCIgZmlsbD0ibm9uZSIgcng9IjMiIHJ5PSIzIiBzdHlsZT0ic3Ryb2tlOiMwMzgwNDg7c3Ryb2tlLXdpZHRoOjEuMDsiLz48dGV4dCBmaWxsPSIjMDAwMDAwIiBmb250LWZhbWlseT0ic2Fucy1zZXJpZiIgZm9udC1zaXplPSIxNCIgbGVuZ3RoQWRqdXN0PSJzcGFjaW5nIiB0ZXh0LWRlY29yYXRpb249InVuZGVybGluZSIgdGV4dExlbmd0aD0iNzciIHg9IjEwNC41IiB5PSIzNDQuMjAzMSI+U3VpdCBzcGFkZXM8L3RleHQ+PGVsbGlwc2UgY3g9Ijk1LjUiIGN5PSIzNTIuOTUzMSIgZmlsbD0ibm9uZSIgcng9IjMiIHJ5PSIzIiBzdHlsZT0ic3Ryb2tlOiMwMzgwNDg7c3Ryb2tlLXdpZHRoOjEuMDsiLz48dGV4dCBmaWxsPSIjMDAwMDAwIiBmb250LWZhbWlseT0ic2Fucy1zZXJpZiIgZm9udC1zaXplPSIxNCIgbGVuZ3RoQWRqdXN0PSJzcGFjaW5nIiB0ZXh0LWRlY29yYXRpb249InVuZGVybGluZSIgdGV4dExlbmd0aD0iNzciIHg9IjEwNC41IiB5PSIzNTkuMTg3NSI+U3VpdCBoZWFydHM8L3RleHQ+PGVsbGlwc2UgY3g9Ijk1LjUiIGN5PSIzNjcuOTM3NSIgZmlsbD0ibm9uZSIgcng9IjMiIHJ5PSIzIiBzdHlsZT0ic3Ryb2tlOiMwMzgwNDg7c3Ryb2tlLXdpZHRoOjEuMDsiLz48dGV4dCBmaWxsPSIjMDAwMDAwIiBmb250LWZhbWlseT0ic2Fucy1zZXJpZiIgZm9udC1zaXplPSIxNCIgbGVuZ3RoQWRqdXN0PSJzcGFjaW5nIiB0ZXh0LWRlY29yYXRpb249InVuZGVybGluZSIgdGV4dExlbmd0aD0iOTIiIHg9IjEwNC41IiB5PSIzNzQuMTcxOSI+U3VpdCBkaWFtb25kczwvdGV4dD48ZWxsaXBzZSBjeD0iOTUuNSIgY3k9IjM4Mi45MjE5IiBmaWxsPSJub25lIiByeD0iMyIgcnk9IjMiIHN0eWxlPSJzdHJva2U6IzAzODA0ODtzdHJva2Utd2lkdGg6MS4wOyIvPjx0ZXh0IGZpbGw9IiMwMDAwMDAiIGZvbnQtZmFtaWx5PSJzYW5zLXNlcmlmIiBmb250LXNpemU9IjE0IiBsZW5ndGhBZGp1c3Q9InNwYWNpbmciIHRleHQtZGVjb3JhdGlvbj0idW5kZXJsaW5lIiB0ZXh0TGVuZ3RoPSI3MCIgeD0iMTA0LjUiIHk9IjM4OS4xNTYzIj5TdWl0IGNsdWJzPC90ZXh0PjxlbGxpcHNlIGN4PSI5NS41IiBjeT0iMzk3LjkwNjMiIGZpbGw9Im5vbmUiIHJ4PSIzIiByeT0iMyIgc3R5bGU9InN0cm9rZTojMDM4MDQ4O3N0cm9rZS13aWR0aDoxLjA7Ii8+PHRleHQgZmlsbD0iIzAwMDAwMCIgZm9udC1mYW1pbHk9InNhbnMtc2VyaWYiIGZvbnQtc2l6ZT0iMTQiIGxlbmd0aEFkanVzdD0ic3BhY2luZyIgdGV4dC1kZWNvcmF0aW9uPSJ1bmRlcmxpbmUiIHRleHRMZW5ndGg9IjcwIiB4PSIxMDQuNSIgeT0iNDA0LjE0MDYiPlN1aXQgam9rZXI8L3RleHQ+PGxpbmUgc3R5bGU9InN0cm9rZTojMTgxODE4O3N0cm9rZS13aWR0aDowLjU7IiB4MT0iODUuNSIgeDI9IjIyOC41IiB5MT0iNDA5Ljg5MDYiIHkyPSI0MDkuODkwNiIvPjwvZz48IS0tTUQ1PVtkNmZhMzRjMTA2MTk0YjJmMWIzNTI2M2MyMTJlZWY0ZV0KY2xhc3MgZGFydDo6Y29yZTo6RW51bS0tPjxnIGlkPSJlbGVtX2RhcnQ6OmNvcmU6OkVudW0iPjxyZWN0IGZpbGw9IiNGMUYxRjEiIGhlaWdodD0iNDgiIGlkPSJkYXJ0Ojpjb3JlOjpFbnVtIiByeD0iMi41IiByeT0iMi41IiBzdHlsZT0ic3Ryb2tlOiMxODE4MTg7c3Ryb2tlLXdpZHRoOjAuNTsiIHdpZHRoPSI2MSIgeD0iMzM4LjUiIHk9IjYxLjUiLz48ZWxsaXBzZSBjeD0iMzUzLjUiIGN5PSI3Ny41IiBmaWxsPSIjQUREMUIyIiByeD0iMTEiIHJ5PSIxMSIgc3R5bGU9InN0cm9rZTojMTgxODE4O3N0cm9rZS13aWR0aDoxLjA7Ii8+PHBhdGggZD0iTTM1MS4xMjUsODEuNzUgTDM1MS4xMjUsODMuNSBMMzU2LjA2MjUsODMuNSBMMzU2LjA2MjUsODEuNzUgTDM1MS4xMjUsODEuNzUgWiBNMzUxLjgxMjUsODIuNDM3NSBRMzUxLjgxMjUsODIuNDM3NSAzNTEuODEyNSw3My4yNSBMMzUwLjA2MjUsNzMuMjUgUTM1MC4wNjI1LDczLjI1IDM1MC4wNjI1LDgyLjQzNzUgTDM1MS44MTI1LDgyLjQzNzUgWiBNMzU1LjM3NSw4Mi40Mzc1IEwzNTcuMTI1LDgyLjQzNzUgUTM1Ny4xMjUsODIuNDM3NSAzNTcuMTI1LDc5LjYyNSBMMzU1LjM3NSw3OS42MjUgUTM1NS4zNzUsNzkuNjI1IDM1NS4zNzUsODIuNDM3NSBaIE0zNTUuMzc1LDczLjI1IFEzNTUuMzc1LDczLjI1IDM1NS4zNzUsNzYuMDYyNSBMMzU3LjEyNSw3Ni4wNjI1IFEzNTcuMTI1LDc2LjA2MjUgMzU3LjEyNSw3My4yNSBMMzU1LjM3NSw3My4yNSBaIE0zNTEuMTI1LDczLjkzNzUgTDM1Ni4wNjI1LDczLjkzNzUgTDM1Ni4wNjI1LDcyLjE4NzUgTDM1MS4xMjUsNzIuMTg3NSBMMzUxLjEyNSw3My45Mzc1IFogIiBmaWxsPSIjMDAwMDAwIi8+PHRleHQgZmlsbD0iIzAwMDAwMCIgZm9udC1mYW1pbHk9InNhbnMtc2VyaWYiIGZvbnQtc2l6ZT0iMTQiIGxlbmd0aEFkanVzdD0ic3BhY2luZyIgdGV4dExlbmd0aD0iMjkiIHg9IjM2Ny41IiB5PSI4My4yNDIyIj5FbnVtPC90ZXh0PjxsaW5lIHN0eWxlPSJzdHJva2U6IzE4MTgxODtzdHJva2Utd2lkdGg6MC41OyIgeDE9IjMzOS41IiB4Mj0iMzk4LjUiIHkxPSI5My41IiB5Mj0iOTMuNSIvPjxsaW5lIHN0eWxlPSJzdHJva2U6IzE4MTgxODtzdHJva2Utd2lkdGg6MC41OyIgeDE9IjMzOS41IiB4Mj0iMzk4LjUiIHkxPSIxMDEuNSIgeTI9IjEwMS41Ii8+PC9nPjwhLS1NRDU9WzE0ZmQyZGNjYTEzNDY5YWMwODIzYjdhN2Q2MzEzMDJiXQpjbGFzcyBibGFja2phY2thcHA6OmFwaTo6cGxheWluZ2NhcmQuZGFydDo6UGxheWluZ0NhcmQtLT48ZyBpZD0iZWxlbV9ibGFja2phY2thcHA6OmFwaTo6cGxheWluZ2NhcmQuZGFydDo6UGxheWluZ0NhcmQiPjxyZWN0IGNvZGVMaW5lPSIzNyIgZmlsbD0iI0YxRjFGMSIgaGVpZ2h0PSI3Ny45Njg4IiBpZD0iYmxhY2tqYWNrYXBwOjphcGk6OnBsYXlpbmdjYXJkLmRhcnQ6OlBsYXlpbmdDYXJkIiByeD0iMi41IiByeT0iMi41IiBzdHlsZT0ic3Ryb2tlOiMxODE4MTg7c3Ryb2tlLXdpZHRoOjAuNTsiIHdpZHRoPSIxMjQiIHg9IjExMSIgeT0iNDYuNSIvPjxlbGxpcHNlIGN4PSIxMzIuNzUiIGN5PSI2Mi41IiBmaWxsPSIjQUREMUIyIiByeD0iMTEiIHJ5PSIxMSIgc3R5bGU9InN0cm9rZTojMTgxODE4O3N0cm9rZS13aWR0aDoxLjA7Ii8+PHBhdGggZD0iTTEzMC4zNzUsNjYuNzUgTDEzMC4zNzUsNjguNSBMMTM1LjMxMjUsNjguNSBMMTM1LjMxMjUsNjYuNzUgTDEzMC4zNzUsNjYuNzUgWiBNMTMxLjA2MjUsNjcuNDM3NSBRMTMxLjA2MjUsNjcuNDM3NSAxMzEuMDYyNSw1OC4yNSBMMTI5LjMxMjUsNTguMjUgUTEyOS4zMTI1LDU4LjI1IDEyOS4zMTI1LDY3LjQzNzUgTDEzMS4wNjI1LDY3LjQzNzUgWiBNMTM0LjYyNSw2Ny40Mzc1IEwxMzYuMzc1LDY3LjQzNzUgUTEzNi4zNzUsNjcuNDM3NSAxMzYuMzc1LDY0LjYyNSBMMTM0LjYyNSw2NC42MjUgUTEzNC42MjUsNjQuNjI1IDEzNC42MjUsNjcuNDM3NSBaIE0xMzQuNjI1LDU4LjI1IFExMzQuNjI1LDU4LjI1IDEzNC42MjUsNjEuMDYyNSBMMTM2LjM3NSw2MS4wNjI1IFExMzYuMzc1LDYxLjA2MjUgMTM2LjM3NSw1OC4yNSBMMTM0LjYyNSw1OC4yNSBaIE0xMzAuMzc1LDU4LjkzNzUgTDEzNS4zMTI1LDU4LjkzNzUgTDEzNS4zMTI1LDU3LjE4NzUgTDEzMC4zNzUsNTcuMTg3NSBMMTMwLjM3NSw1OC45Mzc1IFogIiBmaWxsPSIjMDAwMDAwIi8+PHRleHQgZmlsbD0iIzAwMDAwMCIgZm9udC1mYW1pbHk9InNhbnMtc2VyaWYiIGZvbnQtc2l6ZT0iMTQiIGxlbmd0aEFkanVzdD0ic3BhY2luZyIgdGV4dExlbmd0aD0iNzciIHg9IjE0OC4yNSIgeT0iNjguMjQyMiI+UGxheWluZ0NhcmQ8L3RleHQ+PGxpbmUgc3R5bGU9InN0cm9rZTojMTgxODE4O3N0cm9rZS13aWR0aDowLjU7IiB4MT0iMTEyIiB4Mj0iMjM0IiB5MT0iNzguNSIgeTI9Ijc4LjUiLz48ZWxsaXBzZSBjeD0iMTIyIiBjeT0iODkuNSIgZmlsbD0ibm9uZSIgcng9IjMiIHJ5PSIzIiBzdHlsZT0ic3Ryb2tlOiMwMzgwNDg7c3Ryb2tlLXdpZHRoOjEuMDsiLz48dGV4dCBmaWxsPSIjMDAwMDAwIiBmb250LWZhbWlseT0ic2Fucy1zZXJpZiIgZm9udC1zaXplPSIxNCIgbGVuZ3RoQWRqdXN0PSJzcGFjaW5nIiB0ZXh0TGVuZ3RoPSI2MyIgeD0iMTMxIiB5PSI5NS43MzQ0Ij5TdWl0IHN1aXQ8L3RleHQ+PGVsbGlwc2UgY3g9IjEyMiIgY3k9IjEwNC40ODQ0IiBmaWxsPSJub25lIiByeD0iMyIgcnk9IjMiIHN0eWxlPSJzdHJva2U6IzAzODA0ODtzdHJva2Utd2lkdGg6MS4wOyIvPjx0ZXh0IGZpbGw9IiMwMDAwMDAiIGZvbnQtZmFtaWx5PSJzYW5zLXNlcmlmIiBmb250LXNpemU9IjE0IiBsZW5ndGhBZGp1c3Q9InNwYWNpbmciIHRleHRMZW5ndGg9Ijk4IiB4PSIxMzEiIHk9IjExMC43MTg4Ij5DYXJkVHlwZSB2YWx1ZTwvdGV4dD48bGluZSBzdHlsZT0ic3Ryb2tlOiMxODE4MTg7c3Ryb2tlLXdpZHRoOjAuNTsiIHgxPSIxMTIiIHgyPSIyMzQiIHkxPSIxMTYuNDY4OCIgeTI9IjExNi40Njg4Ii8+PC9nPjwhLS1NRDU9W2UxMzYyODhiNmY4MDlmZjJhZTdhOGRkNDhkODQ4MzYzXQpjbGFzcyBibGFja2phY2thcHA6OmNvbXBvbmVudHM6OmNhcmRiYWNrLmRhcnQ6OkNhcmRCYWNrLS0+PGcgaWQ9ImVsZW1fYmxhY2tqYWNrYXBwOjpjb21wb25lbnRzOjpjYXJkYmFjay5kYXJ0OjpDYXJkQmFjayI+PHJlY3QgY29kZUxpbmU9IjQ1IiBmaWxsPSIjRjFGMUYxIiBoZWlnaHQ9Ijc3Ljk2ODgiIGlkPSJibGFja2phY2thcHA6OmNvbXBvbmVudHM6OmNhcmRiYWNrLmRhcnQ6OkNhcmRCYWNrIiByeD0iMi41IiByeT0iMi41IiBzdHlsZT0ic3Ryb2tlOiMxODE4MTg7c3Ryb2tlLXdpZHRoOjAuNTsiIHdpZHRoPSIxMjYiIHg9IjEwMjciIHk9IjMwMi41Ii8+PGVsbGlwc2UgY3g9IjEwNTkuMSIgY3k9IjMxOC41IiBmaWxsPSIjQUREMUIyIiByeD0iMTEiIHJ5PSIxMSIgc3R5bGU9InN0cm9rZTojMTgxODE4O3N0cm9rZS13aWR0aDoxLjA7Ii8+PHBhdGggZD0iTTEwNTYuNzI1LDMyMi43NSBMMTA1Ni43MjUsMzI0LjUgTDEwNjEuNjYyNSwzMjQuNSBMMTA2MS42NjI1LDMyMi43NSBMMTA1Ni43MjUsMzIyLjc1IFogTTEwNTcuNDEyNSwzMjMuNDM3NSBRMTA1Ny40MTI1LDMyMy40Mzc1IDEwNTcuNDEyNSwzMTQuMjUgTDEwNTUuNjYyNSwzMTQuMjUgUTEwNTUuNjYyNSwzMTQuMjUgMTA1NS42NjI1LDMyMy40Mzc1IEwxMDU3LjQxMjUsMzIzLjQzNzUgWiBNMTA2MC45NzUsMzIzLjQzNzUgTDEwNjIuNzI1LDMyMy40Mzc1IFExMDYyLjcyNSwzMjMuNDM3NSAxMDYyLjcyNSwzMjAuNjI1IEwxMDYwLjk3NSwzMjAuNjI1IFExMDYwLjk3NSwzMjAuNjI1IDEwNjAuOTc1LDMyMy40Mzc1IFogTTEwNjAuOTc1LDMxNC4yNSBRMTA2MC45NzUsMzE0LjI1IDEwNjAuOTc1LDMxNy4wNjI1IEwxMDYyLjcyNSwzMTcuMDYyNSBRMTA2Mi43MjUsMzE3LjA2MjUgMTA2Mi43MjUsMzE0LjI1IEwxMDYwLjk3NSwzMTQuMjUgWiBNMTA1Ni43MjUsMzE0LjkzNzUgTDEwNjEuNjYyNSwzMTQuOTM3NSBMMTA2MS42NjI1LDMxMy4xODc1IEwxMDU2LjcyNSwzMTMuMTg3NSBMMTA1Ni43MjUsMzE0LjkzNzUgWiAiIGZpbGw9IiMwMDAwMDAiLz48dGV4dCBmaWxsPSIjMDAwMDAwIiBmb250LWZhbWlseT0ic2Fucy1zZXJpZiIgZm9udC1zaXplPSIxNCIgbGVuZ3RoQWRqdXN0PSJzcGFjaW5nIiB0ZXh0TGVuZ3RoPSI1NiIgeD0iMTA3Ni45IiB5PSIzMjQuMjQyMiI+Q2FyZEJhY2s8L3RleHQ+PGxpbmUgc3R5bGU9InN0cm9rZTojMTgxODE4O3N0cm9rZS13aWR0aDowLjU7IiB4MT0iMTAyOCIgeDI9IjExNTIiIHkxPSIzMzQuNSIgeTI9IjMzNC41Ii8+PGVsbGlwc2UgY3g9IjEwMzgiIGN5PSIzNDUuNSIgZmlsbD0ibm9uZSIgcng9IjMiIHJ5PSIzIiBzdHlsZT0ic3Ryb2tlOiMwMzgwNDg7c3Ryb2tlLXdpZHRoOjEuMDsiLz48dGV4dCBmaWxsPSIjMDAwMDAwIiBmb250LWZhbWlseT0ic2Fucy1zZXJpZiIgZm9udC1zaXplPSIxNCIgbGVuZ3RoQWRqdXN0PSJzcGFjaW5nIiB0ZXh0TGVuZ3RoPSI5MiIgeD0iMTA0NyIgeT0iMzUxLjczNDQiPmR5bmFtaWMgY29sb3I8L3RleHQ+PGxpbmUgc3R5bGU9InN0cm9rZTojMTgxODE4O3N0cm9rZS13aWR0aDowLjU7IiB4MT0iMTAyOCIgeDI9IjExNTIiIHkxPSIzNTcuNDg0NCIgeTI9IjM1Ny40ODQ0Ii8+PGVsbGlwc2UgY3g9IjEwMzgiIGN5PSIzNjguNDg0NCIgZmlsbD0iIzg0QkU4NCIgcng9IjMiIHJ5PSIzIiBzdHlsZT0ic3Ryb2tlOiMwMzgwNDg7c3Ryb2tlLXdpZHRoOjEuMDsiLz48dGV4dCBmaWxsPSIjMDAwMDAwIiBmb250LWZhbWlseT0ic2Fucy1zZXJpZiIgZm9udC1zaXplPSIxNCIgbGVuZ3RoQWRqdXN0PSJzcGFjaW5nIiB0ZXh0TGVuZ3RoPSIxMDAiIHg9IjEwNDciIHk9IjM3NC43MTg4Ij5XaWRnZXQgYnVpbGQoKTwvdGV4dD48L2c+PCEtLU1ENT1bZWZjOWZmODM4MmVhYmQwZjBiODIyZDFiZTE4YTk4YTldCmNsYXNzIGZsdXR0ZXI6OnNyYzo6d2lkZ2V0czo6ZnJhbWV3b3JrLmRhcnQ6OlN0YXRlbGVzc1dpZGdldC0tPjxnIGlkPSJlbGVtX2ZsdXR0ZXI6OnNyYzo6d2lkZ2V0czo6ZnJhbWV3b3JrLmRhcnQ6OlN0YXRlbGVzc1dpZGdldCI+PHJlY3QgZmlsbD0iI0YxRjFGMSIgaGVpZ2h0PSI0OCIgaWQ9ImZsdXR0ZXI6OnNyYzo6d2lkZ2V0czo6ZnJhbWV3b3JrLmRhcnQ6OlN0YXRlbGVzc1dpZGdldCIgcng9IjIuNSIgcnk9IjIuNSIgc3R5bGU9InN0cm9rZTojMTgxODE4O3N0cm9rZS13aWR0aDowLjU7IiB3aWR0aD0iMTM3IiB4PSIyMTM2LjUiIHk9IjYxLjUiLz48ZWxsaXBzZSBjeD0iMjE1MS41IiBjeT0iNzcuNSIgZmlsbD0iI0FERDFCMiIgcng9IjExIiByeT0iMTEiIHN0eWxlPSJzdHJva2U6IzE4MTgxODtzdHJva2Utd2lkdGg6MS4wOyIvPjxwYXRoIGQ9Ik0yMTQ5LjEyNSw4MS43NSBMMjE0OS4xMjUsODMuNSBMMjE1NC4wNjI1LDgzLjUgTDIxNTQuMDYyNSw4MS43NSBMMjE0OS4xMjUsODEuNzUgWiBNMjE0OS44MTI1LDgyLjQzNzUgUTIxNDkuODEyNSw4Mi40Mzc1IDIxNDkuODEyNSw3My4yNSBMMjE0OC4wNjI1LDczLjI1IFEyMTQ4LjA2MjUsNzMuMjUgMjE0OC4wNjI1LDgyLjQzNzUgTDIxNDkuODEyNSw4Mi40Mzc1IFogTTIxNTMuMzc1LDgyLjQzNzUgTDIxNTUuMTI1LDgyLjQzNzUgUTIxNTUuMTI1LDgyLjQzNzUgMjE1NS4xMjUsNzkuNjI1IEwyMTUzLjM3NSw3OS42MjUgUTIxNTMuMzc1LDc5LjYyNSAyMTUzLjM3NSw4Mi40Mzc1IFogTTIxNTMuMzc1LDczLjI1IFEyMTUzLjM3NSw3My4yNSAyMTUzLjM3NSw3Ni4wNjI1IEwyMTU1LjEyNSw3Ni4wNjI1IFEyMTU1LjEyNSw3Ni4wNjI1IDIxNTUuMTI1LDczLjI1IEwyMTUzLjM3NSw3My4yNSBaIE0yMTQ5LjEyNSw3My45Mzc1IEwyMTU0LjA2MjUsNzMuOTM3NSBMMjE1NC4wNjI1LDcyLjE4NzUgTDIxNDkuMTI1LDcyLjE4NzUgTDIxNDkuMTI1LDczLjkzNzUgWiAiIGZpbGw9IiMwMDAwMDAiLz48dGV4dCBmaWxsPSIjMDAwMDAwIiBmb250LWZhbWlseT0ic2Fucy1zZXJpZiIgZm9udC1zaXplPSIxNCIgbGVuZ3RoQWRqdXN0PSJzcGFjaW5nIiB0ZXh0TGVuZ3RoPSIxMDUiIHg9IjIxNjUuNSIgeT0iODMuMjQyMiI+U3RhdGVsZXNzV2lkZ2V0PC90ZXh0PjxsaW5lIHN0eWxlPSJzdHJva2U6IzE4MTgxODtzdHJva2Utd2lkdGg6MC41OyIgeDE9IjIxMzcuNSIgeDI9IjIyNzIuNSIgeTE9IjkzLjUiIHkyPSI5My41Ii8+PGxpbmUgc3R5bGU9InN0cm9rZTojMTgxODE4O3N0cm9rZS13aWR0aDowLjU7IiB4MT0iMjEzNy41IiB4Mj0iMjI3Mi41IiB5MT0iMTAxLjUiIHkyPSIxMDEuNSIvPjwvZz48IS0tTUQ1PVthYTNmN2VlYWZlYzUyMmJhOWJjOGY1OWIzMTU1MDgyY10KY2xhc3MgZmx1dHRlcjo6c3JjOjp3aWRnZXRzOjpmcmFtZXdvcmsuZGFydDo6U3RhdGVmdWxXaWRnZXQtLT48ZyBpZD0iZWxlbV9mbHV0dGVyOjpzcmM6OndpZGdldHM6OmZyYW1ld29yay5kYXJ0OjpTdGF0ZWZ1bFdpZGdldCI+PHJlY3QgZmlsbD0iI0YxRjFGMSIgaGVpZ2h0PSI0OCIgaWQ9ImZsdXR0ZXI6OnNyYzo6d2lkZ2V0czo6ZnJhbWV3b3JrLmRhcnQ6OlN0YXRlZnVsV2lkZ2V0IiByeD0iMi41IiByeT0iMi41IiBzdHlsZT0ic3Ryb2tlOiMxODE4MTg7c3Ryb2tlLXdpZHRoOjAuNTsiIHdpZHRoPSIxMzAiIHg9IjIzMDkiIHk9IjYxLjUiLz48ZWxsaXBzZSBjeD0iMjMyNCIgY3k9Ijc3LjUiIGZpbGw9IiNBREQxQjIiIHJ4PSIxMSIgcnk9IjExIiBzdHlsZT0ic3Ryb2tlOiMxODE4MTg7c3Ryb2tlLXdpZHRoOjEuMDsiLz48cGF0aCBkPSJNMjMyMS42MjUsODEuNzUgTDIzMjEuNjI1LDgzLjUgTDIzMjYuNTYyNSw4My41IEwyMzI2LjU2MjUsODEuNzUgTDIzMjEuNjI1LDgxLjc1IFogTTIzMjIuMzEyNSw4Mi40Mzc1IFEyMzIyLjMxMjUsODIuNDM3NSAyMzIyLjMxMjUsNzMuMjUgTDIzMjAuNTYyNSw3My4yNSBRMjMyMC41NjI1LDczLjI1IDIzMjAuNTYyNSw4Mi40Mzc1IEwyMzIyLjMxMjUsODIuNDM3NSBaIE0yMzI1Ljg3NSw4Mi40Mzc1IEwyMzI3LjYyNSw4Mi40Mzc1IFEyMzI3LjYyNSw4Mi40Mzc1IDIzMjcuNjI1LDc5LjYyNSBMMjMyNS44NzUsNzkuNjI1IFEyMzI1Ljg3NSw3OS42MjUgMjMyNS44NzUsODIuNDM3NSBaIE0yMzI1Ljg3NSw3My4yNSBRMjMyNS44NzUsNzMuMjUgMjMyNS44NzUsNzYuMDYyNSBMMjMyNy42MjUsNzYuMDYyNSBRMjMyNy42MjUsNzYuMDYyNSAyMzI3LjYyNSw3My4yNSBMMjMyNS44NzUsNzMuMjUgWiBNMjMyMS42MjUsNzMuOTM3NSBMMjMyNi41NjI1LDczLjkzNzUgTDIzMjYuNTYyNSw3Mi4xODc1IEwyMzIxLjYyNSw3Mi4xODc1IEwyMzIxLjYyNSw3My45Mzc1IFogIiBmaWxsPSIjMDAwMDAwIi8+PHRleHQgZmlsbD0iIzAwMDAwMCIgZm9udC1mYW1pbHk9InNhbnMtc2VyaWYiIGZvbnQtc2l6ZT0iMTQiIGxlbmd0aEFkanVzdD0ic3BhY2luZyIgdGV4dExlbmd0aD0iOTgiIHg9IjIzMzgiIHk9IjgzLjI0MjIiPlN0YXRlZnVsV2lkZ2V0PC90ZXh0PjxsaW5lIHN0eWxlPSJzdHJva2U6IzE4MTgxODtzdHJva2Utd2lkdGg6MC41OyIgeDE9IjIzMTAiIHgyPSIyNDM4IiB5MT0iOTMuNSIgeTI9IjkzLjUiLz48bGluZSBzdHlsZT0ic3Ryb2tlOiMxODE4MTg7c3Ryb2tlLXdpZHRoOjAuNTsiIHgxPSIyMzEwIiB4Mj0iMjQzOCIgeTE9IjEwMS41IiB5Mj0iMTAxLjUiLz48L2c+PCEtLU1ENT1bOTQzMjYxOTc3NmU3MTgwMWZkNGI1ODU5NGVmNzM1MThdCmNsYXNzIGZsdXR0ZXI6OnNyYzo6d2lkZ2V0czo6ZnJhbWV3b3JrLmRhcnQ6OlN0YXRlLS0+PGcgaWQ9ImVsZW1fZmx1dHRlcjo6c3JjOjp3aWRnZXRzOjpmcmFtZXdvcmsuZGFydDo6U3RhdGUiPjxyZWN0IGZpbGw9IiNGMUYxRjEiIGhlaWdodD0iNDgiIGlkPSJmbHV0dGVyOjpzcmM6OndpZGdldHM6OmZyYW1ld29yay5kYXJ0OjpTdGF0ZSIgcng9IjIuNSIgcnk9IjIuNSIgc3R5bGU9InN0cm9rZTojMTgxODE4O3N0cm9rZS13aWR0aDowLjU7IiB3aWR0aD0iNjciIHg9IjI0NzQuNSIgeT0iNjEuNSIvPjxlbGxpcHNlIGN4PSIyNDg5LjUiIGN5PSI3Ny41IiBmaWxsPSIjQUREMUIyIiByeD0iMTEiIHJ5PSIxMSIgc3R5bGU9InN0cm9rZTojMTgxODE4O3N0cm9rZS13aWR0aDoxLjA7Ii8+PHBhdGggZD0iTTI0ODcuMTI1LDgxLjc1IEwyNDg3LjEyNSw4My41IEwyNDkyLjA2MjUsODMuNSBMMjQ5Mi4wNjI1LDgxLjc1IEwyNDg3LjEyNSw4MS43NSBaIE0yNDg3LjgxMjUsODIuNDM3NSBRMjQ4Ny44MTI1LDgyLjQzNzUgMjQ4Ny44MTI1LDczLjI1IEwyNDg2LjA2MjUsNzMuMjUgUTI0ODYuMDYyNSw3My4yNSAyNDg2LjA2MjUsODIuNDM3NSBMMjQ4Ny44MTI1LDgyLjQzNzUgWiBNMjQ5MS4zNzUsODIuNDM3NSBMMjQ5My4xMjUsODIuNDM3NSBRMjQ5My4xMjUsODIuNDM3NSAyNDkzLjEyNSw3OS42MjUgTDI0OTEuMzc1LDc5LjYyNSBRMjQ5MS4zNzUsNzkuNjI1IDI0OTEuMzc1LDgyLjQzNzUgWiBNMjQ5MS4zNzUsNzMuMjUgUTI0OTEuMzc1LDczLjI1IDI0OTEuMzc1LDc2LjA2MjUgTDI0OTMuMTI1LDc2LjA2MjUgUTI0OTMuMTI1LDc2LjA2MjUgMjQ5My4xMjUsNzMuMjUgTDI0OTEuMzc1LDczLjI1IFogTTI0ODcuMTI1LDczLjkzNzUgTDI0OTIuMDYyNSw3My45Mzc1IEwyNDkyLjA2MjUsNzIuMTg3NSBMMjQ4Ny4xMjUsNzIuMTg3NSBMMjQ4Ny4xMjUsNzMuOTM3NSBaICIgZmlsbD0iIzAwMDAwMCIvPjx0ZXh0IGZpbGw9IiMwMDAwMDAiIGZvbnQtZmFtaWx5PSJzYW5zLXNlcmlmIiBmb250LXNpemU9IjE0IiBsZW5ndGhBZGp1c3Q9InNwYWNpbmciIHRleHRMZW5ndGg9IjM1IiB4PSIyNTAzLjUiIHk9IjgzLjI0MjIiPlN0YXRlPC90ZXh0PjxsaW5lIHN0eWxlPSJzdHJva2U6IzE4MTgxODtzdHJva2Utd2lkdGg6MC41OyIgeDE9IjI0NzUuNSIgeDI9IjI1NDAuNSIgeTE9IjkzLjUiIHkyPSI5My41Ii8+PGxpbmUgc3R5bGU9InN0cm9rZTojMTgxODE4O3N0cm9rZS13aWR0aDowLjU7IiB4MT0iMjQ3NS41IiB4Mj0iMjU0MC41IiB5MT0iMTAxLjUiIHkyPSIxMDEuNSIvPjwvZz48IS0tTUQ1PVs1YTkwYThmZjYwNTZiYzdiZjgzZWE1NGM5MTU4YjE4MF0KY2xhc3MgYmxhY2tqYWNrYXBwOjpjb21wb25lbnRzOjpjYXJkdGVtcGxhdGUuZGFydDo6Q2FyZFRlbXBsYXRlLS0+PGcgaWQ9ImVsZW1fYmxhY2tqYWNrYXBwOjpjb21wb25lbnRzOjpjYXJkdGVtcGxhdGUuZGFydDo6Q2FyZFRlbXBsYXRlIj48cmVjdCBjb2RlTGluZT0iNTIiIGZpbGw9IiNGMUYxRjEiIGhlaWdodD0iOTIuOTUzMSIgaWQ9ImJsYWNramFja2FwcDo6Y29tcG9uZW50czo6Y2FyZHRlbXBsYXRlLmRhcnQ6OkNhcmRUZW1wbGF0ZSIgcng9IjIuNSIgcnk9IjIuNSIgc3R5bGU9InN0cm9rZTojMTgxODE4O3N0cm9rZS13aWR0aDowLjU7IiB3aWR0aD0iMTI2IiB4PSIxMzcwIiB5PSIyOTUiLz48ZWxsaXBzZSBjeD0iMTM4OS4wNSIgY3k9IjMxMSIgZmlsbD0iI0FERDFCMiIgcng9IjExIiByeT0iMTEiIHN0eWxlPSJzdHJva2U6IzE4MTgxODtzdHJva2Utd2lkdGg6MS4wOyIvPjxwYXRoIGQ9Ik0xMzg2LjY3NSwzMTUuMjUgTDEzODYuNjc1LDMxNyBMMTM5MS42MTI1LDMxNyBMMTM5MS42MTI1LDMxNS4yNSBMMTM4Ni42NzUsMzE1LjI1IFogTTEzODcuMzYyNSwzMTUuOTM3NSBRMTM4Ny4zNjI1LDMxNS45Mzc1IDEzODcuMzYyNSwzMDYuNzUgTDEzODUuNjEyNSwzMDYuNzUgUTEzODUuNjEyNSwzMDYuNzUgMTM4NS42MTI1LDMxNS45Mzc1IEwxMzg3LjM2MjUsMzE1LjkzNzUgWiBNMTM5MC45MjUsMzE1LjkzNzUgTDEzOTIuNjc1LDMxNS45Mzc1IFExMzkyLjY3NSwzMTUuOTM3NSAxMzkyLjY3NSwzMTMuMTI1IEwxMzkwLjkyNSwzMTMuMTI1IFExMzkwLjkyNSwzMTMuMTI1IDEzOTAuOTI1LDMxNS45Mzc1IFogTTEzOTAuOTI1LDMwNi43NSBRMTM5MC45MjUsMzA2Ljc1IDEzOTAuOTI1LDMwOS41NjI1IEwxMzkyLjY3NSwzMDkuNTYyNSBRMTM5Mi42NzUsMzA5LjU2MjUgMTM5Mi42NzUsMzA2Ljc1IEwxMzkwLjkyNSwzMDYuNzUgWiBNMTM4Ni42NzUsMzA3LjQzNzUgTDEzOTEuNjEyNSwzMDcuNDM3NSBMMTM5MS42MTI1LDMwNS42ODc1IEwxMzg2LjY3NSwzMDUuNjg3NSBMMTM4Ni42NzUsMzA3LjQzNzUgWiAiIGZpbGw9IiMwMDAwMDAiLz48dGV4dCBmaWxsPSIjMDAwMDAwIiBmb250LWZhbWlseT0ic2Fucy1zZXJpZiIgZm9udC1zaXplPSIxNCIgbGVuZ3RoQWRqdXN0PSJzcGFjaW5nIiB0ZXh0TGVuZ3RoPSI4NSIgeD0iMTQwMy45NSIgeT0iMzE2Ljc0MjIiPkNhcmRUZW1wbGF0ZTwvdGV4dD48bGluZSBzdHlsZT0ic3Ryb2tlOiMxODE4MTg7c3Ryb2tlLXdpZHRoOjAuNTsiIHgxPSIxMzcxIiB4Mj0iMTQ5NSIgeTE9IjMyNyIgeTI9IjMyNyIvPjxlbGxpcHNlIGN4PSIxMzgxIiBjeT0iMzM4IiBmaWxsPSJub25lIiByeD0iMyIgcnk9IjMiIHN0eWxlPSJzdHJva2U6IzAzODA0ODtzdHJva2Utd2lkdGg6MS4wOyIvPjx0ZXh0IGZpbGw9IiMwMDAwMDAiIGZvbnQtZmFtaWx5PSJzYW5zLXNlcmlmIiBmb250LXNpemU9IjE0IiBsZW5ndGhBZGp1c3Q9InNwYWNpbmciIHRleHRMZW5ndGg9Ijg1IiB4PSIxMzkwIiB5PSIzNDQuMjM0NCI+ZHluYW1pYyBzdWl0PC90ZXh0PjxlbGxpcHNlIGN4PSIxMzgxIiBjeT0iMzUyLjk4NDQiIGZpbGw9Im5vbmUiIHJ4PSIzIiByeT0iMyIgc3R5bGU9InN0cm9rZTojMDM4MDQ4O3N0cm9rZS13aWR0aDoxLjA7Ii8+PHRleHQgZmlsbD0iIzAwMDAwMCIgZm9udC1mYW1pbHk9InNhbnMtc2VyaWYiIGZvbnQtc2l6ZT0iMTQiIGxlbmd0aEFkanVzdD0ic3BhY2luZyIgdGV4dExlbmd0aD0iMTAwIiB4PSIxMzkwIiB5PSIzNTkuMjE4OCI+ZHluYW1pYyBudW1iZXI8L3RleHQ+PGxpbmUgc3R5bGU9InN0cm9rZTojMTgxODE4O3N0cm9rZS13aWR0aDowLjU7IiB4MT0iMTM3MSIgeDI9IjE0OTUiIHkxPSIzNjQuOTY4OCIgeTI9IjM2NC45Njg4Ii8+PGVsbGlwc2UgY3g9IjEzODEiIGN5PSIzNzUuOTY4OCIgZmlsbD0iIzg0QkU4NCIgcng9IjMiIHJ5PSIzIiBzdHlsZT0ic3Ryb2tlOiMwMzgwNDg7c3Ryb2tlLXdpZHRoOjEuMDsiLz48dGV4dCBmaWxsPSIjMDAwMDAwIiBmb250LWZhbWlseT0ic2Fucy1zZXJpZiIgZm9udC1zaXplPSIxNCIgbGVuZ3RoQWRqdXN0PSJzcGFjaW5nIiB0ZXh0TGVuZ3RoPSIxMDAiIHg9IjEzOTAiIHk9IjM4Mi4yMDMxIj5XaWRnZXQgYnVpbGQoKTwvdGV4dD48L2c+PCEtLU1ENT1bMjUyMWEwZmNjZTM2OTA4MWE0MjBhZTVhNjI0YjRmZjVdCmNsYXNzIGJsYWNramFja2FwcDo6Y29tcG9uZW50czo6Z2FtZWJvYXJkLmRhcnQ6OkdhbWVCb2FyZC0tPjxnIGlkPSJlbGVtX2JsYWNramFja2FwcDo6Y29tcG9uZW50czo6Z2FtZWJvYXJkLmRhcnQ6OkdhbWVCb2FyZCI+PHJlY3QgY29kZUxpbmU9IjYwIiBmaWxsPSIjRjFGMUYxIiBoZWlnaHQ9IjYyLjk4NDQiIGlkPSJibGFja2phY2thcHA6OmNvbXBvbmVudHM6OmdhbWVib2FyZC5kYXJ0OjpHYW1lQm9hcmQiIHJ4PSIyLjUiIHJ5PSIyLjUiIHN0eWxlPSJzdHJva2U6IzE4MTgxODtzdHJva2Utd2lkdGg6MC41OyIgd2lkdGg9IjEyNiIgeD0iMTY5MiIgeT0iMzEwIi8+PGVsbGlwc2UgY3g9IjE3MjAuNSIgY3k9IjMyNiIgZmlsbD0iI0FERDFCMiIgcng9IjExIiByeT0iMTEiIHN0eWxlPSJzdHJva2U6IzE4MTgxODtzdHJva2Utd2lkdGg6MS4wOyIvPjxwYXRoIGQ9Ik0xNzE4LjEyNSwzMzAuMjUgTDE3MTguMTI1LDMzMiBMMTcyMy4wNjI1LDMzMiBMMTcyMy4wNjI1LDMzMC4yNSBMMTcxOC4xMjUsMzMwLjI1IFogTTE3MTguODEyNSwzMzAuOTM3NSBRMTcxOC44MTI1LDMzMC45Mzc1IDE3MTguODEyNSwzMjEuNzUgTDE3MTcuMDYyNSwzMjEuNzUgUTE3MTcuMDYyNSwzMjEuNzUgMTcxNy4wNjI1LDMzMC45Mzc1IEwxNzE4LjgxMjUsMzMwLjkzNzUgWiBNMTcyMi4zNzUsMzMwLjkzNzUgTDE3MjQuMTI1LDMzMC45Mzc1IFExNzI0LjEyNSwzMzAuOTM3NSAxNzI0LjEyNSwzMjguMTI1IEwxNzIyLjM3NSwzMjguMTI1IFExNzIyLjM3NSwzMjguMTI1IDE3MjIuMzc1LDMzMC45Mzc1IFogTTE3MjIuMzc1LDMyMS43NSBRMTcyMi4zNzUsMzIxLjc1IDE3MjIuMzc1LDMyNC41NjI1IEwxNzI0LjEyNSwzMjQuNTYyNSBRMTcyNC4xMjUsMzI0LjU2MjUgMTcyNC4xMjUsMzIxLjc1IEwxNzIyLjM3NSwzMjEuNzUgWiBNMTcxOC4xMjUsMzIyLjQzNzUgTDE3MjMuMDYyNSwzMjIuNDM3NSBMMTcyMy4wNjI1LDMyMC42ODc1IEwxNzE4LjEyNSwzMjAuNjg3NSBMMTcxOC4xMjUsMzIyLjQzNzUgWiAiIGZpbGw9IiMwMDAwMDAiLz48dGV4dCBmaWxsPSIjMDAwMDAwIiBmb250LWZhbWlseT0ic2Fucy1zZXJpZiIgZm9udC1zaXplPSIxNCIgbGVuZ3RoQWRqdXN0PSJzcGFjaW5nIiB0ZXh0TGVuZ3RoPSI2NCIgeD0iMTczNy41IiB5PSIzMzEuNzQyMiI+R2FtZUJvYXJkPC90ZXh0PjxsaW5lIHN0eWxlPSJzdHJva2U6IzE4MTgxODtzdHJva2Utd2lkdGg6MC41OyIgeDE9IjE2OTMiIHgyPSIxODE3IiB5MT0iMzQyIiB5Mj0iMzQyIi8+PGxpbmUgc3R5bGU9InN0cm9rZTojMTgxODE4O3N0cm9rZS13aWR0aDowLjU7IiB4MT0iMTY5MyIgeDI9IjE4MTciIHkxPSIzNTAiIHkyPSIzNTAiLz48ZWxsaXBzZSBjeD0iMTcwMyIgY3k9IjM2MSIgZmlsbD0iIzg0QkU4NCIgcng9IjMiIHJ5PSIzIiBzdHlsZT0ic3Ryb2tlOiMwMzgwNDg7c3Ryb2tlLXdpZHRoOjEuMDsiLz48dGV4dCBmaWxsPSIjMDAwMDAwIiBmb250LWZhbWlseT0ic2Fucy1zZXJpZiIgZm9udC1zaXplPSIxNCIgbGVuZ3RoQWRqdXN0PSJzcGFjaW5nIiB0ZXh0TGVuZ3RoPSIxMDAiIHg9IjE3MTIiIHk9IjM2Ny4yMzQ0Ij5XaWRnZXQgYnVpbGQoKTwvdGV4dD48L2c+PCEtLU1ENT1bNGQ4ZDA2MDBmOTNjZTJjZTBlZGM0NGU5ZWUyZGIyMzBdCmNsYXNzIGJsYWNramFja2FwcDo6bWFpbi5kYXJ0OjpNeUFwcC0tPjxnIGlkPSJlbGVtX2JsYWNramFja2FwcDo6bWFpbi5kYXJ0OjpNeUFwcCI+PHJlY3QgY29kZUxpbmU9IjY2IiBmaWxsPSIjRjFGMUYxIiBoZWlnaHQ9IjYyLjk4NDQiIGlkPSJibGFja2phY2thcHA6Om1haW4uZGFydDo6TXlBcHAiIHJ4PSIyLjUiIHJ5PSIyLjUiIHN0eWxlPSJzdHJva2U6IzE4MTgxODtzdHJva2Utd2lkdGg6MC41OyIgd2lkdGg9IjEyNiIgeD0iMTg5NCIgeT0iMzEwIi8+PGVsbGlwc2UgY3g9IjE5MzUuNTUiIGN5PSIzMjYiIGZpbGw9IiNBREQxQjIiIHJ4PSIxMSIgcnk9IjExIiBzdHlsZT0ic3Ryb2tlOiMxODE4MTg7c3Ryb2tlLXdpZHRoOjEuMDsiLz48cGF0aCBkPSJNMTkzMy4xNzUsMzMwLjI1IEwxOTMzLjE3NSwzMzIgTDE5MzguMTEyNSwzMzIgTDE5MzguMTEyNSwzMzAuMjUgTDE5MzMuMTc1LDMzMC4yNSBaIE0xOTMzLjg2MjUsMzMwLjkzNzUgUTE5MzMuODYyNSwzMzAuOTM3NSAxOTMzLjg2MjUsMzIxLjc1IEwxOTMyLjExMjUsMzIxLjc1IFExOTMyLjExMjUsMzIxLjc1IDE5MzIuMTEyNSwzMzAuOTM3NSBMMTkzMy44NjI1LDMzMC45Mzc1IFogTTE5MzcuNDI1LDMzMC45Mzc1IEwxOTM5LjE3NSwzMzAuOTM3NSBRMTkzOS4xNzUsMzMwLjkzNzUgMTkzOS4xNzUsMzI4LjEyNSBMMTkzNy40MjUsMzI4LjEyNSBRMTkzNy40MjUsMzI4LjEyNSAxOTM3LjQyNSwzMzAuOTM3NSBaIE0xOTM3LjQyNSwzMjEuNzUgUTE5MzcuNDI1LDMyMS43NSAxOTM3LjQyNSwzMjQuNTYyNSBMMTkzOS4xNzUsMzI0LjU2MjUgUTE5MzkuMTc1LDMyNC41NjI1IDE5MzkuMTc1LDMyMS43NSBMMTkzNy40MjUsMzIxLjc1IFogTTE5MzMuMTc1LDMyMi40Mzc1IEwxOTM4LjExMjUsMzIyLjQzNzUgTDE5MzguMTEyNSwzMjAuNjg3NSBMMTkzMy4xNzUsMzIwLjY4NzUgTDE5MzMuMTc1LDMyMi40Mzc1IFogIiBmaWxsPSIjMDAwMDAwIi8+PHRleHQgZmlsbD0iIzAwMDAwMCIgZm9udC1mYW1pbHk9InNhbnMtc2VyaWYiIGZvbnQtc2l6ZT0iMTQiIGxlbmd0aEFkanVzdD0ic3BhY2luZyIgdGV4dExlbmd0aD0iMzUiIHg9IjE5NTUuNDUiIHk9IjMzMS43NDIyIj5NeUFwcDwvdGV4dD48bGluZSBzdHlsZT0ic3Ryb2tlOiMxODE4MTg7c3Ryb2tlLXdpZHRoOjAuNTsiIHgxPSIxODk1IiB4Mj0iMjAxOSIgeTE9IjM0MiIgeTI9IjM0MiIvPjxsaW5lIHN0eWxlPSJzdHJva2U6IzE4MTgxODtzdHJva2Utd2lkdGg6MC41OyIgeDE9IjE4OTUiIHgyPSIyMDE5IiB5MT0iMzUwIiB5Mj0iMzUwIi8+PGVsbGlwc2UgY3g9IjE5MDUiIGN5PSIzNjEiIGZpbGw9IiM4NEJFODQiIHJ4PSIzIiByeT0iMyIgc3R5bGU9InN0cm9rZTojMDM4MDQ4O3N0cm9rZS13aWR0aDoxLjA7Ii8+PHRleHQgZmlsbD0iIzAwMDAwMCIgZm9udC1mYW1pbHk9InNhbnMtc2VyaWYiIGZvbnQtc2l6ZT0iMTQiIGxlbmd0aEFkanVzdD0ic3BhY2luZyIgdGV4dExlbmd0aD0iMTAwIiB4PSIxOTE0IiB5PSIzNjcuMjM0NCI+V2lkZ2V0IGJ1aWxkKCk8L3RleHQ+PC9nPjwhLS1NRDU9W2FlMDQwMzg2YjVjZWQxOWM1MzAxY2E0ZWUwYWJhNWI1XQpjbGFzcyBibGFja2phY2thcHA6Om1vZGVsczo6Y2FyZF9tb2RlbC5kYXJ0OjpDYXJkTW9kZWwtLT48ZyBpZD0iZWxlbV9ibGFja2phY2thcHA6Om1vZGVsczo6Y2FyZF9tb2RlbC5kYXJ0OjpDYXJkTW9kZWwiPjxyZWN0IGNvZGVMaW5lPSI3MiIgZmlsbD0iI0YxRjFGMSIgaGVpZ2h0PSI5Mi45NTMxIiBpZD0iYmxhY2tqYWNrYXBwOjptb2RlbHM6OmNhcmRfbW9kZWwuZGFydDo6Q2FyZE1vZGVsIiByeD0iMi41IiByeT0iMi41IiBzdHlsZT0ic3Ryb2tlOiMxODE4MTg7c3Ryb2tlLXdpZHRoOjAuNTsiIHdpZHRoPSIxMTEiIHg9IjcyOC41IiB5PSIyOTUiLz48ZWxsaXBzZSBjeD0iNzUwLjciIGN5PSIzMTEiIGZpbGw9IiNBREQxQjIiIHJ4PSIxMSIgcnk9IjExIiBzdHlsZT0ic3Ryb2tlOiMxODE4MTg7c3Ryb2tlLXdpZHRoOjEuMDsiLz48cGF0aCBkPSJNNzQ4LjMyNSwzMTUuMjUgTDc0OC4zMjUsMzE3IEw3NTMuMjYyNSwzMTcgTDc1My4yNjI1LDMxNS4yNSBMNzQ4LjMyNSwzMTUuMjUgWiBNNzQ5LjAxMjUsMzE1LjkzNzUgUTc0OS4wMTI1LDMxNS45Mzc1IDc0OS4wMTI1LDMwNi43NSBMNzQ3LjI2MjUsMzA2Ljc1IFE3NDcuMjYyNSwzMDYuNzUgNzQ3LjI2MjUsMzE1LjkzNzUgTDc0OS4wMTI1LDMxNS45Mzc1IFogTTc1Mi41NzUsMzE1LjkzNzUgTDc1NC4zMjUsMzE1LjkzNzUgUTc1NC4zMjUsMzE1LjkzNzUgNzU0LjMyNSwzMTMuMTI1IEw3NTIuNTc1LDMxMy4xMjUgUTc1Mi41NzUsMzEzLjEyNSA3NTIuNTc1LDMxNS45Mzc1IFogTTc1Mi41NzUsMzA2Ljc1IFE3NTIuNTc1LDMwNi43NSA3NTIuNTc1LDMwOS41NjI1IEw3NTQuMzI1LDMwOS41NjI1IFE3NTQuMzI1LDMwOS41NjI1IDc1NC4zMjUsMzA2Ljc1IEw3NTIuNTc1LDMwNi43NSBaIE03NDguMzI1LDMwNy40Mzc1IEw3NTMuMjYyNSwzMDcuNDM3NSBMNzUzLjI2MjUsMzA1LjY4NzUgTDc0OC4zMjUsMzA1LjY4NzUgTDc0OC4zMjUsMzA3LjQzNzUgWiAiIGZpbGw9IiMwMDAwMDAiLz48dGV4dCBmaWxsPSIjMDAwMDAwIiBmb250LWZhbWlseT0ic2Fucy1zZXJpZiIgZm9udC1zaXplPSIxNCIgbGVuZ3RoQWRqdXN0PSJzcGFjaW5nIiB0ZXh0TGVuZ3RoPSI2MyIgeD0iNzY2LjMiIHk9IjMxNi43NDIyIj5DYXJkTW9kZWw8L3RleHQ+PGxpbmUgc3R5bGU9InN0cm9rZTojMTgxODE4O3N0cm9rZS13aWR0aDowLjU7IiB4MT0iNzI5LjUiIHgyPSI4MzguNSIgeTE9IjMyNyIgeTI9IjMyNyIvPjxlbGxpcHNlIGN4PSI3MzkuNSIgY3k9IjMzOCIgZmlsbD0ibm9uZSIgcng9IjMiIHJ5PSIzIiBzdHlsZT0ic3Ryb2tlOiMwMzgwNDg7c3Ryb2tlLXdpZHRoOjEuMDsiLz48dGV4dCBmaWxsPSIjMDAwMDAwIiBmb250LWZhbWlseT0ic2Fucy1zZXJpZiIgZm9udC1zaXplPSIxNCIgbGVuZ3RoQWRqdXN0PSJzcGFjaW5nIiB0ZXh0TGVuZ3RoPSI4NSIgeD0iNzQ4LjUiIHk9IjM0NC4yMzQ0Ij5TdHJpbmcgaW1hZ2U8L3RleHQ+PGVsbGlwc2UgY3g9IjczOS41IiBjeT0iMzUyLjk4NDQiIGZpbGw9Im5vbmUiIHJ4PSIzIiByeT0iMyIgc3R5bGU9InN0cm9rZTojMDM4MDQ4O3N0cm9rZS13aWR0aDoxLjA7Ii8+PHRleHQgZmlsbD0iIzAwMDAwMCIgZm9udC1mYW1pbHk9InNhbnMtc2VyaWYiIGZvbnQtc2l6ZT0iMTQiIGxlbmd0aEFkanVzdD0ic3BhY2luZyIgdGV4dExlbmd0aD0iNzciIHg9Ijc0OC41IiB5PSIzNTkuMjE4OCI+U3RyaW5nIHN1aXQ8L3RleHQ+PGVsbGlwc2UgY3g9IjczOS41IiBjeT0iMzY3Ljk2ODgiIGZpbGw9Im5vbmUiIHJ4PSIzIiByeT0iMyIgc3R5bGU9InN0cm9rZTojMDM4MDQ4O3N0cm9rZS13aWR0aDoxLjA7Ii8+PHRleHQgZmlsbD0iIzAwMDAwMCIgZm9udC1mYW1pbHk9InNhbnMtc2VyaWYiIGZvbnQtc2l6ZT0iMTQiIGxlbmd0aEFkanVzdD0ic3BhY2luZyIgdGV4dExlbmd0aD0iODQiIHg9Ijc0OC41IiB5PSIzNzQuMjAzMSI+U3RyaW5nIHZhbHVlPC90ZXh0PjxsaW5lIHN0eWxlPSJzdHJva2U6IzE4MTgxODtzdHJva2Utd2lkdGg6MC41OyIgeDE9IjcyOS41IiB4Mj0iODM4LjUiIHkxPSIzNzkuOTUzMSIgeTI9IjM3OS45NTMxIi8+PC9nPjwhLS1NRDU9WzczMDQzY2IxNzUxMTlmNTIzYjcxYjZlZTVmZDFjNTA2XQpjbGFzcyBibGFja2phY2thcHA6Om1vZGVsczo6Y2FyZF9tb2RlbC5kYXJ0OjpTdWl0LS0+PGcgaWQ9ImVsZW1fYmxhY2tqYWNrYXBwOjptb2RlbHM6OmNhcmRfbW9kZWwuZGFydDo6U3VpdCI+PHJlY3QgY29kZUxpbmU9Ijc4IiBmaWxsPSIjRjFGMUYxIiBoZWlnaHQ9IjE1Mi44OTA2IiBpZD0iYmxhY2tqYWNrYXBwOjptb2RlbHM6OmNhcmRfbW9kZWwuZGFydDo6U3VpdCIgcng9IjIuNSIgcnk9IjIuNSIgc3R5bGU9InN0cm9rZTojMTgxODE4O3N0cm9rZS13aWR0aDowLjU7IiB3aWR0aD0iMTQ1IiB4PSI1MzAuNSIgeT0iMjY1Ii8+PGVsbGlwc2UgY3g9IjU4NC43NSIgY3k9IjI4MSIgZmlsbD0iI0FERDFCMiIgcng9IjExIiByeT0iMTEiIHN0eWxlPSJzdHJva2U6IzE4MTgxODtzdHJva2Utd2lkdGg6MS4wOyIvPjxwYXRoIGQ9Ik01ODIuMzc1LDI4NS4yNSBMNTgyLjM3NSwyODcgTDU4Ny4zMTI1LDI4NyBMNTg3LjMxMjUsMjg1LjI1IEw1ODIuMzc1LDI4NS4yNSBaIE01ODMuMDYyNSwyODUuOTM3NSBRNTgzLjA2MjUsMjg1LjkzNzUgNTgzLjA2MjUsMjc2Ljc1IEw1ODEuMzEyNSwyNzYuNzUgUTU4MS4zMTI1LDI3Ni43NSA1ODEuMzEyNSwyODUuOTM3NSBMNTgzLjA2MjUsMjg1LjkzNzUgWiBNNTg2LjYyNSwyODUuOTM3NSBMNTg4LjM3NSwyODUuOTM3NSBRNTg4LjM3NSwyODUuOTM3NSA1ODguMzc1LDI4My4xMjUgTDU4Ni42MjUsMjgzLjEyNSBRNTg2LjYyNSwyODMuMTI1IDU4Ni42MjUsMjg1LjkzNzUgWiBNNTg2LjYyNSwyNzYuNzUgUTU4Ni42MjUsMjc2Ljc1IDU4Ni42MjUsMjc5LjU2MjUgTDU4OC4zNzUsMjc5LjU2MjUgUTU4OC4zNzUsMjc5LjU2MjUgNTg4LjM3NSwyNzYuNzUgTDU4Ni42MjUsMjc2Ljc1IFogTTU4Mi4zNzUsMjc3LjQzNzUgTDU4Ny4zMTI1LDI3Ny40Mzc1IEw1ODcuMzEyNSwyNzUuNjg3NSBMNTgyLjM3NSwyNzUuNjg3NSBMNTgyLjM3NSwyNzcuNDM3NSBaICIgZmlsbD0iIzAwMDAwMCIvPjx0ZXh0IGZpbGw9IiMwMDAwMDAiIGZvbnQtZmFtaWx5PSJzYW5zLXNlcmlmIiBmb250LXNpemU9IjE0IiBsZW5ndGhBZGp1c3Q9InNwYWNpbmciIHRleHRMZW5ndGg9IjI4IiB4PSI2MDUuMjUiIHk9IjI4Ni43NDIyIj5TdWl0PC90ZXh0PjxsaW5lIHN0eWxlPSJzdHJva2U6IzE4MTgxODtzdHJva2Utd2lkdGg6MC41OyIgeDE9IjUzMS41IiB4Mj0iNjc0LjUiIHkxPSIyOTciIHkyPSIyOTciLz48ZWxsaXBzZSBjeD0iNTQxLjUiIGN5PSIzMDgiIGZpbGw9Im5vbmUiIHJ4PSIzIiByeT0iMyIgc3R5bGU9InN0cm9rZTojMDM4MDQ4O3N0cm9rZS13aWR0aDoxLjA7Ii8+PHRleHQgZmlsbD0iIzAwMDAwMCIgZm9udC1mYW1pbHk9InNhbnMtc2VyaWYiIGZvbnQtc2l6ZT0iMTQiIGxlbmd0aEFkanVzdD0ic3BhY2luZyIgdGV4dExlbmd0aD0iNjMiIHg9IjU1MC41IiB5PSIzMTQuMjM0NCI+aW50IGluZGV4PC90ZXh0PjxlbGxpcHNlIGN4PSI1NDEuNSIgY3k9IjMyMi45ODQ0IiBmaWxsPSJub25lIiByeD0iMyIgcnk9IjMiIHN0eWxlPSJzdHJva2U6IzAzODA0ODtzdHJva2Utd2lkdGg6MS4wOyIvPjx0ZXh0IGZpbGw9IiMwMDAwMDAiIGZvbnQtZmFtaWx5PSJzYW5zLXNlcmlmIiBmb250LXNpemU9IjE0IiBsZW5ndGhBZGp1c3Q9InNwYWNpbmciIHRleHQtZGVjb3JhdGlvbj0idW5kZXJsaW5lIiB0ZXh0TGVuZ3RoPSIxMTkiIHg9IjU1MC41IiB5PSIzMjkuMjE4OCI+TGlzdCZsdDtTdWl0Jmd0OyB2YWx1ZXM8L3RleHQ+PGVsbGlwc2UgY3g9IjU0MS41IiBjeT0iMzM3Ljk2ODgiIGZpbGw9Im5vbmUiIHJ4PSIzIiByeT0iMyIgc3R5bGU9InN0cm9rZTojMDM4MDQ4O3N0cm9rZS13aWR0aDoxLjA7Ii8+PHRleHQgZmlsbD0iIzAwMDAwMCIgZm9udC1mYW1pbHk9InNhbnMtc2VyaWYiIGZvbnQtc2l6ZT0iMTQiIGxlbmd0aEFkanVzdD0ic3BhY2luZyIgdGV4dC1kZWNvcmF0aW9uPSJ1bmRlcmxpbmUiIHRleHRMZW5ndGg9Ijc3IiB4PSI1NTAuNSIgeT0iMzQ0LjIwMzEiPlN1aXQgaGVhcnRzPC90ZXh0PjxlbGxpcHNlIGN4PSI1NDEuNSIgY3k9IjM1Mi45NTMxIiBmaWxsPSJub25lIiByeD0iMyIgcnk9IjMiIHN0eWxlPSJzdHJva2U6IzAzODA0ODtzdHJva2Utd2lkdGg6MS4wOyIvPjx0ZXh0IGZpbGw9IiMwMDAwMDAiIGZvbnQtZmFtaWx5PSJzYW5zLXNlcmlmIiBmb250LXNpemU9IjE0IiBsZW5ndGhBZGp1c3Q9InNwYWNpbmciIHRleHQtZGVjb3JhdGlvbj0idW5kZXJsaW5lIiB0ZXh0TGVuZ3RoPSI3MCIgeD0iNTUwLjUiIHk9IjM1OS4xODc1Ij5TdWl0IGNsdWJzPC90ZXh0PjxlbGxpcHNlIGN4PSI1NDEuNSIgY3k9IjM2Ny45Mzc1IiBmaWxsPSJub25lIiByeD0iMyIgcnk9IjMiIHN0eWxlPSJzdHJva2U6IzAzODA0ODtzdHJva2Utd2lkdGg6MS4wOyIvPjx0ZXh0IGZpbGw9IiMwMDAwMDAiIGZvbnQtZmFtaWx5PSJzYW5zLXNlcmlmIiBmb250LXNpemU9IjE0IiBsZW5ndGhBZGp1c3Q9InNwYWNpbmciIHRleHQtZGVjb3JhdGlvbj0idW5kZXJsaW5lIiB0ZXh0TGVuZ3RoPSI5MiIgeD0iNTUwLjUiIHk9IjM3NC4xNzE5Ij5TdWl0IGRpYW1vbmRzPC90ZXh0PjxlbGxpcHNlIGN4PSI1NDEuNSIgY3k9IjM4Mi45MjE5IiBmaWxsPSJub25lIiByeD0iMyIgcnk9IjMiIHN0eWxlPSJzdHJva2U6IzAzODA0ODtzdHJva2Utd2lkdGg6MS4wOyIvPjx0ZXh0IGZpbGw9IiMwMDAwMDAiIGZvbnQtZmFtaWx5PSJzYW5zLXNlcmlmIiBmb250LXNpemU9IjE0IiBsZW5ndGhBZGp1c3Q9InNwYWNpbmciIHRleHQtZGVjb3JhdGlvbj0idW5kZXJsaW5lIiB0ZXh0TGVuZ3RoPSI3NyIgeD0iNTUwLjUiIHk9IjM4OS4xNTYzIj5TdWl0IHNwYWRlczwvdGV4dD48ZWxsaXBzZSBjeD0iNTQxLjUiIGN5PSIzOTcuOTA2MyIgZmlsbD0ibm9uZSIgcng9IjMiIHJ5PSIzIiBzdHlsZT0ic3Ryb2tlOiMwMzgwNDg7c3Ryb2tlLXdpZHRoOjEuMDsiLz48dGV4dCBmaWxsPSIjMDAwMDAwIiBmb250LWZhbWlseT0ic2Fucy1zZXJpZiIgZm9udC1zaXplPSIxNCIgbGVuZ3RoQWRqdXN0PSJzcGFjaW5nIiB0ZXh0LWRlY29yYXRpb249InVuZGVybGluZSIgdGV4dExlbmd0aD0iNzAiIHg9IjU1MC41IiB5PSI0MDQuMTQwNiI+U3VpdCBvdGhlcjwvdGV4dD48bGluZSBzdHlsZT0ic3Ryb2tlOiMxODE4MTg7c3Ryb2tlLXdpZHRoOjAuNTsiIHgxPSI1MzEuNSIgeDI9IjY3NC41IiB5MT0iNDA5Ljg5MDYiIHkyPSI0MDkuODkwNiIvPjwvZz48IS0tTUQ1PVthYTI2NjllNzI1YjdmYmVkYTJmNWY1YTRlZGMzYmVmM10KY2xhc3MgYmxhY2tqYWNrYXBwOjptb2RlbHM6OmRlY2tfbW9kZWwuZGFydDo6RGVja01vZGVsLS0+PGcgaWQ9ImVsZW1fYmxhY2tqYWNrYXBwOjptb2RlbHM6OmRlY2tfbW9kZWwuZGFydDo6RGVja01vZGVsIj48cmVjdCBjb2RlTGluZT0iOTEiIGZpbGw9IiNGMUYxRjEiIGhlaWdodD0iOTIuOTUzMSIgaWQ9ImJsYWNramFja2FwcDo6bW9kZWxzOjpkZWNrX21vZGVsLmRhcnQ6OkRlY2tNb2RlbCIgcng9IjIuNSIgcnk9IjIuNSIgc3R5bGU9InN0cm9rZTojMTgxODE4O3N0cm9rZS13aWR0aDowLjU7IiB3aWR0aD0iMTE4IiB4PSIzNjAyIiB5PSIzOSIvPjxlbGxpcHNlIGN4PSIzNjI3LjM1IiBjeT0iNTUiIGZpbGw9IiNBREQxQjIiIHJ4PSIxMSIgcnk9IjExIiBzdHlsZT0ic3Ryb2tlOiMxODE4MTg7c3Ryb2tlLXdpZHRoOjEuMDsiLz48cGF0aCBkPSJNMzYyNC45NzUsNTkuMjUgTDM2MjQuOTc1LDYxIEwzNjI5LjkxMjUsNjEgTDM2MjkuOTEyNSw1OS4yNSBMMzYyNC45NzUsNTkuMjUgWiBNMzYyNS42NjI1LDU5LjkzNzUgUTM2MjUuNjYyNSw1OS45Mzc1IDM2MjUuNjYyNSw1MC43NSBMMzYyMy45MTI1LDUwLjc1IFEzNjIzLjkxMjUsNTAuNzUgMzYyMy45MTI1LDU5LjkzNzUgTDM2MjUuNjYyNSw1OS45Mzc1IFogTTM2MjkuMjI1LDU5LjkzNzUgTDM2MzAuOTc1LDU5LjkzNzUgUTM2MzAuOTc1LDU5LjkzNzUgMzYzMC45NzUsNTcuMTI1IEwzNjI5LjIyNSw1Ny4xMjUgUTM2MjkuMjI1LDU3LjEyNSAzNjI5LjIyNSw1OS45Mzc1IFogTTM2MjkuMjI1LDUwLjc1IFEzNjI5LjIyNSw1MC43NSAzNjI5LjIyNSw1My41NjI1IEwzNjMwLjk3NSw1My41NjI1IFEzNjMwLjk3NSw1My41NjI1IDM2MzAuOTc1LDUwLjc1IEwzNjI5LjIyNSw1MC43NSBaIE0zNjI0Ljk3NSw1MS40Mzc1IEwzNjI5LjkxMjUsNTEuNDM3NSBMMzYyOS45MTI1LDQ5LjY4NzUgTDM2MjQuOTc1LDQ5LjY4NzUgTDM2MjQuOTc1LDUxLjQzNzUgWiAiIGZpbGw9IiMwMDAwMDAiLz48dGV4dCBmaWxsPSIjMDAwMDAwIiBmb250LWZhbWlseT0ic2Fucy1zZXJpZiIgZm9udC1zaXplPSIxNCIgbGVuZ3RoQWRqdXN0PSJzcGFjaW5nIiB0ZXh0TGVuZ3RoPSI2MyIgeD0iMzY0My42NSIgeT0iNjAuNzQyMiI+RGVja01vZGVsPC90ZXh0PjxsaW5lIHN0eWxlPSJzdHJva2U6IzE4MTgxODtzdHJva2Utd2lkdGg6MC41OyIgeDE9IjM2MDMiIHgyPSIzNzE5IiB5MT0iNzEiIHkyPSI3MSIvPjxlbGxpcHNlIGN4PSIzNjEzIiBjeT0iODIiIGZpbGw9Im5vbmUiIHJ4PSIzIiByeT0iMyIgc3R5bGU9InN0cm9rZTojMDM4MDQ4O3N0cm9rZS13aWR0aDoxLjA7Ii8+PHRleHQgZmlsbD0iIzAwMDAwMCIgZm9udC1mYW1pbHk9InNhbnMtc2VyaWYiIGZvbnQtc2l6ZT0iMTQiIGxlbmd0aEFkanVzdD0ic3BhY2luZyIgdGV4dExlbmd0aD0iOTEiIHg9IjM2MjIiIHk9Ijg4LjIzNDQiPlN0cmluZyBkZWNrSWQ8L3RleHQ+PGVsbGlwc2UgY3g9IjM2MTMiIGN5PSI5Ni45ODQ0IiBmaWxsPSJub25lIiByeD0iMyIgcnk9IjMiIHN0eWxlPSJzdHJva2U6IzAzODA0ODtzdHJva2Utd2lkdGg6MS4wOyIvPjx0ZXh0IGZpbGw9IiMwMDAwMDAiIGZvbnQtZmFtaWx5PSJzYW5zLXNlcmlmIiBmb250LXNpemU9IjE0IiBsZW5ndGhBZGp1c3Q9InNwYWNpbmciIHRleHRMZW5ndGg9IjkxIiB4PSIzNjIyIiB5PSIxMDMuMjE4OCI+Ym9vbCBzaHVmZmxlZDwvdGV4dD48ZWxsaXBzZSBjeD0iMzYxMyIgY3k9IjExMS45Njg4IiBmaWxsPSJub25lIiByeD0iMyIgcnk9IjMiIHN0eWxlPSJzdHJva2U6IzAzODA0ODtzdHJva2Utd2lkdGg6MS4wOyIvPjx0ZXh0IGZpbGw9IiMwMDAwMDAiIGZvbnQtZmFtaWx5PSJzYW5zLXNlcmlmIiBmb250LXNpemU9IjE0IiBsZW5ndGhBZGp1c3Q9InNwYWNpbmciIHRleHRMZW5ndGg9IjkyIiB4PSIzNjIyIiB5PSIxMTguMjAzMSI+aW50IHJlbWFpbmluZzwvdGV4dD48bGluZSBzdHlsZT0ic3Ryb2tlOiMxODE4MTg7c3Ryb2tlLXdpZHRoOjAuNTsiIHgxPSIzNjAzIiB4Mj0iMzcxOSIgeTE9IjEyMy45NTMxIiB5Mj0iMTIzLjk1MzEiLz48L2c+PCEtLU1ENT1bYmUyZTdkMTNhYzc4MGEwMzJlNGFkMjI5MTMwYTllZWRdCmNsYXNzIGJsYWNramFja2FwcDo6bW9kZWxzOjpkcmF3X21vZGVsLmRhcnQ6OkRyYXdNb2RlbC0tPjxnIGlkPSJlbGVtX2JsYWNramFja2FwcDo6bW9kZWxzOjpkcmF3X21vZGVsLmRhcnQ6OkRyYXdNb2RlbCI+PHJlY3QgY29kZUxpbmU9Ijk3IiBmaWxsPSIjRjFGMUYxIiBoZWlnaHQ9Ijc3Ljk2ODgiIGlkPSJibGFja2phY2thcHA6Om1vZGVsczo6ZHJhd19tb2RlbC5kYXJ0OjpEcmF3TW9kZWwiIHJ4PSIyLjUiIHJ5PSIyLjUiIHN0eWxlPSJzdHJva2U6IzE4MTgxODtzdHJva2Utd2lkdGg6MC41OyIgd2lkdGg9IjEzOCIgeD0iMzg5NCIgeT0iNDYuNSIvPjxlbGxpcHNlIGN4PSIzOTI3LjkiIGN5PSI2Mi41IiBmaWxsPSIjQUREMUIyIiByeD0iMTEiIHJ5PSIxMSIgc3R5bGU9InN0cm9rZTojMTgxODE4O3N0cm9rZS13aWR0aDoxLjA7Ii8+PHBhdGggZD0iTTM5MjUuNTI1LDY2Ljc1IEwzOTI1LjUyNSw2OC41IEwzOTMwLjQ2MjUsNjguNSBMMzkzMC40NjI1LDY2Ljc1IEwzOTI1LjUyNSw2Ni43NSBaIE0zOTI2LjIxMjUsNjcuNDM3NSBRMzkyNi4yMTI1LDY3LjQzNzUgMzkyNi4yMTI1LDU4LjI1IEwzOTI0LjQ2MjUsNTguMjUgUTM5MjQuNDYyNSw1OC4yNSAzOTI0LjQ2MjUsNjcuNDM3NSBMMzkyNi4yMTI1LDY3LjQzNzUgWiBNMzkyOS43NzUsNjcuNDM3NSBMMzkzMS41MjUsNjcuNDM3NSBRMzkzMS41MjUsNjcuNDM3NSAzOTMxLjUyNSw2NC42MjUgTDM5MjkuNzc1LDY0LjYyNSBRMzkyOS43NzUsNjQuNjI1IDM5MjkuNzc1LDY3LjQzNzUgWiBNMzkyOS43NzUsNTguMjUgUTM5MjkuNzc1LDU4LjI1IDM5MjkuNzc1LDYxLjA2MjUgTDM5MzEuNTI1LDYxLjA2MjUgUTM5MzEuNTI1LDYxLjA2MjUgMzkzMS41MjUsNTguMjUgTDM5MjkuNzc1LDU4LjI1IFogTTM5MjUuNTI1LDU4LjkzNzUgTDM5MzAuNDYyNSw1OC45Mzc1IEwzOTMwLjQ2MjUsNTcuMTg3NSBMMzkyNS41MjUsNTcuMTg3NSBMMzkyNS41MjUsNTguOTM3NSBaICIgZmlsbD0iIzAwMDAwMCIvPjx0ZXh0IGZpbGw9IiMwMDAwMDAiIGZvbnQtZmFtaWx5PSJzYW5zLXNlcmlmIiBmb250LXNpemU9IjE0IiBsZW5ndGhBZGp1c3Q9InNwYWNpbmciIHRleHRMZW5ndGg9IjY0IiB4PSIzOTQ2LjEiIHk9IjY4LjI0MjIiPkRyYXdNb2RlbDwvdGV4dD48bGluZSBzdHlsZT0ic3Ryb2tlOiMxODE4MTg7c3Ryb2tlLXdpZHRoOjAuNTsiIHgxPSIzODk1IiB4Mj0iNDAzMSIgeTE9Ijc4LjUiIHkyPSI3OC41Ii8+PGVsbGlwc2UgY3g9IjM5MDUiIGN5PSI4OS41IiBmaWxsPSJub25lIiByeD0iMyIgcnk9IjMiIHN0eWxlPSJzdHJva2U6IzAzODA0ODtzdHJva2Utd2lkdGg6MS4wOyIvPjx0ZXh0IGZpbGw9IiMwMDAwMDAiIGZvbnQtZmFtaWx5PSJzYW5zLXNlcmlmIiBmb250LXNpemU9IjE0IiBsZW5ndGhBZGp1c3Q9InNwYWNpbmciIHRleHRMZW5ndGg9IjkyIiB4PSIzOTE0IiB5PSI5NS43MzQ0Ij5pbnQgcmVtYWluaW5nPC90ZXh0PjxlbGxpcHNlIGN4PSIzOTA1IiBjeT0iMTA0LjQ4NDQiIGZpbGw9Im5vbmUiIHJ4PSIzIiByeT0iMyIgc3R5bGU9InN0cm9rZTojMDM4MDQ4O3N0cm9rZS13aWR0aDoxLjA7Ii8+PHRleHQgZmlsbD0iIzAwMDAwMCIgZm9udC1mYW1pbHk9InNhbnMtc2VyaWYiIGZvbnQtc2l6ZT0iMTQiIGxlbmd0aEFkanVzdD0ic3BhY2luZyIgdGV4dExlbmd0aD0iMTEyIiB4PSIzOTE0IiB5PSIxMTAuNzE4OCI+TGlzdCZsdDtDYXJkJmd0OyBjYXJkczwvdGV4dD48bGluZSBzdHlsZT0ic3Ryb2tlOiMxODE4MTg7c3Ryb2tlLXdpZHRoOjAuNTsiIHgxPSIzODk1IiB4Mj0iNDAzMSIgeTE9IjExNi40Njg4IiB5Mj0iMTE2LjQ2ODgiLz48L2c+PCEtLU1ENT1bMjI3MDEwMTY3ZGZjODU4ZmVmMzlkOGM0MWM3OGQwZWNdCmNsYXNzIGJsYWNramFja2FwcDo6bW9kZWxzOjpwbGF5ZXJfbW9kZWwuZGFydDo6UGxheWVyTW9kZWwtLT48ZyBpZD0iZWxlbV9ibGFja2phY2thcHA6Om1vZGVsczo6cGxheWVyX21vZGVsLmRhcnQ6OlBsYXllck1vZGVsIj48cmVjdCBjb2RlTGluZT0iMTAyIiBmaWxsPSIjRjFGMUYxIiBoZWlnaHQ9IjkyLjk1MzEiIGlkPSJibGFja2phY2thcHA6Om1vZGVsczo6cGxheWVyX21vZGVsLmRhcnQ6OlBsYXllck1vZGVsIiByeD0iMi41IiByeT0iMi41IiBzdHlsZT0ic3Ryb2tlOiMxODE4MTg7c3Ryb2tlLXdpZHRoOjAuNTsiIHdpZHRoPSIxNzMiIHg9IjQxODQuNSIgeT0iMzkiLz48ZWxsaXBzZSBjeD0iNDIyOC4zIiBjeT0iNTUiIGZpbGw9IiNBREQxQjIiIHJ4PSIxMSIgcnk9IjExIiBzdHlsZT0ic3Ryb2tlOiMxODE4MTg7c3Ryb2tlLXdpZHRoOjEuMDsiLz48cGF0aCBkPSJNNDIyNS45MjUsNTkuMjUgTDQyMjUuOTI1LDYxIEw0MjMwLjg2MjUsNjEgTDQyMzAuODYyNSw1OS4yNSBMNDIyNS45MjUsNTkuMjUgWiBNNDIyNi42MTI1LDU5LjkzNzUgUTQyMjYuNjEyNSw1OS45Mzc1IDQyMjYuNjEyNSw1MC43NSBMNDIyNC44NjI1LDUwLjc1IFE0MjI0Ljg2MjUsNTAuNzUgNDIyNC44NjI1LDU5LjkzNzUgTDQyMjYuNjEyNSw1OS45Mzc1IFogTTQyMzAuMTc1LDU5LjkzNzUgTDQyMzEuOTI1LDU5LjkzNzUgUTQyMzEuOTI1LDU5LjkzNzUgNDIzMS45MjUsNTcuMTI1IEw0MjMwLjE3NSw1Ny4xMjUgUTQyMzAuMTc1LDU3LjEyNSA0MjMwLjE3NSw1OS45Mzc1IFogTTQyMzAuMTc1LDUwLjc1IFE0MjMwLjE3NSw1MC43NSA0MjMwLjE3NSw1My41NjI1IEw0MjMxLjkyNSw1My41NjI1IFE0MjMxLjkyNSw1My41NjI1IDQyMzEuOTI1LDUwLjc1IEw0MjMwLjE3NSw1MC43NSBaIE00MjI1LjkyNSw1MS40Mzc1IEw0MjMwLjg2MjUsNTEuNDM3NSBMNDIzMC44NjI1LDQ5LjY4NzUgTDQyMjUuOTI1LDQ5LjY4NzUgTDQyMjUuOTI1LDUxLjQzNzUgWiAiIGZpbGw9IiMwMDAwMDAiLz48dGV4dCBmaWxsPSIjMDAwMDAwIiBmb250LWZhbWlseT0ic2Fucy1zZXJpZiIgZm9udC1zaXplPSIxNCIgbGVuZ3RoQWRqdXN0PSJzcGFjaW5nIiB0ZXh0TGVuZ3RoPSI3NyIgeD0iNDI0OC43IiB5PSI2MC43NDIyIj5QbGF5ZXJNb2RlbDwvdGV4dD48bGluZSBzdHlsZT0ic3Ryb2tlOiMxODE4MTg7c3Ryb2tlLXdpZHRoOjAuNTsiIHgxPSI0MTg1LjUiIHgyPSI0MzU2LjUiIHkxPSI3MSIgeTI9IjcxIi8+PGVsbGlwc2UgY3g9IjQxOTUuNSIgY3k9IjgyIiBmaWxsPSJub25lIiByeD0iMyIgcnk9IjMiIHN0eWxlPSJzdHJva2U6IzAzODA0ODtzdHJva2Utd2lkdGg6MS4wOyIvPjx0ZXh0IGZpbGw9IiMwMDAwMDAiIGZvbnQtZmFtaWx5PSJzYW5zLXNlcmlmIiBmb250LXNpemU9IjE0IiBsZW5ndGhBZGp1c3Q9InNwYWNpbmciIHRleHRMZW5ndGg9Ijc4IiB4PSI0MjA0LjUiIHk9Ijg4LjIzNDQiPlN0cmluZyBuYW1lPC90ZXh0PjxlbGxpcHNlIGN4PSI0MTk1LjUiIGN5PSI5Ni45ODQ0IiBmaWxsPSJub25lIiByeD0iMyIgcnk9IjMiIHN0eWxlPSJzdHJva2U6IzAzODA0ODtzdHJva2Utd2lkdGg6MS4wOyIvPjx0ZXh0IGZpbGw9IiMwMDAwMDAiIGZvbnQtZmFtaWx5PSJzYW5zLXNlcmlmIiBmb250LXNpemU9IjE0IiBsZW5ndGhBZGp1c3Q9InNwYWNpbmciIHRleHRMZW5ndGg9Ijg1IiB4PSI0MjA0LjUiIHk9IjEwMy4yMTg4Ij5ib29sIGlzSHVtYW48L3RleHQ+PGVsbGlwc2UgY3g9IjQxOTUuNSIgY3k9IjExMS45Njg4IiBmaWxsPSJub25lIiByeD0iMyIgcnk9IjMiIHN0eWxlPSJzdHJva2U6IzAzODA0ODtzdHJva2Utd2lkdGg6MS4wOyIvPjx0ZXh0IGZpbGw9IiMwMDAwMDAiIGZvbnQtZmFtaWx5PSJzYW5zLXNlcmlmIiBmb250LXNpemU9IjE0IiBsZW5ndGhBZGp1c3Q9InNwYWNpbmciIHRleHRMZW5ndGg9IjE0NyIgeD0iNDIwNC41IiB5PSIxMTguMjAzMSI+TGlzdCZsdDtDYXJkTW9kZWwmZ3Q7IGNhcmRzPC90ZXh0PjxsaW5lIHN0eWxlPSJzdHJva2U6IzE4MTgxODtzdHJva2Utd2lkdGg6MC41OyIgeDE9IjQxODUuNSIgeDI9IjQzNTYuNSIgeTE9IjEyMy45NTMxIiB5Mj0iMTIzLjk1MzEiLz48L2c+PCEtLU1ENT1bMmE2ZDVjZmE3OGRjYTNmZGQ2YTIxZTE3YTlkNDlhZDldCmNsYXNzIGJsYWNramFja2FwcDo6c2NyZWVuczo6Z2FtZV9zY3JlZW4uZGFydDo6R2FtZVNjcmVlbi0tPjxnIGlkPSJlbGVtX2JsYWNramFja2FwcDo6c2NyZWVuczo6Z2FtZV9zY3JlZW4uZGFydDo6R2FtZVNjcmVlbiI+PHJlY3QgY29kZUxpbmU9IjEwOCIgZmlsbD0iI0YxRjFGMSIgaGVpZ2h0PSI2Mi45ODQ0IiBpZD0iYmxhY2tqYWNrYXBwOjpzY3JlZW5zOjpnYW1lX3NjcmVlbi5kYXJ0OjpHYW1lU2NyZWVuIiByeD0iMi41IiByeT0iMi41IiBzdHlsZT0ic3Ryb2tlOiMxODE4MTg7c3Ryb2tlLXdpZHRoOjAuNTsiIHdpZHRoPSIxMjYiIHg9IjIxNDIiIHk9IjMxMCIvPjxlbGxpcHNlIGN4PSIyMTY3LjM1IiBjeT0iMzI2IiBmaWxsPSIjQUREMUIyIiByeD0iMTEiIHJ5PSIxMSIgc3R5bGU9InN0cm9rZTojMTgxODE4O3N0cm9rZS13aWR0aDoxLjA7Ii8+PHBhdGggZD0iTTIxNjQuOTc1LDMzMC4yNSBMMjE2NC45NzUsMzMyIEwyMTY5LjkxMjUsMzMyIEwyMTY5LjkxMjUsMzMwLjI1IEwyMTY0Ljk3NSwzMzAuMjUgWiBNMjE2NS42NjI1LDMzMC45Mzc1IFEyMTY1LjY2MjUsMzMwLjkzNzUgMjE2NS42NjI1LDMyMS43NSBMMjE2My45MTI1LDMyMS43NSBRMjE2My45MTI1LDMyMS43NSAyMTYzLjkxMjUsMzMwLjkzNzUgTDIxNjUuNjYyNSwzMzAuOTM3NSBaIE0yMTY5LjIyNSwzMzAuOTM3NSBMMjE3MC45NzUsMzMwLjkzNzUgUTIxNzAuOTc1LDMzMC45Mzc1IDIxNzAuOTc1LDMyOC4xMjUgTDIxNjkuMjI1LDMyOC4xMjUgUTIxNjkuMjI1LDMyOC4xMjUgMjE2OS4yMjUsMzMwLjkzNzUgWiBNMjE2OS4yMjUsMzIxLjc1IFEyMTY5LjIyNSwzMjEuNzUgMjE2OS4yMjUsMzI0LjU2MjUgTDIxNzAuOTc1LDMyNC41NjI1IFEyMTcwLjk3NSwzMjQuNTYyNSAyMTcwLjk3NSwzMjEuNzUgTDIxNjkuMjI1LDMyMS43NSBaIE0yMTY0Ljk3NSwzMjIuNDM3NSBMMjE2OS45MTI1LDMyMi40Mzc1IEwyMTY5LjkxMjUsMzIwLjY4NzUgTDIxNjQuOTc1LDMyMC42ODc1IEwyMTY0Ljk3NSwzMjIuNDM3NSBaICIgZmlsbD0iIzAwMDAwMCIvPjx0ZXh0IGZpbGw9IiMwMDAwMDAiIGZvbnQtZmFtaWx5PSJzYW5zLXNlcmlmIiBmb250LXNpemU9IjE0IiBsZW5ndGhBZGp1c3Q9InNwYWNpbmciIHRleHRMZW5ndGg9IjcxIiB4PSIyMTgzLjY1IiB5PSIzMzEuNzQyMiI+R2FtZVNjcmVlbjwvdGV4dD48bGluZSBzdHlsZT0ic3Ryb2tlOiMxODE4MTg7c3Ryb2tlLXdpZHRoOjAuNTsiIHgxPSIyMTQzIiB4Mj0iMjI2NyIgeTE9IjM0MiIgeTI9IjM0MiIvPjxsaW5lIHN0eWxlPSJzdHJva2U6IzE4MTgxODtzdHJva2Utd2lkdGg6MC41OyIgeDE9IjIxNDMiIHgyPSIyMjY3IiB5MT0iMzUwIiB5Mj0iMzUwIi8+PGVsbGlwc2UgY3g9IjIxNTMiIGN5PSIzNjEiIGZpbGw9IiM4NEJFODQiIHJ4PSIzIiByeT0iMyIgc3R5bGU9InN0cm9rZTojMDM4MDQ4O3N0cm9rZS13aWR0aDoxLjA7Ii8+PHRleHQgZmlsbD0iIzAwMDAwMCIgZm9udC1mYW1pbHk9InNhbnMtc2VyaWYiIGZvbnQtc2l6ZT0iMTQiIGxlbmd0aEFkanVzdD0ic3BhY2luZyIgdGV4dExlbmd0aD0iMTAwIiB4PSIyMTYyIiB5PSIzNjcuMjM0NCI+V2lkZ2V0IGJ1aWxkKCk8L3RleHQ+PC9nPjwhLS1NRDU9WzI2MDkxOTJlZDM2MWEwZThiYTk3Mjc4MzczMDA1MGMxXQpjbGFzcyBibGFja2phY2thcHA6OnNjcmVlbnM6OmhvbWVwYWdlLmRhcnQ6OkhvbWVwYWdlLS0+PGcgaWQ9ImVsZW1fYmxhY2tqYWNrYXBwOjpzY3JlZW5zOjpob21lcGFnZS5kYXJ0OjpIb21lcGFnZSI+PHJlY3QgY29kZUxpbmU9IjExNCIgZmlsbD0iI0YxRjFGMSIgaGVpZ2h0PSI2Mi45ODQ0IiBpZD0iYmxhY2tqYWNrYXBwOjpzY3JlZW5zOjpob21lcGFnZS5kYXJ0OjpIb21lcGFnZSIgcng9IjIuNSIgcnk9IjIuNSIgc3R5bGU9InN0cm9rZTojMTgxODE4O3N0cm9rZS13aWR0aDowLjU7IiB3aWR0aD0iMjI1IiB4PSIyOTI1LjUiIHk9IjMxMCIvPjxlbGxpcHNlIGN4PSIzMDA1LjI1IiBjeT0iMzI2IiBmaWxsPSIjQUREMUIyIiByeD0iMTEiIHJ5PSIxMSIgc3R5bGU9InN0cm9rZTojMTgxODE4O3N0cm9rZS13aWR0aDoxLjA7Ii8+PHBhdGggZD0iTTMwMDIuODc1LDMzMC4yNSBMMzAwMi44NzUsMzMyIEwzMDA3LjgxMjUsMzMyIEwzMDA3LjgxMjUsMzMwLjI1IEwzMDAyLjg3NSwzMzAuMjUgWiBNMzAwMy41NjI1LDMzMC45Mzc1IFEzMDAzLjU2MjUsMzMwLjkzNzUgMzAwMy41NjI1LDMyMS43NSBMMzAwMS44MTI1LDMyMS43NSBRMzAwMS44MTI1LDMyMS43NSAzMDAxLjgxMjUsMzMwLjkzNzUgTDMwMDMuNTYyNSwzMzAuOTM3NSBaIE0zMDA3LjEyNSwzMzAuOTM3NSBMMzAwOC44NzUsMzMwLjkzNzUgUTMwMDguODc1LDMzMC45Mzc1IDMwMDguODc1LDMyOC4xMjUgTDMwMDcuMTI1LDMyOC4xMjUgUTMwMDcuMTI1LDMyOC4xMjUgMzAwNy4xMjUsMzMwLjkzNzUgWiBNMzAwNy4xMjUsMzIxLjc1IFEzMDA3LjEyNSwzMjEuNzUgMzAwNy4xMjUsMzI0LjU2MjUgTDMwMDguODc1LDMyNC41NjI1IFEzMDA4Ljg3NSwzMjQuNTYyNSAzMDA4Ljg3NSwzMjEuNzUgTDMwMDcuMTI1LDMyMS43NSBaIE0zMDAyLjg3NSwzMjIuNDM3NSBMMzAwNy44MTI1LDMyMi40Mzc1IEwzMDA3LjgxMjUsMzIwLjY4NzUgTDMwMDIuODc1LDMyMC42ODc1IEwzMDAyLjg3NSwzMjIuNDM3NSBaICIgZmlsbD0iIzAwMDAwMCIvPjx0ZXh0IGZpbGw9IiMwMDAwMDAiIGZvbnQtZmFtaWx5PSJzYW5zLXNlcmlmIiBmb250LXNpemU9IjE0IiBsZW5ndGhBZGp1c3Q9InNwYWNpbmciIHRleHRMZW5ndGg9IjU3IiB4PSIzMDI1Ljc1IiB5PSIzMzEuNzQyMiI+SG9tZXBhZ2U8L3RleHQ+PGxpbmUgc3R5bGU9InN0cm9rZTojMTgxODE4O3N0cm9rZS13aWR0aDowLjU7IiB4MT0iMjkyNi41IiB4Mj0iMzE0OS41IiB5MT0iMzQyIiB5Mj0iMzQyIi8+PGxpbmUgc3R5bGU9InN0cm9rZTojMTgxODE4O3N0cm9rZS13aWR0aDowLjU7IiB4MT0iMjkyNi41IiB4Mj0iMzE0OS41IiB5MT0iMzUwIiB5Mj0iMzUwIi8+PGVsbGlwc2UgY3g9IjI5MzYuNSIgY3k9IjM2MSIgZmlsbD0iIzg0QkU4NCIgcng9IjMiIHJ5PSIzIiBzdHlsZT0ic3Ryb2tlOiMwMzgwNDg7c3Ryb2tlLXdpZHRoOjEuMDsiLz48dGV4dCBmaWxsPSIjMDAwMDAwIiBmb250LWZhbWlseT0ic2Fucy1zZXJpZiIgZm9udC1zaXplPSIxNCIgbGVuZ3RoQWRqdXN0PSJzcGFjaW5nIiB0ZXh0TGVuZ3RoPSIxOTkiIHg9IjI5NDUuNSIgeT0iMzY3LjIzNDQiPl9Ib21lUGFnZVN0YXRlIGNyZWF0ZVN0YXRlKCk8L3RleHQ+PC9nPjwhLS1NRDU9W2YyYzc2ZTE5ZDNlOGI5MDllYjcyZmU2YWU4NmU2YjkyXQpjbGFzcyBibGFja2phY2thcHA6OnNjcmVlbnM6OmhvbWVwYWdlLmRhcnQ6Ol9Ib21lUGFnZVN0YXRlLS0+PGcgaWQ9ImVsZW1fYmxhY2tqYWNrYXBwOjpzY3JlZW5zOjpob21lcGFnZS5kYXJ0OjpfSG9tZVBhZ2VTdGF0ZSI+PHJlY3QgY29kZUxpbmU9IjEyMCIgZmlsbD0iI0YxRjFGMSIgaGVpZ2h0PSIxMzcuOTA2MyIgaWQ9ImJsYWNramFja2FwcDo6c2NyZWVuczo6aG9tZXBhZ2UuZGFydDo6X0hvbWVQYWdlU3RhdGUiIHJ4PSIyLjUiIHJ5PSIyLjUiIHN0eWxlPSJzdHJva2U6IzE4MTgxODtzdHJva2Utd2lkdGg6MC41OyIgd2lkdGg9IjMwOCIgeD0iMzE4NiIgeT0iMjcyLjUiLz48ZWxsaXBzZSBjeD0iMzI4Ni4yNSIgY3k9IjI4OC41IiBmaWxsPSIjQUREMUIyIiByeD0iMTEiIHJ5PSIxMSIgc3R5bGU9InN0cm9rZTojMTgxODE4O3N0cm9rZS13aWR0aDoxLjA7Ii8+PHBhdGggZD0iTTMyODMuODc1LDI5Mi43NSBMMzI4My44NzUsMjk0LjUgTDMyODguODEyNSwyOTQuNSBMMzI4OC44MTI1LDI5Mi43NSBMMzI4My44NzUsMjkyLjc1IFogTTMyODQuNTYyNSwyOTMuNDM3NSBRMzI4NC41NjI1LDI5My40Mzc1IDMyODQuNTYyNSwyODQuMjUgTDMyODIuODEyNSwyODQuMjUgUTMyODIuODEyNSwyODQuMjUgMzI4Mi44MTI1LDI5My40Mzc1IEwzMjg0LjU2MjUsMjkzLjQzNzUgWiBNMzI4OC4xMjUsMjkzLjQzNzUgTDMyODkuODc1LDI5My40Mzc1IFEzMjg5Ljg3NSwyOTMuNDM3NSAzMjg5Ljg3NSwyOTAuNjI1IEwzMjg4LjEyNSwyOTAuNjI1IFEzMjg4LjEyNSwyOTAuNjI1IDMyODguMTI1LDI5My40Mzc1IFogTTMyODguMTI1LDI4NC4yNSBRMzI4OC4xMjUsMjg0LjI1IDMyODguMTI1LDI4Ny4wNjI1IEwzMjg5Ljg3NSwyODcuMDYyNSBRMzI4OS44NzUsMjg3LjA2MjUgMzI4OS44NzUsMjg0LjI1IEwzMjg4LjEyNSwyODQuMjUgWiBNMzI4My44NzUsMjg0LjkzNzUgTDMyODguODEyNSwyODQuOTM3NSBMMzI4OC44MTI1LDI4My4xODc1IEwzMjgzLjg3NSwyODMuMTg3NSBMMzI4My44NzUsMjg0LjkzNzUgWiAiIGZpbGw9IiMwMDAwMDAiLz48dGV4dCBmaWxsPSIjMDAwMDAwIiBmb250LWZhbWlseT0ic2Fucy1zZXJpZiIgZm9udC1zaXplPSIxNCIgbGVuZ3RoQWRqdXN0PSJzcGFjaW5nIiB0ZXh0TGVuZ3RoPSI5OSIgeD0iMzMwNi43NSIgeT0iMjk0LjI0MjIiPl9Ib21lUGFnZVN0YXRlPC90ZXh0PjxsaW5lIHN0eWxlPSJzdHJva2U6IzE4MTgxODtzdHJva2Utd2lkdGg6MC41OyIgeDE9IjMxODciIHgyPSIzNDkzIiB5MT0iMzA0LjUiIHkyPSIzMDQuNSIvPjxyZWN0IGZpbGw9Im5vbmUiIGhlaWdodD0iNiIgc3R5bGU9InN0cm9rZTojQzgyOTMwO3N0cm9rZS13aWR0aDoxLjA7IiB3aWR0aD0iNiIgeD0iMzE5NCIgeT0iMzEyLjUiLz48dGV4dCBmaWxsPSIjMDAwMDAwIiBmb250LWZhbWlseT0ic2Fucy1zZXJpZiIgZm9udC1zaXplPSIxNCIgbGVuZ3RoQWRqdXN0PSJzcGFjaW5nIiB0ZXh0TGVuZ3RoPSIyODIiIHg9IjMyMDYiIHk9IjMyMS43MzQ0Ij5BbmltYXRpb25Db250cm9sbGVyIF9hbmltYXRpb25Db250cm9sbGVyPC90ZXh0PjxyZWN0IGZpbGw9Im5vbmUiIGhlaWdodD0iNiIgc3R5bGU9InN0cm9rZTojQzgyOTMwO3N0cm9rZS13aWR0aDoxLjA7IiB3aWR0aD0iNiIgeD0iMzE5NCIgeT0iMzI3LjQ4NDQiLz48dGV4dCBmaWxsPSIjMDAwMDAwIiBmb250LWZhbWlseT0ic2Fucy1zZXJpZiIgZm9udC1zaXplPSIxNCIgbGVuZ3RoQWRqdXN0PSJzcGFjaW5nIiB0ZXh0TGVuZ3RoPSIxOTgiIHg9IjMyMDYiIHk9IjMzNi43MTg4Ij5BbmltYXRpb24mbHQ7ZG91YmxlJmd0OyBfYW5pbWF0aW9uPC90ZXh0PjxyZWN0IGZpbGw9Im5vbmUiIGhlaWdodD0iNiIgc3R5bGU9InN0cm9rZTojQzgyOTMwO3N0cm9rZS13aWR0aDoxLjA7IiB3aWR0aD0iNiIgeD0iMzE5NCIgeT0iMzQyLjQ2ODgiLz48dGV4dCBmaWxsPSIjMDAwMDAwIiBmb250LWZhbWlseT0ic2Fucy1zZXJpZiIgZm9udC1zaXplPSIxNCIgbGVuZ3RoQWRqdXN0PSJzcGFjaW5nIiB0ZXh0TGVuZ3RoPSIyMjYiIHg9IjMyMDYiIHk9IjM1MS43MDMxIj5BbmltYXRpb25TdGF0dXMgX2FuaW1hdGlvblN0YXR1czwvdGV4dD48bGluZSBzdHlsZT0ic3Ryb2tlOiMxODE4MTg7c3Ryb2tlLXdpZHRoOjAuNTsiIHgxPSIzMTg3IiB4Mj0iMzQ5MyIgeTE9IjM1Ny40NTMxIiB5Mj0iMzU3LjQ1MzEiLz48ZWxsaXBzZSBjeD0iMzE5NyIgY3k9IjM2OC40NTMxIiBmaWxsPSIjODRCRTg0IiByeD0iMyIgcnk9IjMiIHN0eWxlPSJzdHJva2U6IzAzODA0ODtzdHJva2Utd2lkdGg6MS4wOyIvPjx0ZXh0IGZpbGw9IiMwMDAwMDAiIGZvbnQtZmFtaWx5PSJzYW5zLXNlcmlmIiBmb250LXNpemU9IjE0IiBsZW5ndGhBZGp1c3Q9InNwYWNpbmciIHRleHRMZW5ndGg9IjExNCIgeD0iMzIwNiIgeT0iMzc0LjY4NzUiPnZvaWQgaW5pdFN0YXRlKCk8L3RleHQ+PGVsbGlwc2UgY3g9IjMxOTciIGN5PSIzODMuNDM3NSIgZmlsbD0iIzg0QkU4NCIgcng9IjMiIHJ5PSIzIiBzdHlsZT0ic3Ryb2tlOiMwMzgwNDg7c3Ryb2tlLXdpZHRoOjEuMDsiLz48dGV4dCBmaWxsPSIjMDAwMDAwIiBmb250LWZhbWlseT0ic2Fucy1zZXJpZiIgZm9udC1zaXplPSIxNCIgbGVuZ3RoQWRqdXN0PSJzcGFjaW5nIiB0ZXh0TGVuZ3RoPSIxMDAiIHg9IjMyMDYiIHk9IjM4OS42NzE5Ij5XaWRnZXQgYnVpbGQoKTwvdGV4dD48ZWxsaXBzZSBjeD0iMzE5NyIgY3k9IjM5OC40MjE5IiBmaWxsPSIjODRCRTg0IiByeD0iMyIgcnk9IjMiIHN0eWxlPSJzdHJva2U6IzAzODA0ODtzdHJva2Utd2lkdGg6MS4wOyIvPjx0ZXh0IGZpbGw9IiMwMDAwMDAiIGZvbnQtZmFtaWx5PSJzYW5zLXNlcmlmIiBmb250LXNpemU9IjE0IiBsZW5ndGhBZGp1c3Q9InNwYWNpbmciIHRleHRMZW5ndGg9IjE3MCIgeD0iMzIwNiIgeT0iNDA0LjY1NjMiPldpZGdldCBnZXRGbGlwcGluZ0NhcmQoKTwvdGV4dD48L2c+PCEtLU1ENT1bZjhmM2Y1MDRmZGE5ZTcxNmFkNGQ2ZTMxODc0YjRkMDJdCmNsYXNzIGZsdXR0ZXI6OnNyYzo6YW5pbWF0aW9uOjphbmltYXRpb25fY29udHJvbGxlci5kYXJ0OjpBbmltYXRpb25Db250cm9sbGVyLS0+PGcgaWQ9ImVsZW1fZmx1dHRlcjo6c3JjOjphbmltYXRpb246OmFuaW1hdGlvbl9jb250cm9sbGVyLmRhcnQ6OkFuaW1hdGlvbkNvbnRyb2xsZXIiPjxyZWN0IGZpbGw9IiNGMUYxRjEiIGhlaWdodD0iNDgiIGlkPSJmbHV0dGVyOjpzcmM6OmFuaW1hdGlvbjo6YW5pbWF0aW9uX2NvbnRyb2xsZXIuZGFydDo6QW5pbWF0aW9uQ29udHJvbGxlciIgcng9IjIuNSIgcnk9IjIuNSIgc3R5bGU9InN0cm9rZTojMTgxODE4O3N0cm9rZS13aWR0aDowLjU7IiB3aWR0aD0iMTY2IiB4PSIzMDQ5IiB5PSI1NTEiLz48ZWxsaXBzZSBjeD0iMzA2NCIgY3k9IjU2NyIgZmlsbD0iI0FERDFCMiIgcng9IjExIiByeT0iMTEiIHN0eWxlPSJzdHJva2U6IzE4MTgxODtzdHJva2Utd2lkdGg6MS4wOyIvPjxwYXRoIGQ9Ik0zMDYxLjYyNSw1NzEuMjUgTDMwNjEuNjI1LDU3MyBMMzA2Ni41NjI1LDU3MyBMMzA2Ni41NjI1LDU3MS4yNSBMMzA2MS42MjUsNTcxLjI1IFogTTMwNjIuMzEyNSw1NzEuOTM3NSBRMzA2Mi4zMTI1LDU3MS45Mzc1IDMwNjIuMzEyNSw1NjIuNzUgTDMwNjAuNTYyNSw1NjIuNzUgUTMwNjAuNTYyNSw1NjIuNzUgMzA2MC41NjI1LDU3MS45Mzc1IEwzMDYyLjMxMjUsNTcxLjkzNzUgWiBNMzA2NS44NzUsNTcxLjkzNzUgTDMwNjcuNjI1LDU3MS45Mzc1IFEzMDY3LjYyNSw1NzEuOTM3NSAzMDY3LjYyNSw1NjkuMTI1IEwzMDY1Ljg3NSw1NjkuMTI1IFEzMDY1Ljg3NSw1NjkuMTI1IDMwNjUuODc1LDU3MS45Mzc1IFogTTMwNjUuODc1LDU2Mi43NSBRMzA2NS44NzUsNTYyLjc1IDMwNjUuODc1LDU2NS41NjI1IEwzMDY3LjYyNSw1NjUuNTYyNSBRMzA2Ny42MjUsNTY1LjU2MjUgMzA2Ny42MjUsNTYyLjc1IEwzMDY1Ljg3NSw1NjIuNzUgWiBNMzA2MS42MjUsNTYzLjQzNzUgTDMwNjYuNTYyNSw1NjMuNDM3NSBMMzA2Ni41NjI1LDU2MS42ODc1IEwzMDYxLjYyNSw1NjEuNjg3NSBMMzA2MS42MjUsNTYzLjQzNzUgWiAiIGZpbGw9IiMwMDAwMDAiLz48dGV4dCBmaWxsPSIjMDAwMDAwIiBmb250LWZhbWlseT0ic2Fucy1zZXJpZiIgZm9udC1zaXplPSIxNCIgbGVuZ3RoQWRqdXN0PSJzcGFjaW5nIiB0ZXh0TGVuZ3RoPSIxMzQiIHg9IjMwNzgiIHk9IjU3Mi43NDIyIj5BbmltYXRpb25Db250cm9sbGVyPC90ZXh0PjxsaW5lIHN0eWxlPSJzdHJva2U6IzE4MTgxODtzdHJva2Utd2lkdGg6MC41OyIgeDE9IjMwNTAiIHgyPSIzMjE0IiB5MT0iNTgzIiB5Mj0iNTgzIi8+PGxpbmUgc3R5bGU9InN0cm9rZTojMTgxODE4O3N0cm9rZS13aWR0aDowLjU7IiB4MT0iMzA1MCIgeDI9IjMyMTQiIHkxPSI1OTEiIHkyPSI1OTEiLz48L2c+PCEtLU1ENT1bOGM5MDM2YzA5ZmIzNzc0YjkxNjY0OTVhZGQ2MTc2MjddCmNsYXNzIGZsdXR0ZXI6OnNyYzo6YW5pbWF0aW9uOjphbmltYXRpb24uZGFydDo6QW5pbWF0aW9uPGRvdWJsZT4tLT48ZyBpZD0iZWxlbV9mbHV0dGVyOjpzcmM6OmFuaW1hdGlvbjo6YW5pbWF0aW9uLmRhcnQ6OkFuaW1hdGlvbiZsdDtkb3VibGUmZ3Q7Ij48cmVjdCBmaWxsPSIjRjFGMUYxIiBoZWlnaHQ9IjQ4IiBpZD0iZmx1dHRlcjo6c3JjOjphbmltYXRpb246OmFuaW1hdGlvbi5kYXJ0OjpBbmltYXRpb24mbHQ7ZG91YmxlJmd0OyIgcng9IjIuNSIgcnk9IjIuNSIgc3R5bGU9InN0cm9rZTojMTgxODE4O3N0cm9rZS13aWR0aDowLjU7IiB3aWR0aD0iMTUyIiB4PSIzNDQ0IiB5PSI1NTEiLz48ZWxsaXBzZSBjeD0iMzQ1OSIgY3k9IjU2NyIgZmlsbD0iI0FERDFCMiIgcng9IjExIiByeT0iMTEiIHN0eWxlPSJzdHJva2U6IzE4MTgxODtzdHJva2Utd2lkdGg6MS4wOyIvPjxwYXRoIGQ9Ik0zNDU2LjYyNSw1NzEuMjUgTDM0NTYuNjI1LDU3MyBMMzQ2MS41NjI1LDU3MyBMMzQ2MS41NjI1LDU3MS4yNSBMMzQ1Ni42MjUsNTcxLjI1IFogTTM0NTcuMzEyNSw1NzEuOTM3NSBRMzQ1Ny4zMTI1LDU3MS45Mzc1IDM0NTcuMzEyNSw1NjIuNzUgTDM0NTUuNTYyNSw1NjIuNzUgUTM0NTUuNTYyNSw1NjIuNzUgMzQ1NS41NjI1LDU3MS45Mzc1IEwzNDU3LjMxMjUsNTcxLjkzNzUgWiBNMzQ2MC44NzUsNTcxLjkzNzUgTDM0NjIuNjI1LDU3MS45Mzc1IFEzNDYyLjYyNSw1NzEuOTM3NSAzNDYyLjYyNSw1NjkuMTI1IEwzNDYwLjg3NSw1NjkuMTI1IFEzNDYwLjg3NSw1NjkuMTI1IDM0NjAuODc1LDU3MS45Mzc1IFogTTM0NjAuODc1LDU2Mi43NSBRMzQ2MC44NzUsNTYyLjc1IDM0NjAuODc1LDU2NS41NjI1IEwzNDYyLjYyNSw1NjUuNTYyNSBRMzQ2Mi42MjUsNTY1LjU2MjUgMzQ2Mi42MjUsNTYyLjc1IEwzNDYwLjg3NSw1NjIuNzUgWiBNMzQ1Ni42MjUsNTYzLjQzNzUgTDM0NjEuNTYyNSw1NjMuNDM3NSBMMzQ2MS41NjI1LDU2MS42ODc1IEwzNDU2LjYyNSw1NjEuNjg3NSBMMzQ1Ni42MjUsNTYzLjQzNzUgWiAiIGZpbGw9IiMwMDAwMDAiLz48dGV4dCBmaWxsPSIjMDAwMDAwIiBmb250LWZhbWlseT0ic2Fucy1zZXJpZiIgZm9udC1zaXplPSIxNCIgbGVuZ3RoQWRqdXN0PSJzcGFjaW5nIiB0ZXh0TGVuZ3RoPSIxMjAiIHg9IjM0NzMiIHk9IjU3Mi43NDIyIj5BbmltYXRpb24mbHQ7ZG91YmxlJmd0OzwvdGV4dD48bGluZSBzdHlsZT0ic3Ryb2tlOiMxODE4MTg7c3Ryb2tlLXdpZHRoOjAuNTsiIHgxPSIzNDQ1IiB4Mj0iMzU5NSIgeTE9IjU4MyIgeTI9IjU4MyIvPjxsaW5lIHN0eWxlPSJzdHJva2U6IzE4MTgxODtzdHJva2Utd2lkdGg6MC41OyIgeDE9IjM0NDUiIHgyPSIzNTk1IiB5MT0iNTkxIiB5Mj0iNTkxIi8+PC9nPjwhLS1NRDU9WzMzNmY4NTBhZDM2OTAwMjNlMGY0NmVkOTkyYzBhZmU3XQpjbGFzcyBmbHV0dGVyOjpzcmM6OmFuaW1hdGlvbjo6YW5pbWF0aW9uLmRhcnQ6OkFuaW1hdGlvblN0YXR1cy0tPjxnIGlkPSJlbGVtX2ZsdXR0ZXI6OnNyYzo6YW5pbWF0aW9uOjphbmltYXRpb24uZGFydDo6QW5pbWF0aW9uU3RhdHVzIj48cmVjdCBmaWxsPSIjRjFGMUYxIiBoZWlnaHQ9IjQ4IiBpZD0iZmx1dHRlcjo6c3JjOjphbmltYXRpb246OmFuaW1hdGlvbi5kYXJ0OjpBbmltYXRpb25TdGF0dXMiIHJ4PSIyLjUiIHJ5PSIyLjUiIHN0eWxlPSJzdHJva2U6IzE4MTgxODtzdHJva2Utd2lkdGg6MC41OyIgd2lkdGg9IjEzOCIgeD0iMzI3MSIgeT0iNTUxIi8+PGVsbGlwc2UgY3g9IjMyODYiIGN5PSI1NjciIGZpbGw9IiNBREQxQjIiIHJ4PSIxMSIgcnk9IjExIiBzdHlsZT0ic3Ryb2tlOiMxODE4MTg7c3Ryb2tlLXdpZHRoOjEuMDsiLz48cGF0aCBkPSJNMzI4My42MjUsNTcxLjI1IEwzMjgzLjYyNSw1NzMgTDMyODguNTYyNSw1NzMgTDMyODguNTYyNSw1NzEuMjUgTDMyODMuNjI1LDU3MS4yNSBaIE0zMjg0LjMxMjUsNTcxLjkzNzUgUTMyODQuMzEyNSw1NzEuOTM3NSAzMjg0LjMxMjUsNTYyLjc1IEwzMjgyLjU2MjUsNTYyLjc1IFEzMjgyLjU2MjUsNTYyLjc1IDMyODIuNTYyNSw1NzEuOTM3NSBMMzI4NC4zMTI1LDU3MS45Mzc1IFogTTMyODcuODc1LDU3MS45Mzc1IEwzMjg5LjYyNSw1NzEuOTM3NSBRMzI4OS42MjUsNTcxLjkzNzUgMzI4OS42MjUsNTY5LjEyNSBMMzI4Ny44NzUsNTY5LjEyNSBRMzI4Ny44NzUsNTY5LjEyNSAzMjg3Ljg3NSw1NzEuOTM3NSBaIE0zMjg3Ljg3NSw1NjIuNzUgUTMyODcuODc1LDU2Mi43NSAzMjg3Ljg3NSw1NjUuNTYyNSBMMzI4OS42MjUsNTY1LjU2MjUgUTMyODkuNjI1LDU2NS41NjI1IDMyODkuNjI1LDU2Mi43NSBMMzI4Ny44NzUsNTYyLjc1IFogTTMyODMuNjI1LDU2My40Mzc1IEwzMjg4LjU2MjUsNTYzLjQzNzUgTDMyODguNTYyNSw1NjEuNjg3NSBMMzI4My42MjUsNTYxLjY4NzUgTDMyODMuNjI1LDU2My40Mzc1IFogIiBmaWxsPSIjMDAwMDAwIi8+PHRleHQgZmlsbD0iIzAwMDAwMCIgZm9udC1mYW1pbHk9InNhbnMtc2VyaWYiIGZvbnQtc2l6ZT0iMTQiIGxlbmd0aEFkanVzdD0ic3BhY2luZyIgdGV4dExlbmd0aD0iMTA2IiB4PSIzMzAwIiB5PSI1NzIuNzQyMiI+QW5pbWF0aW9uU3RhdHVzPC90ZXh0PjxsaW5lIHN0eWxlPSJzdHJva2U6IzE4MTgxODtzdHJva2Utd2lkdGg6MC41OyIgeDE9IjMyNzIiIHgyPSIzNDA4IiB5MT0iNTgzIiB5Mj0iNTgzIi8+PGxpbmUgc3R5bGU9InN0cm9rZTojMTgxODE4O3N0cm9rZS13aWR0aDowLjU7IiB4MT0iMzI3MiIgeDI9IjM0MDgiIHkxPSI1OTEiIHkyPSI1OTEiLz48L2c+PCEtLU1ENT1bYTZmM2IzNWU2NDZlOTVmOTViMmJlYTIwZjNhOGEzODldCmNsYXNzIGZsdXR0ZXI6OnNyYzo6d2lkZ2V0czo6dGlja2VyX3Byb3ZpZGVyLmRhcnQ6OlNpbmdsZVRpY2tlclByb3ZpZGVyU3RhdGVNaXhpbi0tPjxnIGlkPSJlbGVtX2ZsdXR0ZXI6OnNyYzo6d2lkZ2V0czo6dGlja2VyX3Byb3ZpZGVyLmRhcnQ6OlNpbmdsZVRpY2tlclByb3ZpZGVyU3RhdGVNaXhpbiI+PHJlY3QgZmlsbD0iI0YxRjFGMSIgaGVpZ2h0PSI0OCIgaWQ9ImZsdXR0ZXI6OnNyYzo6d2lkZ2V0czo6dGlja2VyX3Byb3ZpZGVyLmRhcnQ6OlNpbmdsZVRpY2tlclByb3ZpZGVyU3RhdGVNaXhpbiIgcng9IjIuNSIgcnk9IjIuNSIgc3R5bGU9InN0cm9rZTojMTgxODE4O3N0cm9rZS13aWR0aDowLjU7IiB3aWR0aD0iMjQyIiB4PSIzMjE5IiB5PSI2MS41Ii8+PGVsbGlwc2UgY3g9IjMyMzQiIGN5PSI3Ny41IiBmaWxsPSIjQUREMUIyIiByeD0iMTEiIHJ5PSIxMSIgc3R5bGU9InN0cm9rZTojMTgxODE4O3N0cm9rZS13aWR0aDoxLjA7Ii8+PHBhdGggZD0iTTMyMzEuNjI1LDgxLjc1IEwzMjMxLjYyNSw4My41IEwzMjM2LjU2MjUsODMuNSBMMzIzNi41NjI1LDgxLjc1IEwzMjMxLjYyNSw4MS43NSBaIE0zMjMyLjMxMjUsODIuNDM3NSBRMzIzMi4zMTI1LDgyLjQzNzUgMzIzMi4zMTI1LDczLjI1IEwzMjMwLjU2MjUsNzMuMjUgUTMyMzAuNTYyNSw3My4yNSAzMjMwLjU2MjUsODIuNDM3NSBMMzIzMi4zMTI1LDgyLjQzNzUgWiBNMzIzNS44NzUsODIuNDM3NSBMMzIzNy42MjUsODIuNDM3NSBRMzIzNy42MjUsODIuNDM3NSAzMjM3LjYyNSw3OS42MjUgTDMyMzUuODc1LDc5LjYyNSBRMzIzNS44NzUsNzkuNjI1IDMyMzUuODc1LDgyLjQzNzUgWiBNMzIzNS44NzUsNzMuMjUgUTMyMzUuODc1LDczLjI1IDMyMzUuODc1LDc2LjA2MjUgTDMyMzcuNjI1LDc2LjA2MjUgUTMyMzcuNjI1LDc2LjA2MjUgMzIzNy42MjUsNzMuMjUgTDMyMzUuODc1LDczLjI1IFogTTMyMzEuNjI1LDczLjkzNzUgTDMyMzYuNTYyNSw3My45Mzc1IEwzMjM2LjU2MjUsNzIuMTg3NSBMMzIzMS42MjUsNzIuMTg3NSBMMzIzMS42MjUsNzMuOTM3NSBaICIgZmlsbD0iIzAwMDAwMCIvPjx0ZXh0IGZpbGw9IiMwMDAwMDAiIGZvbnQtZmFtaWx5PSJzYW5zLXNlcmlmIiBmb250LXNpemU9IjE0IiBsZW5ndGhBZGp1c3Q9InNwYWNpbmciIHRleHRMZW5ndGg9IjIxMCIgeD0iMzI0OCIgeT0iODMuMjQyMiI+U2luZ2xlVGlja2VyUHJvdmlkZXJTdGF0ZU1peGluPC90ZXh0PjxsaW5lIHN0eWxlPSJzdHJva2U6IzE4MTgxODtzdHJva2Utd2lkdGg6MC41OyIgeDE9IjMyMjAiIHgyPSIzNDYwIiB5MT0iOTMuNSIgeTI9IjkzLjUiLz48bGluZSBzdHlsZT0ic3Ryb2tlOiMxODE4MTg7c3Ryb2tlLXdpZHRoOjAuNTsiIHgxPSIzMjIwIiB4Mj0iMzQ2MCIgeTE9IjEwMS41IiB5Mj0iMTAxLjUiLz48L2c+PCEtLU1ENT1bN2Q1ZTNhNGRhZTAyNjg3ZDJjODE5YWViYjJiNTMxYzZdCmNsYXNzIGJsYWNramFja2FwcDo6c2NyZWVuczo6c3BsYXNoc2NyZWVuLmRhcnQ6OlNwbGFzaFNjcmVlbi0tPjxnIGlkPSJlbGVtX2JsYWNramFja2FwcDo6c2NyZWVuczo6c3BsYXNoc2NyZWVuLmRhcnQ6OlNwbGFzaFNjcmVlbiI+PHJlY3QgY29kZUxpbmU9IjEzNSIgZmlsbD0iI0YxRjFGMSIgaGVpZ2h0PSI2Mi45ODQ0IiBpZD0iYmxhY2tqYWNrYXBwOjpzY3JlZW5zOjpzcGxhc2hzY3JlZW4uZGFydDo6U3BsYXNoU2NyZWVuIiByeD0iMi41IiByeT0iMi41IiBzdHlsZT0ic3Ryb2tlOiMxODE4MTg7c3Ryb2tlLXdpZHRoOjAuNTsiIHdpZHRoPSIyNzMiIHg9IjIzOTAuNSIgeT0iMzEwIi8+PGVsbGlwc2UgY3g9IjI0ODAuNzUiIGN5PSIzMjYiIGZpbGw9IiNBREQxQjIiIHJ4PSIxMSIgcnk9IjExIiBzdHlsZT0ic3Ryb2tlOiMxODE4MTg7c3Ryb2tlLXdpZHRoOjEuMDsiLz48cGF0aCBkPSJNMjQ3OC4zNzUsMzMwLjI1IEwyNDc4LjM3NSwzMzIgTDI0ODMuMzEyNSwzMzIgTDI0ODMuMzEyNSwzMzAuMjUgTDI0NzguMzc1LDMzMC4yNSBaIE0yNDc5LjA2MjUsMzMwLjkzNzUgUTI0NzkuMDYyNSwzMzAuOTM3NSAyNDc5LjA2MjUsMzIxLjc1IEwyNDc3LjMxMjUsMzIxLjc1IFEyNDc3LjMxMjUsMzIxLjc1IDI0NzcuMzEyNSwzMzAuOTM3NSBMMjQ3OS4wNjI1LDMzMC45Mzc1IFogTTI0ODIuNjI1LDMzMC45Mzc1IEwyNDg0LjM3NSwzMzAuOTM3NSBRMjQ4NC4zNzUsMzMwLjkzNzUgMjQ4NC4zNzUsMzI4LjEyNSBMMjQ4Mi42MjUsMzI4LjEyNSBRMjQ4Mi42MjUsMzI4LjEyNSAyNDgyLjYyNSwzMzAuOTM3NSBaIE0yNDgyLjYyNSwzMjEuNzUgUTI0ODIuNjI1LDMyMS43NSAyNDgyLjYyNSwzMjQuNTYyNSBMMjQ4NC4zNzUsMzI0LjU2MjUgUTI0ODQuMzc1LDMyNC41NjI1IDI0ODQuMzc1LDMyMS43NSBMMjQ4Mi42MjUsMzIxLjc1IFogTTI0NzguMzc1LDMyMi40Mzc1IEwyNDgzLjMxMjUsMzIyLjQzNzUgTDI0ODMuMzEyNSwzMjAuNjg3NSBMMjQ3OC4zNzUsMzIwLjY4NzUgTDI0NzguMzc1LDMyMi40Mzc1IFogIiBmaWxsPSIjMDAwMDAwIi8+PHRleHQgZmlsbD0iIzAwMDAwMCIgZm9udC1mYW1pbHk9InNhbnMtc2VyaWYiIGZvbnQtc2l6ZT0iMTQiIGxlbmd0aEFkanVzdD0ic3BhY2luZyIgdGV4dExlbmd0aD0iODQiIHg9IjI1MDEuMjUiIHk9IjMzMS43NDIyIj5TcGxhc2hTY3JlZW48L3RleHQ+PGxpbmUgc3R5bGU9InN0cm9rZTojMTgxODE4O3N0cm9rZS13aWR0aDowLjU7IiB4MT0iMjM5MS41IiB4Mj0iMjY2Mi41IiB5MT0iMzQyIiB5Mj0iMzQyIi8+PGxpbmUgc3R5bGU9InN0cm9rZTojMTgxODE4O3N0cm9rZS13aWR0aDowLjU7IiB4MT0iMjM5MS41IiB4Mj0iMjY2Mi41IiB5MT0iMzUwIiB5Mj0iMzUwIi8+PGVsbGlwc2UgY3g9IjI0MDEuNSIgY3k9IjM2MSIgZmlsbD0iIzg0QkU4NCIgcng9IjMiIHJ5PSIzIiBzdHlsZT0ic3Ryb2tlOiMwMzgwNDg7c3Ryb2tlLXdpZHRoOjEuMDsiLz48dGV4dCBmaWxsPSIjMDAwMDAwIiBmb250LWZhbWlseT0ic2Fucy1zZXJpZiIgZm9udC1zaXplPSIxNCIgbGVuZ3RoQWRqdXN0PSJzcGFjaW5nIiB0ZXh0TGVuZ3RoPSIyNDciIHg9IjI0MTAuNSIgeT0iMzY3LjIzNDQiPlN0YXRlJmx0O1N0YXRlZnVsV2lkZ2V0Jmd0OyBjcmVhdGVTdGF0ZSgpPC90ZXh0PjwvZz48IS0tTUQ1PVszNjNmNTQzZjJlZmEyMmUyMjhjNDliZTZkYmQ4YzNmYl0KY2xhc3MgYmxhY2tqYWNrYXBwOjpzY3JlZW5zOjpzcGxhc2hzY3JlZW4uZGFydDo6U3RhcnRTdGF0ZS0tPjxnIGlkPSJlbGVtX2JsYWNramFja2FwcDo6c2NyZWVuczo6c3BsYXNoc2NyZWVuLmRhcnQ6OlN0YXJ0U3RhdGUiPjxyZWN0IGNvZGVMaW5lPSIxNDEiIGZpbGw9IiNGMUYxRjEiIGhlaWdodD0iMTA3LjkzNzUiIGlkPSJibGFja2phY2thcHA6OnNjcmVlbnM6OnNwbGFzaHNjcmVlbi5kYXJ0OjpTdGFydFN0YXRlIiByeD0iMi41IiByeT0iMi41IiBzdHlsZT0ic3Ryb2tlOiMxODE4MTg7c3Ryb2tlLXdpZHRoOjAuNTsiIHdpZHRoPSIxNzAiIHg9IjI2OTkiIHk9IjI4Ny41Ii8+PGVsbGlwc2UgY3g9IjI3NDQuNzUiIGN5PSIzMDMuNSIgZmlsbD0iI0FERDFCMiIgcng9IjExIiByeT0iMTEiIHN0eWxlPSJzdHJva2U6IzE4MTgxODtzdHJva2Utd2lkdGg6MS4wOyIvPjxwYXRoIGQ9Ik0yNzQyLjM3NSwzMDcuNzUgTDI3NDIuMzc1LDMwOS41IEwyNzQ3LjMxMjUsMzA5LjUgTDI3NDcuMzEyNSwzMDcuNzUgTDI3NDIuMzc1LDMwNy43NSBaIE0yNzQzLjA2MjUsMzA4LjQzNzUgUTI3NDMuMDYyNSwzMDguNDM3NSAyNzQzLjA2MjUsMjk5LjI1IEwyNzQxLjMxMjUsMjk5LjI1IFEyNzQxLjMxMjUsMjk5LjI1IDI3NDEuMzEyNSwzMDguNDM3NSBMMjc0My4wNjI1LDMwOC40Mzc1IFogTTI3NDYuNjI1LDMwOC40Mzc1IEwyNzQ4LjM3NSwzMDguNDM3NSBRMjc0OC4zNzUsMzA4LjQzNzUgMjc0OC4zNzUsMzA1LjYyNSBMMjc0Ni42MjUsMzA1LjYyNSBRMjc0Ni42MjUsMzA1LjYyNSAyNzQ2LjYyNSwzMDguNDM3NSBaIE0yNzQ2LjYyNSwyOTkuMjUgUTI3NDYuNjI1LDI5OS4yNSAyNzQ2LjYyNSwzMDIuMDYyNSBMMjc0OC4zNzUsMzAyLjA2MjUgUTI3NDguMzc1LDMwMi4wNjI1IDI3NDguMzc1LDI5OS4yNSBMMjc0Ni42MjUsMjk5LjI1IFogTTI3NDIuMzc1LDI5OS45Mzc1IEwyNzQ3LjMxMjUsMjk5LjkzNzUgTDI3NDcuMzEyNSwyOTguMTg3NSBMMjc0Mi4zNzUsMjk4LjE4NzUgTDI3NDIuMzc1LDI5OS45Mzc1IFogIiBmaWxsPSIjMDAwMDAwIi8+PHRleHQgZmlsbD0iIzAwMDAwMCIgZm9udC1mYW1pbHk9InNhbnMtc2VyaWYiIGZvbnQtc2l6ZT0iMTQiIGxlbmd0aEFkanVzdD0ic3BhY2luZyIgdGV4dExlbmd0aD0iNzAiIHg9IjI3NjUuMjUiIHk9IjMwOS4yNDIyIj5TdGFydFN0YXRlPC90ZXh0PjxsaW5lIHN0eWxlPSJzdHJva2U6IzE4MTgxODtzdHJva2Utd2lkdGg6MC41OyIgeDE9IjI3MDAiIHgyPSIyODY4IiB5MT0iMzE5LjUiIHkyPSIzMTkuNSIvPjxsaW5lIHN0eWxlPSJzdHJva2U6IzE4MTgxODtzdHJva2Utd2lkdGg6MC41OyIgeDE9IjI3MDAiIHgyPSIyODY4IiB5MT0iMzI3LjUiIHkyPSIzMjcuNSIvPjxlbGxpcHNlIGN4PSIyNzEwIiBjeT0iMzM4LjUiIGZpbGw9IiM4NEJFODQiIHJ4PSIzIiByeT0iMyIgc3R5bGU9InN0cm9rZTojMDM4MDQ4O3N0cm9rZS13aWR0aDoxLjA7Ii8+PHRleHQgZmlsbD0iIzAwMDAwMCIgZm9udC1mYW1pbHk9InNhbnMtc2VyaWYiIGZvbnQtc2l6ZT0iMTQiIGxlbmd0aEFkanVzdD0ic3BhY2luZyIgdGV4dExlbmd0aD0iMTE0IiB4PSIyNzE5IiB5PSIzNDQuNzM0NCI+dm9pZCBpbml0U3RhdGUoKTwvdGV4dD48ZWxsaXBzZSBjeD0iMjcxMCIgY3k9IjM1My40ODQ0IiBmaWxsPSIjODRCRTg0IiByeD0iMyIgcnk9IjMiIHN0eWxlPSJzdHJva2U6IzAzODA0ODtzdHJva2Utd2lkdGg6MS4wOyIvPjx0ZXh0IGZpbGw9IiMwMDAwMDAiIGZvbnQtZmFtaWx5PSJzYW5zLXNlcmlmIiBmb250LXNpemU9IjE0IiBsZW5ndGhBZGp1c3Q9InNwYWNpbmciIHRleHRMZW5ndGg9IjE0NCIgeD0iMjcxOSIgeT0iMzU5LjcxODgiPmR5bmFtaWMgc3RhcnRUaW1lcigpPC90ZXh0PjxlbGxpcHNlIGN4PSIyNzEwIiBjeT0iMzY4LjQ2ODgiIGZpbGw9IiM4NEJFODQiIHJ4PSIzIiByeT0iMyIgc3R5bGU9InN0cm9rZTojMDM4MDQ4O3N0cm9rZS13aWR0aDoxLjA7Ii8+PHRleHQgZmlsbD0iIzAwMDAwMCIgZm9udC1mYW1pbHk9InNhbnMtc2VyaWYiIGZvbnQtc2l6ZT0iMTQiIGxlbmd0aEFkanVzdD0ic3BhY2luZyIgdGV4dExlbmd0aD0iMTA4IiB4PSIyNzE5IiB5PSIzNzQuNzAzMSI+ZHluYW1pYyByb3V0ZSgpPC90ZXh0PjxlbGxpcHNlIGN4PSIyNzEwIiBjeT0iMzgzLjQ1MzEiIGZpbGw9IiM4NEJFODQiIHJ4PSIzIiByeT0iMyIgc3R5bGU9InN0cm9rZTojMDM4MDQ4O3N0cm9rZS13aWR0aDoxLjA7Ii8+PHRleHQgZmlsbD0iIzAwMDAwMCIgZm9udC1mYW1pbHk9InNhbnMtc2VyaWYiIGZvbnQtc2l6ZT0iMTQiIGxlbmd0aEFkanVzdD0ic3BhY2luZyIgdGV4dExlbmd0aD0iMTAwIiB4PSIyNzE5IiB5PSIzODkuNjg3NSI+V2lkZ2V0IGJ1aWxkKCk8L3RleHQ+PC9nPjwhLS1NRDU9W2I0YWE1MTcwNmNmYzQzYmFkZDZmZGVmZGI4ZWI3NTRlXQpjbGFzcyBibGFja2phY2thcHA6OnNlcnZpY2VzOjphcGlfc2VydmljZS5kYXJ0OjpBcGlTZXJ2aWNlLS0+PGcgaWQ9ImVsZW1fYmxhY2tqYWNrYXBwOjpzZXJ2aWNlczo6YXBpX3NlcnZpY2UuZGFydDo6QXBpU2VydmljZSI+PHJlY3QgY29kZUxpbmU9IjE1MCIgZmlsbD0iI0YxRjFGMSIgaGVpZ2h0PSI5Mi45NTMxIiBpZD0iYmxhY2tqYWNrYXBwOjpzZXJ2aWNlczo6YXBpX3NlcnZpY2UuZGFydDo6QXBpU2VydmljZSIgcng9IjIuNSIgcnk9IjIuNSIgc3R5bGU9InN0cm9rZTojMTgxODE4O3N0cm9rZS13aWR0aDowLjU7IiB3aWR0aD0iMjY3IiB4PSI0NDU3LjUiIHk9IjM5Ii8+PGVsbGlwc2UgY3g9IjQ1NTEuNzUiIGN5PSI1NSIgZmlsbD0iI0FERDFCMiIgcng9IjExIiByeT0iMTEiIHN0eWxlPSJzdHJva2U6IzE4MTgxODtzdHJva2Utd2lkdGg6MS4wOyIvPjxwYXRoIGQ9Ik00NTQ5LjM3NSw1OS4yNSBMNDU0OS4zNzUsNjEgTDQ1NTQuMzEyNSw2MSBMNDU1NC4zMTI1LDU5LjI1IEw0NTQ5LjM3NSw1OS4yNSBaIE00NTUwLjA2MjUsNTkuOTM3NSBRNDU1MC4wNjI1LDU5LjkzNzUgNDU1MC4wNjI1LDUwLjc1IEw0NTQ4LjMxMjUsNTAuNzUgUTQ1NDguMzEyNSw1MC43NSA0NTQ4LjMxMjUsNTkuOTM3NSBMNDU1MC4wNjI1LDU5LjkzNzUgWiBNNDU1My42MjUsNTkuOTM3NSBMNDU1NS4zNzUsNTkuOTM3NSBRNDU1NS4zNzUsNTkuOTM3NSA0NTU1LjM3NSw1Ny4xMjUgTDQ1NTMuNjI1LDU3LjEyNSBRNDU1My42MjUsNTcuMTI1IDQ1NTMuNjI1LDU5LjkzNzUgWiBNNDU1My42MjUsNTAuNzUgUTQ1NTMuNjI1LDUwLjc1IDQ1NTMuNjI1LDUzLjU2MjUgTDQ1NTUuMzc1LDUzLjU2MjUgUTQ1NTUuMzc1LDUzLjU2MjUgNDU1NS4zNzUsNTAuNzUgTDQ1NTMuNjI1LDUwLjc1IFogTTQ1NDkuMzc1LDUxLjQzNzUgTDQ1NTQuMzEyNSw1MS40Mzc1IEw0NTU0LjMxMjUsNDkuNjg3NSBMNDU0OS4zNzUsNDkuNjg3NSBMNDU0OS4zNzUsNTEuNDM3NSBaICIgZmlsbD0iIzAwMDAwMCIvPjx0ZXh0IGZpbGw9IiMwMDAwMDAiIGZvbnQtZmFtaWx5PSJzYW5zLXNlcmlmIiBmb250LXNpemU9IjE0IiBsZW5ndGhBZGp1c3Q9InNwYWNpbmciIHRleHRMZW5ndGg9IjcwIiB4PSI0NTcyLjI1IiB5PSI2MC43NDIyIj5BcGlTZXJ2aWNlPC90ZXh0PjxsaW5lIHN0eWxlPSJzdHJva2U6IzE4MTgxODtzdHJva2Utd2lkdGg6MC41OyIgeDE9IjQ0NTguNSIgeDI9IjQ3MjMuNSIgeTE9IjcxIiB5Mj0iNzEiLz48ZWxsaXBzZSBjeD0iNDQ2OC41IiBjeT0iODIiIGZpbGw9Im5vbmUiIHJ4PSIzIiByeT0iMyIgc3R5bGU9InN0cm9rZTojMDM4MDQ4O3N0cm9rZS13aWR0aDoxLjA7Ii8+PHRleHQgZmlsbD0iIzAwMDAwMCIgZm9udC1mYW1pbHk9InNhbnMtc2VyaWYiIGZvbnQtc2l6ZT0iMTQiIGxlbmd0aEFkanVzdD0ic3BhY2luZyIgdGV4dC1kZWNvcmF0aW9uPSJ1bmRlcmxpbmUiIHRleHRMZW5ndGg9Ijk4IiB4PSI0NDc3LjUiIHk9Ijg4LjIzNDQiPlN0cmluZyBiYXNlVXJsPC90ZXh0PjxsaW5lIHN0eWxlPSJzdHJva2U6IzE4MTgxODtzdHJva2Utd2lkdGg6MC41OyIgeDE9IjQ0NTguNSIgeDI9IjQ3MjMuNSIgeTE9IjkzLjk4NDQiIHkyPSI5My45ODQ0Ii8+PHJlY3QgZmlsbD0iI0YyNEQ1QyIgaGVpZ2h0PSI2IiBzdHlsZT0ic3Ryb2tlOiNDODI5MzA7c3Ryb2tlLXdpZHRoOjEuMDsiIHdpZHRoPSI2IiB4PSI0NDY1LjUiIHk9IjEwMS45ODQ0Ii8+PHRleHQgZmlsbD0iIzAwMDAwMCIgZm9udC1mYW1pbHk9InNhbnMtc2VyaWYiIGZvbnQtc2l6ZT0iMTQiIGxlbmd0aEFkanVzdD0ic3BhY2luZyIgdGV4dExlbmd0aD0iNzIiIHg9IjQ0NzcuNSIgeT0iMTExLjIxODgiPlVyaSBfdXJsKCk8L3RleHQ+PGVsbGlwc2UgY3g9IjQ0NjguNSIgY3k9IjExOS45Njg4IiBmaWxsPSIjODRCRTg0IiByeD0iMyIgcnk9IjMiIHN0eWxlPSJzdHJva2U6IzAzODA0ODtzdHJva2Utd2lkdGg6MS4wOyIvPjx0ZXh0IGZpbGw9IiMwMDAwMDAiIGZvbnQtZmFtaWx5PSJzYW5zLXNlcmlmIiBmb250LXNpemU9IjE0IiBsZW5ndGhBZGp1c3Q9InNwYWNpbmciIHRleHRMZW5ndGg9IjI0MSIgeD0iNDQ3Ny41IiB5PSIxMjYuMjAzMSI+RnV0dXJlJmx0O01hcCZsdDtTdHJpbmcsIGR5bmFtaWMmZ3Q7Jmd0OyBnZXQoKTwvdGV4dD48L2c+PCEtLU1ENT1bZDIxZDMyNmMzNDdlOGY2YjRjZDVkMjhiNjlkYjNjNDldCmNsYXNzIGJsYWNramFja2FwcDo6c2VydmljZXM6OmRlY2tfc2VydmljZS5kYXJ0OjpEZWNrU2VydmljZS0tPjxnIGlkPSJlbGVtX2JsYWNramFja2FwcDo6c2VydmljZXM6OmRlY2tfc2VydmljZS5kYXJ0OjpEZWNrU2VydmljZSI+PHJlY3QgY29kZUxpbmU9IjE1NiIgZmlsbD0iI0YxRjFGMSIgaGVpZ2h0PSI0OCIgaWQ9ImJsYWNramFja2FwcDo6c2VydmljZXM6OmRlY2tfc2VydmljZS5kYXJ0OjpEZWNrU2VydmljZSIgcng9IjIuNSIgcnk9IjIuNSIgc3R5bGU9InN0cm9rZTojMTgxODE4O3N0cm9rZS13aWR0aDowLjU7IiB3aWR0aD0iMTA5IiB4PSI0NTM2LjUiIHk9IjMxNy41Ii8+PGVsbGlwc2UgY3g9IjQ1NTEuNSIgY3k9IjMzMy41IiBmaWxsPSIjQUREMUIyIiByeD0iMTEiIHJ5PSIxMSIgc3R5bGU9InN0cm9rZTojMTgxODE4O3N0cm9rZS13aWR0aDoxLjA7Ii8+PHBhdGggZD0iTTQ1NDkuMTI1LDMzNy43NSBMNDU0OS4xMjUsMzM5LjUgTDQ1NTQuMDYyNSwzMzkuNSBMNDU1NC4wNjI1LDMzNy43NSBMNDU0OS4xMjUsMzM3Ljc1IFogTTQ1NDkuODEyNSwzMzguNDM3NSBRNDU0OS44MTI1LDMzOC40Mzc1IDQ1NDkuODEyNSwzMjkuMjUgTDQ1NDguMDYyNSwzMjkuMjUgUTQ1NDguMDYyNSwzMjkuMjUgNDU0OC4wNjI1LDMzOC40Mzc1IEw0NTQ5LjgxMjUsMzM4LjQzNzUgWiBNNDU1My4zNzUsMzM4LjQzNzUgTDQ1NTUuMTI1LDMzOC40Mzc1IFE0NTU1LjEyNSwzMzguNDM3NSA0NTU1LjEyNSwzMzUuNjI1IEw0NTUzLjM3NSwzMzUuNjI1IFE0NTUzLjM3NSwzMzUuNjI1IDQ1NTMuMzc1LDMzOC40Mzc1IFogTTQ1NTMuMzc1LDMyOS4yNSBRNDU1My4zNzUsMzI5LjI1IDQ1NTMuMzc1LDMzMi4wNjI1IEw0NTU1LjEyNSwzMzIuMDYyNSBRNDU1NS4xMjUsMzMyLjA2MjUgNDU1NS4xMjUsMzI5LjI1IEw0NTUzLjM3NSwzMjkuMjUgWiBNNDU0OS4xMjUsMzI5LjkzNzUgTDQ1NTQuMDYyNSwzMjkuOTM3NSBMNDU1NC4wNjI1LDMyOC4xODc1IEw0NTQ5LjEyNSwzMjguMTg3NSBMNDU0OS4xMjUsMzI5LjkzNzUgWiAiIGZpbGw9IiMwMDAwMDAiLz48dGV4dCBmaWxsPSIjMDAwMDAwIiBmb250LWZhbWlseT0ic2Fucy1zZXJpZiIgZm9udC1zaXplPSIxNCIgbGVuZ3RoQWRqdXN0PSJzcGFjaW5nIiB0ZXh0TGVuZ3RoPSI3NyIgeD0iNDU2NS41IiB5PSIzMzkuMjQyMiI+RGVja1NlcnZpY2U8L3RleHQ+PGxpbmUgc3R5bGU9InN0cm9rZTojMTgxODE4O3N0cm9rZS13aWR0aDowLjU7IiB4MT0iNDUzNy41IiB4Mj0iNDY0NC41IiB5MT0iMzQ5LjUiIHkyPSIzNDkuNSIvPjxsaW5lIHN0eWxlPSJzdHJva2U6IzE4MTgxODtzdHJva2Utd2lkdGg6MC41OyIgeDE9IjQ1MzcuNSIgeDI9IjQ2NDQuNSIgeTE9IjM1Ny41IiB5Mj0iMzU3LjUiLz48L2c+PCEtLU1ENT1bYmUxZjNkNTE4OWRiZTliZDI1M2Y0ZGI4YjhkYmY2N2RdCnJldmVyc2UgbGluayBibGFja2phY2thcHA6OmFwaTo6Y2FyZHZhbHVlLmRhcnQ6OkNhcmRUeXBlIHRvIGJsYWNramFja2FwcDo6YXBpOjpjYXJkdmFsdWUuZGFydDo6Q2FyZFR5cGUtLT48ZyBpZD0ibGlua19ibGFja2phY2thcHA6OmFwaTo6Y2FyZHZhbHVlLmRhcnQ6OkNhcmRUeXBlX2JsYWNramFja2FwcDo6YXBpOjpjYXJkdmFsdWUuZGFydDo6Q2FyZFR5cGUiPjxwYXRoIGNvZGVMaW5lPSIyMSIgZD0iTTQ2OC4zLDMwMi45OCBDNDgxLjYzLDMwOS40NyA0OTAuNSwzMjIuMzEgNDkwLjUsMzQxLjUgQzQ5MC41LDM2Ni4zMSA0NzUuNjgsMzgwLjUxIDQ1NS41NSwzODQuMDkgIiBmaWxsPSJub25lIiBpZD0iYmxhY2tqYWNrYXBwOjphcGk6OmNhcmR2YWx1ZS5kYXJ0OjpDYXJkVHlwZS1iYWNrdG8tYmxhY2tqYWNrYXBwOjphcGk6OmNhcmR2YWx1ZS5kYXJ0OjpDYXJkVHlwZSIgc3R5bGU9InN0cm9rZTojMTgxODE4O3N0cm9rZS13aWR0aDoxLjA7Ii8+PHBvbHlnb24gZmlsbD0ibm9uZSIgcG9pbnRzPSI0NTUuNTUsMjk4LjkxLDQ2MC4wNDgsMzA0LjU0NjMsNDY2Ljk4MDgsMzAyLjU2Miw0NjIuNDgyNywyOTYuOTI1OCw0NTUuNTUsMjk4LjkxIiBzdHlsZT0ic3Ryb2tlOiMxODE4MTg7c3Ryb2tlLXdpZHRoOjEuMDsiLz48L2c+PCEtLU1ENT1bZWYwOThkNTQyYjI5YWZkNDA3YWNkNmM3YzZjNWRkMWFdCnJldmVyc2UgbGluayBkYXJ0Ojpjb3JlOjpFbnVtIHRvIGJsYWNramFja2FwcDo6YXBpOjpjYXJkdmFsdWUuZGFydDo6Q2FyZFR5cGUtLT48ZyBpZD0ibGlua19kYXJ0Ojpjb3JlOjpFbnVtX2JsYWNramFja2FwcDo6YXBpOjpjYXJkdmFsdWUuZGFydDo6Q2FyZFR5cGUiPjxwYXRoIGNvZGVMaW5lPSIyMiIgZD0iTTM2OSwxMzAuMDUgQzM2OSwxNTEuMTIgMzY5LDE3Ny42OSAzNjksMjA0Ljc5ICIgZmlsbD0ibm9uZSIgaWQ9ImRhcnQ6OmNvcmU6OkVudW0tYmFja3RvLWJsYWNramFja2FwcDo6YXBpOjpjYXJkdmFsdWUuZGFydDo6Q2FyZFR5cGUiIHN0eWxlPSJzdHJva2U6IzE4MTgxODtzdHJva2Utd2lkdGg6MS4wOyIvPjxwb2x5Z29uIGZpbGw9Im5vbmUiIHBvaW50cz0iMzYyLDEyOS45NCwzNjksMTA5Ljk0LDM3NiwxMjkuOTQsMzYyLDEyOS45NCIgc3R5bGU9InN0cm9rZTojMTgxODE4O3N0cm9rZS13aWR0aDoxLjA7Ii8+PC9nPjwhLS1NRDU9W2UwMGI2NTc4YWVjNTZjNjQwNmU0YjNkYWQ2ZDA2MmIzXQpyZXZlcnNlIGxpbmsgYmxhY2tqYWNrYXBwOjphcGk6OmNhcmR2YWx1ZS5kYXJ0OjpTdWl0IHRvIGJsYWNramFja2FwcDo6YXBpOjpjYXJkdmFsdWUuZGFydDo6U3VpdC0tPjxnIGlkPSJsaW5rX2JsYWNramFja2FwcDo6YXBpOjpjYXJkdmFsdWUuZGFydDo6U3VpdF9ibGFja2phY2thcHA6OmFwaTo6Y2FyZHZhbHVlLmRhcnQ6OlN1aXQiPjxwYXRoIGNvZGVMaW5lPSIzNCIgZD0iTTI0Mi4yMSwzMDEuNjYgQzI1NS40NywzMDcuNjMgMjY0LjUsMzIwLjkxIDI2NC41LDM0MS41IEMyNjQuNSwzNjguMTIgMjQ5LjQsMzgyLjUyIDIyOS42LDM4NC43MSAiIGZpbGw9Im5vbmUiIGlkPSJibGFja2phY2thcHA6OmFwaTo6Y2FyZHZhbHVlLmRhcnQ6OlN1aXQtYmFja3RvLWJsYWNramFja2FwcDo6YXBpOjpjYXJkdmFsdWUuZGFydDo6U3VpdCIgc3R5bGU9InN0cm9rZTojMTgxODE4O3N0cm9rZS13aWR0aDoxLjA7Ii8+PHBvbHlnb24gZmlsbD0ibm9uZSIgcG9pbnRzPSIyMjkuNiwyOTguMjksMjM0LjM2OTEsMzAzLjY5ODksMjQxLjE5NjEsMzAxLjM3NywyMzYuNDI3MSwyOTUuOTY4MSwyMjkuNiwyOTguMjkiIHN0eWxlPSJzdHJva2U6IzE4MTgxODtzdHJva2Utd2lkdGg6MS4wOyIvPjwvZz48IS0tTUQ1PVsxNGJhY2I5ZjFjZWM1YjAwZGYyNzIyNzYyMGNlOGRjYl0KcmV2ZXJzZSBsaW5rIGRhcnQ6OmNvcmU6OkVudW0gdG8gYmxhY2tqYWNrYXBwOjphcGk6OmNhcmR2YWx1ZS5kYXJ0OjpTdWl0LS0+PGcgaWQ9ImxpbmtfZGFydDo6Y29yZTo6RW51bV9ibGFja2phY2thcHA6OmFwaTo6Y2FyZHZhbHVlLmRhcnQ6OlN1aXQiPjxwYXRoIGNvZGVMaW5lPSIzNSIgZD0iTTMyMS40NCwxMTYuMTkgQzMwMi41MywxMjkuMzkgMjgxLjQyLDE0Ni4wMSAyNjUsMTY0IEMyMzcuNjQsMTkzLjk4IDIxMy4zOSwyMzEuODkgMTk0LjgzLDI2NC44OCAiIGZpbGw9Im5vbmUiIGlkPSJkYXJ0Ojpjb3JlOjpFbnVtLWJhY2t0by1ibGFja2phY2thcHA6OmFwaTo6Y2FyZHZhbHVlLmRhcnQ6OlN1aXQiIHN0eWxlPSJzdHJva2U6IzE4MTgxODtzdHJva2Utd2lkdGg6MS4wOyIvPjxwb2x5Z29uIGZpbGw9Im5vbmUiIHBvaW50cz0iMzE3LjgxLDExMC4xOSwzMzguMzIsMTA0Ljg3LDMyNS42MSwxMjEuODIsMzE3LjgxLDExMC4xOSIgc3R5bGU9InN0cm9rZTojMTgxODE4O3N0cm9rZS13aWR0aDoxLjA7Ii8+PC9nPjwhLS1NRDU9WzlhZDA2MWRiYmY1ODZhMjYzMDRjMmM3YWRlN2M1NmFjXQpyZXZlcnNlIGxpbmsgYmxhY2tqYWNrYXBwOjphcGk6OnBsYXlpbmdjYXJkLmRhcnQ6OlBsYXlpbmdDYXJkIHRvIGJsYWNramFja2FwcDo6YXBpOjpjYXJkdmFsdWUuZGFydDo6U3VpdC0tPjxnIGlkPSJsaW5rX2JsYWNramFja2FwcDo6YXBpOjpwbGF5aW5nY2FyZC5kYXJ0OjpQbGF5aW5nQ2FyZF9ibGFja2phY2thcHA6OmFwaTo6Y2FyZHZhbHVlLmRhcnQ6OlN1aXQiPjxwYXRoIGNvZGVMaW5lPSI0MiIgZD0iTTE2OS43NywxMzcuODIgQzE2Ny40NywxNzQuMjggMTY0LjM1LDIyMy44NiAxNjEuNzcsMjY0Ljg1ICIgZmlsbD0ibm9uZSIgaWQ9ImJsYWNramFja2FwcDo6YXBpOjpwbGF5aW5nY2FyZC5kYXJ0OjpQbGF5aW5nQ2FyZC1iYWNrdG8tYmxhY2tqYWNrYXBwOjphcGk6OmNhcmR2YWx1ZS5kYXJ0OjpTdWl0IiBzdHlsZT0ic3Ryb2tlOiMxODE4MTg7c3Ryb2tlLXdpZHRoOjEuMDsiLz48cG9seWdvbiBmaWxsPSJub25lIiBwb2ludHM9IjE3MC42LDEyNC41MywxNjYuMjI1NywxMzAuMjYyOCwxNjkuODM1LDEzNi41MDU2LDE3NC4yMDk0LDEzMC43NzI4LDE3MC42LDEyNC41MyIgc3R5bGU9InN0cm9rZTojMTgxODE4O3N0cm9rZS13aWR0aDoxLjA7Ii8+PC9nPjwhLS1NRDU9WzJhNjk2ODU1OTIzZjA1ZjgwNGE1ZjVjYTY4NWUxY2JiXQpyZXZlcnNlIGxpbmsgYmxhY2tqYWNrYXBwOjphcGk6OnBsYXlpbmdjYXJkLmRhcnQ6OlBsYXlpbmdDYXJkIHRvIGJsYWNramFja2FwcDo6YXBpOjpjYXJkdmFsdWUuZGFydDo6Q2FyZFR5cGUtLT48ZyBpZD0ibGlua19ibGFja2phY2thcHA6OmFwaTo6cGxheWluZ2NhcmQuZGFydDo6UGxheWluZ0NhcmRfYmxhY2tqYWNrYXBwOjphcGk6OmNhcmR2YWx1ZS5kYXJ0OjpDYXJkVHlwZSI+PHBhdGggY29kZUxpbmU9IjQzIiBkPSJNMjM0LjQ1LDEzMy4yMiBDMjQ1LjI0LDE0Mi43OSAyNTUuOTIsMTUzLjI1IDI2NSwxNjQgQzI3NS42NywxNzYuNjMgMjg1LjksMTkwLjUgMjk1LjQ5LDIwNC43MyAiIGZpbGw9Im5vbmUiIGlkPSJibGFja2phY2thcHA6OmFwaTo6cGxheWluZ2NhcmQuZGFydDo6UGxheWluZ0NhcmQtYmFja3RvLWJsYWNramFja2FwcDo6YXBpOjpjYXJkdmFsdWUuZGFydDo6Q2FyZFR5cGUiIHN0eWxlPSJzdHJva2U6IzE4MTgxODtzdHJva2Utd2lkdGg6MS4wOyIvPjxwb2x5Z29uIGZpbGw9Im5vbmUiIHBvaW50cz0iMjI0LjU0LDEyNC42OSwyMjYuNDc3NSwxMzEuNjM1OSwyMzMuNjM0MywxMzIuNTE5LDIzMS42OTY4LDEyNS41NzMxLDIyNC41NCwxMjQuNjkiIHN0eWxlPSJzdHJva2U6IzE4MTgxODtzdHJva2Utd2lkdGg6MS4wOyIvPjwvZz48IS0tTUQ1PVsxMGMwYWUzZjMxMGQwZjIzYmM2NThjZjc0MzZhZDRkYV0KcmV2ZXJzZSBsaW5rIGZsdXR0ZXI6OnNyYzo6d2lkZ2V0czo6ZnJhbWV3b3JrLmRhcnQ6OlN0YXRlbGVzc1dpZGdldCB0byBibGFja2phY2thcHA6OmNvbXBvbmVudHM6OmNhcmRiYWNrLmRhcnQ6OkNhcmRCYWNrLS0+PGcgaWQ9ImxpbmtfZmx1dHRlcjo6c3JjOjp3aWRnZXRzOjpmcmFtZXdvcmsuZGFydDo6U3RhdGVsZXNzV2lkZ2V0X2JsYWNramFja2FwcDo6Y29tcG9uZW50czo6Y2FyZGJhY2suZGFydDo6Q2FyZEJhY2siPjxwYXRoIGNvZGVMaW5lPSI1MCIgZD0iTTIxMTYuMzIsODkuMDUgQzE5MjcuNzIsOTUuMzYgMTQ5Mi43NywxMTQuOSAxMzU0LDE2NCBDMTI2Ny4yLDE5NC43MSAxMTgxLjMsMjYwLjQ2IDExMzIuMDcsMzAyLjQ3ICIgZmlsbD0ibm9uZSIgaWQ9ImZsdXR0ZXI6OnNyYzo6d2lkZ2V0czo6ZnJhbWV3b3JrLmRhcnQ6OlN0YXRlbGVzc1dpZGdldC1iYWNrdG8tYmxhY2tqYWNrYXBwOjpjb21wb25lbnRzOjpjYXJkYmFjay5kYXJ0OjpDYXJkQmFjayIgc3R5bGU9InN0cm9rZTojMTgxODE4O3N0cm9rZS13aWR0aDoxLjA7Ii8+PHBvbHlnb24gZmlsbD0ibm9uZSIgcG9pbnRzPSIyMTE2LjI0LDgyLjA0LDIxMzYuNDYsODguMzksMjExNi43LDk2LjA0LDIxMTYuMjQsODIuMDQiIHN0eWxlPSJzdHJva2U6IzE4MTgxODtzdHJva2Utd2lkdGg6MS4wOyIvPjwvZz48IS0tTUQ1PVsyZjQxMDkzNWFlMDNkOWYzMzEwYTI2ZmFlZDM1YWU5NF0KcmV2ZXJzZSBsaW5rIGZsdXR0ZXI6OnNyYzo6d2lkZ2V0czo6ZnJhbWV3b3JrLmRhcnQ6OlN0YXRlbGVzc1dpZGdldCB0byBibGFja2phY2thcHA6OmNvbXBvbmVudHM6OmNhcmR0ZW1wbGF0ZS5kYXJ0OjpDYXJkVGVtcGxhdGUtLT48ZyBpZD0ibGlua19mbHV0dGVyOjpzcmM6OndpZGdldHM6OmZyYW1ld29yay5kYXJ0OjpTdGF0ZWxlc3NXaWRnZXRfYmxhY2tqYWNrYXBwOjpjb21wb25lbnRzOjpjYXJkdGVtcGxhdGUuZGFydDo6Q2FyZFRlbXBsYXRlIj48cGF0aCBjb2RlTGluZT0iNTgiIGQ9Ik0yMTE2LjEyLDg2LjY5IEMyMDA4LjE5LDg5Ljc3IDE4MjIuNDIsMTA0LjM1IDE2NzYsMTY0IEMxNjAwLjY3LDE5NC42OSAxNTI2LjkxLDI1My41MSAxNDgwLjc5LDI5NC43OSAiIGZpbGw9Im5vbmUiIGlkPSJmbHV0dGVyOjpzcmM6OndpZGdldHM6OmZyYW1ld29yay5kYXJ0OjpTdGF0ZWxlc3NXaWRnZXQtYmFja3RvLWJsYWNramFja2FwcDo6Y29tcG9uZW50czo6Y2FyZHRlbXBsYXRlLmRhcnQ6OkNhcmRUZW1wbGF0ZSIgc3R5bGU9InN0cm9rZTojMTgxODE4O3N0cm9rZS13aWR0aDoxLjA7Ii8+PHBvbHlnb24gZmlsbD0ibm9uZSIgcG9pbnRzPSIyMTE2LjE2LDc5LjY5LDIxMzYuMzEsODYuMjIsMjExNi40OCw5My42OCwyMTE2LjE2LDc5LjY5IiBzdHlsZT0ic3Ryb2tlOiMxODE4MTg7c3Ryb2tlLXdpZHRoOjEuMDsiLz48L2c+PCEtLU1ENT1bNTM4MjFhZTkwYWEwODkyZjYzYjFlNjc1ZmQ1YzhmN2NdCnJldmVyc2UgbGluayBmbHV0dGVyOjpzcmM6OndpZGdldHM6OmZyYW1ld29yay5kYXJ0OjpTdGF0ZWxlc3NXaWRnZXQgdG8gYmxhY2tqYWNrYXBwOjpjb21wb25lbnRzOjpnYW1lYm9hcmQuZGFydDo6R2FtZUJvYXJkLS0+PGcgaWQ9ImxpbmtfZmx1dHRlcjo6c3JjOjp3aWRnZXRzOjpmcmFtZXdvcmsuZGFydDo6U3RhdGVsZXNzV2lkZ2V0X2JsYWNramFja2FwcDo6Y29tcG9uZW50czo6Z2FtZWJvYXJkLmRhcnQ6OkdhbWVCb2FyZCI+PHBhdGggY29kZUxpbmU9IjY0IiBkPSJNMjExNi4wNiw5MC40NiBDMjA0Ni4wNyw5Ny4zOSAxOTQ4Ljg2LDExNS43OSAxODc4LDE2NCBDMTgyMy45NiwyMDAuNzcgMTc4Ni4zMywyNjkuNzUgMTc2Ny45MiwzMDkuNzEgIiBmaWxsPSJub25lIiBpZD0iZmx1dHRlcjo6c3JjOjp3aWRnZXRzOjpmcmFtZXdvcmsuZGFydDo6U3RhdGVsZXNzV2lkZ2V0LWJhY2t0by1ibGFja2phY2thcHA6OmNvbXBvbmVudHM6OmdhbWVib2FyZC5kYXJ0OjpHYW1lQm9hcmQiIHN0eWxlPSJzdHJva2U6IzE4MTgxODtzdHJva2Utd2lkdGg6MS4wOyIvPjxwb2x5Z29uIGZpbGw9Im5vbmUiIHBvaW50cz0iMjExNS44Niw4My40NSwyMTM2LjM5LDg4LjY5LDIxMTcuMDgsOTcuNCwyMTE1Ljg2LDgzLjQ1IiBzdHlsZT0ic3Ryb2tlOiMxODE4MTg7c3Ryb2tlLXdpZHRoOjEuMDsiLz48L2c+PCEtLU1ENT1bOWNkNWQ2YzNlYzJmZDg0MzQwNmYzNWU3YjY5MDI4ZmFdCnJldmVyc2UgbGluayBmbHV0dGVyOjpzcmM6OndpZGdldHM6OmZyYW1ld29yay5kYXJ0OjpTdGF0ZWxlc3NXaWRnZXQgdG8gYmxhY2tqYWNrYXBwOjptYWluLmRhcnQ6Ok15QXBwLS0+PGcgaWQ9ImxpbmtfZmx1dHRlcjo6c3JjOjp3aWRnZXRzOjpmcmFtZXdvcmsuZGFydDo6U3RhdGVsZXNzV2lkZ2V0X2JsYWNramFja2FwcDo6bWFpbi5kYXJ0OjpNeUFwcCI+PHBhdGggY29kZUxpbmU9IjcwIiBkPSJNMjE2Ni42LDEyMy43IEMyMTUzLjYyLDEzNi40IDIxMzkuMSwxNTAuNzQgMjEyNiwxNjQgQzIwNzYuMDYsMjE0LjU1IDIwMTkuMTIsMjc0LjUxIDE5ODUuNzIsMzA5LjkzICIgZmlsbD0ibm9uZSIgaWQ9ImZsdXR0ZXI6OnNyYzo6d2lkZ2V0czo6ZnJhbWV3b3JrLmRhcnQ6OlN0YXRlbGVzc1dpZGdldC1iYWNrdG8tYmxhY2tqYWNrYXBwOjptYWluLmRhcnQ6Ok15QXBwIiBzdHlsZT0ic3Ryb2tlOiMxODE4MTg7c3Ryb2tlLXdpZHRoOjEuMDsiLz48cG9seWdvbiBmaWxsPSJub25lIiBwb2ludHM9IjIxNjEuNzUsMTE4LjY1LDIxODAuOTUsMTA5LjcxLDIxNzEuNTIsMTI4LjY4LDIxNjEuNzUsMTE4LjY1IiBzdHlsZT0ic3Ryb2tlOiMxODE4MTg7c3Ryb2tlLXdpZHRoOjEuMDsiLz48L2c+PCEtLU1ENT1bM2I2MzUzYWM0MGExNDc2Zjg5MWFiMGZkZjQ1MGU2NDhdCnJldmVyc2UgbGluayBibGFja2phY2thcHA6Om1vZGVsczo6Y2FyZF9tb2RlbC5kYXJ0OjpTdWl0IHRvIGJsYWNramFja2FwcDo6bW9kZWxzOjpjYXJkX21vZGVsLmRhcnQ6OlN1aXQtLT48ZyBpZD0ibGlua19ibGFja2phY2thcHA6Om1vZGVsczo6Y2FyZF9tb2RlbC5kYXJ0OjpTdWl0X2JsYWNramFja2FwcDo6bW9kZWxzOjpjYXJkX21vZGVsLmRhcnQ6OlN1aXQiPjxwYXRoIGNvZGVMaW5lPSI4OCIgZD0iTTY4OC4yMSwzMDEuNjYgQzcwMS40NywzMDcuNjMgNzEwLjUsMzIwLjkxIDcxMC41LDM0MS41IEM3MTAuNSwzNjguMTIgNjk1LjQsMzgyLjUyIDY3NS42LDM4NC43MSAiIGZpbGw9Im5vbmUiIGlkPSJibGFja2phY2thcHA6Om1vZGVsczo6Y2FyZF9tb2RlbC5kYXJ0OjpTdWl0LWJhY2t0by1ibGFja2phY2thcHA6Om1vZGVsczo6Y2FyZF9tb2RlbC5kYXJ0OjpTdWl0IiBzdHlsZT0ic3Ryb2tlOiMxODE4MTg7c3Ryb2tlLXdpZHRoOjEuMDsiLz48cG9seWdvbiBmaWxsPSJub25lIiBwb2ludHM9IjY3NS42LDI5OC4yOSw2ODAuMzY5MSwzMDMuNjk4OSw2ODcuMTk2MSwzMDEuMzc3LDY4Mi40MjcxLDI5NS45NjgxLDY3NS42LDI5OC4yOSIgc3R5bGU9InN0cm9rZTojMTgxODE4O3N0cm9rZS13aWR0aDoxLjA7Ii8+PC9nPjwhLS1NRDU9W2E4ZTdjOWVkM2ZkMmY0Y2E0YTMwNDNlMGVhMWRiMTQxXQpyZXZlcnNlIGxpbmsgZGFydDo6Y29yZTo6RW51bSB0byBibGFja2phY2thcHA6Om1vZGVsczo6Y2FyZF9tb2RlbC5kYXJ0OjpTdWl0LS0+PGcgaWQ9ImxpbmtfZGFydDo6Y29yZTo6RW51bV9ibGFja2phY2thcHA6Om1vZGVsczo6Y2FyZF9tb2RlbC5kYXJ0OjpTdWl0Ij48cGF0aCBjb2RlTGluZT0iODkiIGQ9Ik00MTcuNTEsMTExLjExIEM0NDEuMTQsMTI0LjYyIDQ2OC45MSwxNDIuOTEgNDkwLDE2NCBDNTE5LjMzLDE5My4zMyA1NDQuOTQsMjMxLjU0IDU2NC4zNCwyNjQuOSAiIGZpbGw9Im5vbmUiIGlkPSJkYXJ0Ojpjb3JlOjpFbnVtLWJhY2t0by1ibGFja2phY2thcHA6Om1vZGVsczo6Y2FyZF9tb2RlbC5kYXJ0OjpTdWl0IiBzdHlsZT0ic3Ryb2tlOiMxODE4MTg7c3Ryb2tlLXdpZHRoOjEuMDsiLz48cG9seWdvbiBmaWxsPSJub25lIiBwb2ludHM9IjQxMy44NSwxMTcuMDgsMzk5LjY3LDEwMS4zNCw0MjAuNTcsMTA0LjgsNDEzLjg1LDExNy4wOCIgc3R5bGU9InN0cm9rZTojMTgxODE4O3N0cm9rZS13aWR0aDoxLjA7Ii8+PC9nPjwhLS1NRDU9W2Q1YzJjZTRhNGZkNjhkM2NiYTI5MzUwYTk4YjcyOTYxXQpyZXZlcnNlIGxpbmsgZmx1dHRlcjo6c3JjOjp3aWRnZXRzOjpmcmFtZXdvcmsuZGFydDo6U3RhdGVsZXNzV2lkZ2V0IHRvIGJsYWNramFja2FwcDo6c2NyZWVuczo6Z2FtZV9zY3JlZW4uZGFydDo6R2FtZVNjcmVlbi0tPjxnIGlkPSJsaW5rX2ZsdXR0ZXI6OnNyYzo6d2lkZ2V0czo6ZnJhbWV3b3JrLmRhcnQ6OlN0YXRlbGVzc1dpZGdldF9ibGFja2phY2thcHA6OnNjcmVlbnM6OmdhbWVfc2NyZWVuLmRhcnQ6OkdhbWVTY3JlZW4iPjxwYXRoIGNvZGVMaW5lPSIxMTIiIGQ9Ik0yMjA1LDEyOS45OCBDMjIwNSwxODEuMTQgMjIwNSwyNjQuOCAyMjA1LDMwOS43ICIgZmlsbD0ibm9uZSIgaWQ9ImZsdXR0ZXI6OnNyYzo6d2lkZ2V0czo6ZnJhbWV3b3JrLmRhcnQ6OlN0YXRlbGVzc1dpZGdldC1iYWNrdG8tYmxhY2tqYWNrYXBwOjpzY3JlZW5zOjpnYW1lX3NjcmVlbi5kYXJ0OjpHYW1lU2NyZWVuIiBzdHlsZT0ic3Ryb2tlOiMxODE4MTg7c3Ryb2tlLXdpZHRoOjEuMDsiLz48cG9seWdvbiBmaWxsPSJub25lIiBwb2ludHM9IjIxOTgsMTI5Ljk0LDIyMDUsMTA5Ljk0LDIyMTIsMTI5Ljk0LDIxOTgsMTI5Ljk0IiBzdHlsZT0ic3Ryb2tlOiMxODE4MTg7c3Ryb2tlLXdpZHRoOjEuMDsiLz48L2c+PCEtLU1ENT1bNjIyZjQxMzY5OGFkYzE2ZDQyZWExMDg4MzRlMzU1YWVdCnJldmVyc2UgbGluayBmbHV0dGVyOjpzcmM6OndpZGdldHM6OmZyYW1ld29yay5kYXJ0OjpTdGF0ZWZ1bFdpZGdldCB0byBibGFja2phY2thcHA6OnNjcmVlbnM6OmhvbWVwYWdlLmRhcnQ6OkhvbWVwYWdlLS0+PGcgaWQ9ImxpbmtfZmx1dHRlcjo6c3JjOjp3aWRnZXRzOjpmcmFtZXdvcmsuZGFydDo6U3RhdGVmdWxXaWRnZXRfYmxhY2tqYWNrYXBwOjpzY3JlZW5zOjpob21lcGFnZS5kYXJ0OjpIb21lcGFnZSI+PHBhdGggY29kZUxpbmU9IjExOCIgZD0iTTI0MDguMTYsMTI0LjExIEMyNDIxLjk2LDEzNi43IDI0MzguOTEsMTQ5LjIzIDI0NTcsMTU2IEMyNTAxLjU1LDE3Mi42NiAyODQxLjkyLDE0My44NCAyODg1LDE2NCBDMjk1MC4zOCwxOTQuNTkgMjk5OC44MSwyNjcuOTcgMzAyMi4yNSwzMDkuODUgIiBmaWxsPSJub25lIiBpZD0iZmx1dHRlcjo6c3JjOjp3aWRnZXRzOjpmcmFtZXdvcmsuZGFydDo6U3RhdGVmdWxXaWRnZXQtYmFja3RvLWJsYWNramFja2FwcDo6c2NyZWVuczo6aG9tZXBhZ2UuZGFydDo6SG9tZXBhZ2UiIHN0eWxlPSJzdHJva2U6IzE4MTgxODtzdHJva2Utd2lkdGg6MS4wOyIvPjxwb2x5Z29uIGZpbGw9Im5vbmUiIHBvaW50cz0iMjQwMi44NCwxMjguNywyMzkzLjUyLDEwOS42NywyNDEyLjY4LDExOC43MywyNDAyLjg0LDEyOC43IiBzdHlsZT0ic3Ryb2tlOiMxODE4MTg7c3Ryb2tlLXdpZHRoOjEuMDsiLz48L2c+PCEtLU1ENT1bMDU1OTNlZjYyMmYzOWFkMWUwZTc5MTBmY2Y4MmU1N2FdCnJldmVyc2UgbGluayBibGFja2phY2thcHA6OnNjcmVlbnM6OmhvbWVwYWdlLmRhcnQ6Ol9Ib21lUGFnZVN0YXRlIHRvIGZsdXR0ZXI6OnNyYzo6YW5pbWF0aW9uOjphbmltYXRpb25fY29udHJvbGxlci5kYXJ0OjpBbmltYXRpb25Db250cm9sbGVyLS0+PGcgaWQ9ImxpbmtfYmxhY2tqYWNrYXBwOjpzY3JlZW5zOjpob21lcGFnZS5kYXJ0OjpfSG9tZVBhZ2VTdGF0ZV9mbHV0dGVyOjpzcmM6OmFuaW1hdGlvbjo6YW5pbWF0aW9uX2NvbnRyb2xsZXIuZGFydDo6QW5pbWF0aW9uQ29udHJvbGxlciI+PHBhdGggY29kZUxpbmU9IjEyOSIgZD0iTTMyNjkuODIsNDIwLjYxIEMzMjI4Ljc2LDQ2Ni4zMSAzMTc5LjgsNTIwLjggMzE1Mi42OCw1NTAuOTggIiBmaWxsPSJub25lIiBpZD0iYmxhY2tqYWNrYXBwOjpzY3JlZW5zOjpob21lcGFnZS5kYXJ0OjpfSG9tZVBhZ2VTdGF0ZS1iYWNrdG8tZmx1dHRlcjo6c3JjOjphbmltYXRpb246OmFuaW1hdGlvbl9jb250cm9sbGVyLmRhcnQ6OkFuaW1hdGlvbkNvbnRyb2xsZXIiIHN0eWxlPSJzdHJva2U6IzE4MTgxODtzdHJva2Utd2lkdGg6MS4wOyIvPjxwb2x5Z29uIGZpbGw9Im5vbmUiIHBvaW50cz0iMzI3OC43Miw0MTAuNzEsMzI3MS43MzIyLDQxMi40OTA1LDMyNzAuNjg4MSw0MTkuNjI1NiwzMjc3LjY3NTksNDE3Ljg0NTEsMzI3OC43Miw0MTAuNzEiIHN0eWxlPSJzdHJva2U6IzE4MTgxODtzdHJva2Utd2lkdGg6MS4wOyIvPjwvZz48IS0tTUQ1PVsxMjJmY2M4MTg2NmRhN2QzZjJiYTg5M2Q2ZDNhODI5Y10KcmV2ZXJzZSBsaW5rIGJsYWNramFja2FwcDo6c2NyZWVuczo6aG9tZXBhZ2UuZGFydDo6X0hvbWVQYWdlU3RhdGUgdG8gZmx1dHRlcjo6c3JjOjphbmltYXRpb246OmFuaW1hdGlvbi5kYXJ0OjpBbmltYXRpb248ZG91YmxlPi0tPjxnIGlkPSJsaW5rX2JsYWNramFja2FwcDo6c2NyZWVuczo6aG9tZXBhZ2UuZGFydDo6X0hvbWVQYWdlU3RhdGVfZmx1dHRlcjo6c3JjOjphbmltYXRpb246OmFuaW1hdGlvbi5kYXJ0OjpBbmltYXRpb24mbHQ7ZG91YmxlJmd0OyI+PHBhdGggY29kZUxpbmU9IjEzMCIgZD0iTTM0MDEuMTgsNDIxLjE5IEMzNDM2LjYyLDQ2Ni43NyAzNDc4LjczLDUyMC45MyAzNTAyLjEsNTUwLjk4ICIgZmlsbD0ibm9uZSIgaWQ9ImJsYWNramFja2FwcDo6c2NyZWVuczo6aG9tZXBhZ2UuZGFydDo6X0hvbWVQYWdlU3RhdGUtYmFja3RvLWZsdXR0ZXI6OnNyYzo6YW5pbWF0aW9uOjphbmltYXRpb24uZGFydDo6QW5pbWF0aW9uJmx0O2RvdWJsZSZndDsiIHN0eWxlPSJzdHJva2U6IzE4MTgxODtzdHJva2Utd2lkdGg6MS4wOyIvPjxwb2x5Z29uIGZpbGw9Im5vbmUiIHBvaW50cz0iMzM5My4wMyw0MTAuNzEsMzM5My41NTM1LDQxNy45MDIxLDM0MDAuMzkzNiw0MjAuMTg1MSwzMzk5Ljg3MDIsNDEyLjk5MywzMzkzLjAzLDQxMC43MSIgc3R5bGU9InN0cm9rZTojMTgxODE4O3N0cm9rZS13aWR0aDoxLjA7Ii8+PC9nPjwhLS1NRDU9W2M4NmMwYjc3N2Q4MTIxOTNlMGQxZWMzM2VmZjJmMzJmXQpyZXZlcnNlIGxpbmsgYmxhY2tqYWNrYXBwOjpzY3JlZW5zOjpob21lcGFnZS5kYXJ0OjpfSG9tZVBhZ2VTdGF0ZSB0byBmbHV0dGVyOjpzcmM6OmFuaW1hdGlvbjo6YW5pbWF0aW9uLmRhcnQ6OkFuaW1hdGlvblN0YXR1cy0tPjxnIGlkPSJsaW5rX2JsYWNramFja2FwcDo6c2NyZWVuczo6aG9tZXBhZ2UuZGFydDo6X0hvbWVQYWdlU3RhdGVfZmx1dHRlcjo6c3JjOjphbmltYXRpb246OmFuaW1hdGlvbi5kYXJ0OjpBbmltYXRpb25TdGF0dXMiPjxwYXRoIGNvZGVMaW5lPSIxMzEiIGQ9Ik0zMzQwLDQyMy43OSBDMzM0MCw0NjguODEgMzM0MCw1MjEuNSAzMzQwLDU1MC45OCAiIGZpbGw9Im5vbmUiIGlkPSJibGFja2phY2thcHA6OnNjcmVlbnM6OmhvbWVwYWdlLmRhcnQ6Ol9Ib21lUGFnZVN0YXRlLWJhY2t0by1mbHV0dGVyOjpzcmM6OmFuaW1hdGlvbjo6YW5pbWF0aW9uLmRhcnQ6OkFuaW1hdGlvblN0YXR1cyIgc3R5bGU9InN0cm9rZTojMTgxODE4O3N0cm9rZS13aWR0aDoxLjA7Ii8+PHBvbHlnb24gZmlsbD0ibm9uZSIgcG9pbnRzPSIzMzQwLDQxMC43MSwzMzM2LDQxNi43MSwzMzQwLDQyMi43MSwzMzQ0LDQxNi43MSwzMzQwLDQxMC43MSIgc3R5bGU9InN0cm9rZTojMTgxODE4O3N0cm9rZS13aWR0aDoxLjA7Ii8+PC9nPjwhLS1NRDU9W2ViZjQ1MGI5OTlhYThiMDE1ZWQyZTIyODc0YjE2ZmQ5XQpyZXZlcnNlIGxpbmsgZmx1dHRlcjo6c3JjOjp3aWRnZXRzOjpmcmFtZXdvcmsuZGFydDo6U3RhdGUgdG8gYmxhY2tqYWNrYXBwOjpzY3JlZW5zOjpob21lcGFnZS5kYXJ0OjpfSG9tZVBhZ2VTdGF0ZS0tPjxnIGlkPSJsaW5rX2ZsdXR0ZXI6OnNyYzo6d2lkZ2V0czo6ZnJhbWV3b3JrLmRhcnQ6OlN0YXRlX2JsYWNramFja2FwcDo6c2NyZWVuczo6aG9tZXBhZ2UuZGFydDo6X0hvbWVQYWdlU3RhdGUiPjxwYXRoIGNvZGVMaW5lPSIxMzIiIGQ9Ik0yNTYyLjAxLDg4LjIzIEMyNjk5LjksOTMuMzUgMzA2MS41MywxMTEuNTcgMzE2OCwxNjQgQzMyMTcuOSwxODguNTcgMzI2MS40NywyMzMuNyAzMjkyLjI4LDI3Mi4xOCAiIGZpbGw9Im5vbmUiIGlkPSJmbHV0dGVyOjpzcmM6OndpZGdldHM6OmZyYW1ld29yay5kYXJ0OjpTdGF0ZS1iYWNrdG8tYmxhY2tqYWNrYXBwOjpzY3JlZW5zOjpob21lcGFnZS5kYXJ0OjpfSG9tZVBhZ2VTdGF0ZSIgc3R5bGU9InN0cm9rZTojMTgxODE4O3N0cm9rZS13aWR0aDoxLjA7Ii8+PHBvbHlnb24gZmlsbD0ibm9uZSIgcG9pbnRzPSIyNTYxLjYyLDk1LjIyLDI1NDEuODgsODcuNTEsMjU2Mi4xMSw4MS4yMiwyNTYxLjYyLDk1LjIyIiBzdHlsZT0ic3Ryb2tlOiMxODE4MTg7c3Ryb2tlLXdpZHRoOjEuMDsiLz48L2c+PCEtLU1ENT1bNzVmNGUxNDU2ZTBhNDdiNDI0NDdkMzMxMzI4MGRlYjFdCnJldmVyc2UgbGluayBmbHV0dGVyOjpzcmM6OndpZGdldHM6OnRpY2tlcl9wcm92aWRlci5kYXJ0OjpTaW5nbGVUaWNrZXJQcm92aWRlclN0YXRlTWl4aW4gdG8gYmxhY2tqYWNrYXBwOjpzY3JlZW5zOjpob21lcGFnZS5kYXJ0OjpfSG9tZVBhZ2VTdGF0ZS0tPjxnIGlkPSJsaW5rX2ZsdXR0ZXI6OnNyYzo6d2lkZ2V0czo6dGlja2VyX3Byb3ZpZGVyLmRhcnQ6OlNpbmdsZVRpY2tlclByb3ZpZGVyU3RhdGVNaXhpbl9ibGFja2phY2thcHA6OnNjcmVlbnM6OmhvbWVwYWdlLmRhcnQ6Ol9Ib21lUGFnZVN0YXRlIj48cGF0aCBjb2RlTGluZT0iMTMzIiBkPSJNMzM0MCwxMzAgQzMzNDAsMTY5LjA1IDMzNDAsMjI3LjAyIDMzNDAsMjcyLjI0ICIgZmlsbD0ibm9uZSIgaWQ9ImZsdXR0ZXI6OnNyYzo6d2lkZ2V0czo6dGlja2VyX3Byb3ZpZGVyLmRhcnQ6OlNpbmdsZVRpY2tlclByb3ZpZGVyU3RhdGVNaXhpbi1iYWNrdG8tYmxhY2tqYWNrYXBwOjpzY3JlZW5zOjpob21lcGFnZS5kYXJ0OjpfSG9tZVBhZ2VTdGF0ZSIgc3R5bGU9InN0cm9rZTojMTgxODE4O3N0cm9rZS13aWR0aDoxLjA7Ii8+PHBvbHlnb24gZmlsbD0ibm9uZSIgcG9pbnRzPSIzMzMzLDEyOS45NCwzMzQwLDEwOS45NCwzMzQ3LDEyOS45NCwzMzMzLDEyOS45NCIgc3R5bGU9InN0cm9rZTojMTgxODE4O3N0cm9rZS13aWR0aDoxLjA7Ii8+PC9nPjwhLS1NRDU9W2RkYjNmYjFkOTc3N2FiZGExNjUzMjJiYTk4YmM5ODcxXQpyZXZlcnNlIGxpbmsgZmx1dHRlcjo6c3JjOjp3aWRnZXRzOjpmcmFtZXdvcmsuZGFydDo6U3RhdGVmdWxXaWRnZXQgdG8gYmxhY2tqYWNrYXBwOjpzY3JlZW5zOjpzcGxhc2hzY3JlZW4uZGFydDo6U3BsYXNoU2NyZWVuLS0+PGcgaWQ9ImxpbmtfZmx1dHRlcjo6c3JjOjp3aWRnZXRzOjpmcmFtZXdvcmsuZGFydDo6U3RhdGVmdWxXaWRnZXRfYmxhY2tqYWNrYXBwOjpzY3JlZW5zOjpzcGxhc2hzY3JlZW4uZGFydDo6U3BsYXNoU2NyZWVuIj48cGF0aCBjb2RlTGluZT0iMTM5IiBkPSJNMjM5OC41NiwxMjcuMjYgQzI0MjkuMiwxNzguMTQgMjQ4MC45MiwyNjMuOTkgMjUwOC40NSwzMDkuNyAiIGZpbGw9Im5vbmUiIGlkPSJmbHV0dGVyOjpzcmM6OndpZGdldHM6OmZyYW1ld29yay5kYXJ0OjpTdGF0ZWZ1bFdpZGdldC1iYWNrdG8tYmxhY2tqYWNrYXBwOjpzY3JlZW5zOjpzcGxhc2hzY3JlZW4uZGFydDo6U3BsYXNoU2NyZWVuIiBzdHlsZT0ic3Ryb2tlOiMxODE4MTg7c3Ryb2tlLXdpZHRoOjEuMDsiLz48cG9seWdvbiBmaWxsPSJub25lIiBwb2ludHM9IjIzOTIuNDQsMTMwLjY4LDIzODguMTIsMTA5Ljk0LDI0MDQuNDQsMTIzLjQ2LDIzOTIuNDQsMTMwLjY4IiBzdHlsZT0ic3Ryb2tlOiMxODE4MTg7c3Ryb2tlLXdpZHRoOjEuMDsiLz48L2c+PCEtLU1ENT1bYTNjNDE1YWM4N2EzYTA0ZmE1ZGZjN2FkNjliMjFmN2RdCnJldmVyc2UgbGluayBmbHV0dGVyOjpzcmM6OndpZGdldHM6OmZyYW1ld29yay5kYXJ0OjpTdGF0ZSB0byBibGFja2phY2thcHA6OnNjcmVlbnM6OnNwbGFzaHNjcmVlbi5kYXJ0OjpTdGFydFN0YXRlLS0+PGcgaWQ9ImxpbmtfZmx1dHRlcjo6c3JjOjp3aWRnZXRzOjpmcmFtZXdvcmsuZGFydDo6U3RhdGVfYmxhY2tqYWNrYXBwOjpzY3JlZW5zOjpzcGxhc2hzY3JlZW4uZGFydDo6U3RhcnRTdGF0ZSI+PHBhdGggY29kZUxpbmU9IjE0OCIgZD0iTTI1NjAuODgsMTAwLjczIEMyNTk3Ljg2LDExMi43OCAyNjQ2LjYsMTMzLjEgMjY4MSwxNjQgQzI3MTguNjEsMTk3Ljc4IDI3NDYuMjYsMjQ4LjY1IDI3NjMuMzksMjg3LjEgIiBmaWxsPSJub25lIiBpZD0iZmx1dHRlcjo6c3JjOjp3aWRnZXRzOjpmcmFtZXdvcmsuZGFydDo6U3RhdGUtYmFja3RvLWJsYWNramFja2FwcDo6c2NyZWVuczo6c3BsYXNoc2NyZWVuLmRhcnQ6OlN0YXJ0U3RhdGUiIHN0eWxlPSJzdHJva2U6IzE4MTgxODtzdHJva2Utd2lkdGg6MS4wOyIvPjxwb2x5Z29uIGZpbGw9Im5vbmUiIHBvaW50cz0iMjU1OC43OCwxMDcuNDEsMjU0MS43LDk0Ljg3LDI1NjIuODgsOTQuMDIsMjU1OC43OCwxMDcuNDEiIHN0eWxlPSJzdHJva2U6IzE4MTgxODtzdHJva2Utd2lkdGg6MS4wOyIvPjwvZz48IS0tTUQ1PVszNDE0OThkYmRlODY3ZGVkMzU3NTUyNzBhNGQ0M2RiY10KcmV2ZXJzZSBsaW5rIGJsYWNramFja2FwcDo6c2VydmljZXM6OmFwaV9zZXJ2aWNlLmRhcnQ6OkFwaVNlcnZpY2UgdG8gYmxhY2tqYWNrYXBwOjpzZXJ2aWNlczo6ZGVja19zZXJ2aWNlLmRhcnQ6OkRlY2tTZXJ2aWNlLS0+PGcgaWQ9ImxpbmtfYmxhY2tqYWNrYXBwOjpzZXJ2aWNlczo6YXBpX3NlcnZpY2UuZGFydDo6QXBpU2VydmljZV9ibGFja2phY2thcHA6OnNlcnZpY2VzOjpkZWNrX3NlcnZpY2UuZGFydDo6RGVja1NlcnZpY2UiPjxwYXRoIGNvZGVMaW5lPSIxNTkiIGQ9Ik00NTkxLDE1Mi4yNiBDNDU5MSwyMDYuNDYgNDU5MSwyODAuMjIgNDU5MSwzMTcuMjYgIiBmaWxsPSJub25lIiBpZD0iYmxhY2tqYWNrYXBwOjpzZXJ2aWNlczo6YXBpX3NlcnZpY2UuZGFydDo6QXBpU2VydmljZS1iYWNrdG8tYmxhY2tqYWNrYXBwOjpzZXJ2aWNlczo6ZGVja19zZXJ2aWNlLmRhcnQ6OkRlY2tTZXJ2aWNlIiBzdHlsZT0ic3Ryb2tlOiMxODE4MTg7c3Ryb2tlLXdpZHRoOjEuMDsiLz48cG9seWdvbiBmaWxsPSJub25lIiBwb2ludHM9IjQ1ODQsMTUyLjIsNDU5MSwxMzIuMiw0NTk4LDE1Mi4yLDQ1ODQsMTUyLjIiIHN0eWxlPSJzdHJva2U6IzE4MTgxODtzdHJva2Utd2lkdGg6MS4wOyIvPjwvZz48IS0tTUQ1PVswYzA1ZDJiM2ZmZGJjNzIwZmNkNGU0MjNmMjYwMzQ3Nl0KQHN0YXJ0dW1sDQpzZXQgbmFtZXNwYWNlU2VwYXJhdG9yIDo6DQoNCmNsYXNzICJibGFja2phY2thcHA6OmFwaTo6Y2FyZHZhbHVlLmRhcnQ6OkNhcmRUeXBlIiB7DQogICtpbnQgaW5kZXgNCiAge3N0YXRpY30gK0xpc3Q8Q2FyZFR5cGU+IHZhbHVlcw0KICB7c3RhdGljfSArQ2FyZFR5cGUgb25lDQogIHtzdGF0aWN9ICtDYXJkVHlwZSB0d28NCiAge3N0YXRpY30gK0NhcmRUeXBlIHRocmVlDQogIHtzdGF0aWN9ICtDYXJkVHlwZSBmb3VyDQogIHtzdGF0aWN9ICtDYXJkVHlwZSBmaXZlDQogIHtzdGF0aWN9ICtDYXJkVHlwZSBzaXgNCiAge3N0YXRpY30gK0NhcmRUeXBlIHNldmVuDQogIHtzdGF0aWN9ICtDYXJkVHlwZSBlaWdodA0KICB7c3RhdGljfSArQ2FyZFR5cGUgbmluZQ0KICB7c3RhdGljfSArQ2FyZFR5cGUgdGVuDQogIHtzdGF0aWN9ICtDYXJkVHlwZSBqYWNrDQogIHtzdGF0aWN9ICtDYXJkVHlwZSBxdWVlbg0KICB7c3RhdGljfSArQ2FyZFR5cGUga2luZw0KfQ0KDQoiYmxhY2tqYWNrYXBwOjphcGk6OmNhcmR2YWx1ZS5kYXJ0OjpDYXJkVHlwZSIgby0gLSAiYmxhY2tqYWNrYXBwOjphcGk6OmNhcmR2YWx1ZS5kYXJ0OjpDYXJkVHlwZSINCiJkYXJ0Ojpjb3JlOjpFbnVtIiA8fC0gLSAiYmxhY2tqYWNrYXBwOjphcGk6OmNhcmR2YWx1ZS5kYXJ0OjpDYXJkVHlwZSINCg0KY2xhc3MgImJsYWNramFja2FwcDo6YXBpOjpjYXJkdmFsdWUuZGFydDo6U3VpdCIgew0KICAraW50IGluZGV4DQogIHtzdGF0aWN9ICtMaXN0PFN1aXQ+IHZhbHVlcw0KICB7c3RhdGljfSArU3VpdCBzcGFkZXMNCiAge3N0YXRpY30gK1N1aXQgaGVhcnRzDQogIHtzdGF0aWN9ICtTdWl0IGRpYW1vbmRzDQogIHtzdGF0aWN9ICtTdWl0IGNsdWJzDQogIHtzdGF0aWN9ICtTdWl0IGpva2VyDQp9DQoNCiJibGFja2phY2thcHA6OmFwaTo6Y2FyZHZhbHVlLmRhcnQ6OlN1aXQiIG8tIC0gImJsYWNramFja2FwcDo6YXBpOjpjYXJkdmFsdWUuZGFydDo6U3VpdCINCiJkYXJ0Ojpjb3JlOjpFbnVtIiA8fC0gLSAiYmxhY2tqYWNrYXBwOjphcGk6OmNhcmR2YWx1ZS5kYXJ0OjpTdWl0Ig0KDQpjbGFzcyAiYmxhY2tqYWNrYXBwOjphcGk6OnBsYXlpbmdjYXJkLmRhcnQ6OlBsYXlpbmdDYXJkIiB7DQogICtTdWl0IHN1aXQNCiAgK0NhcmRUeXBlIHZhbHVlDQp9DQoNCiJibGFja2phY2thcHA6OmFwaTo6cGxheWluZ2NhcmQuZGFydDo6UGxheWluZ0NhcmQiIG8tIC0gImJsYWNramFja2FwcDo6YXBpOjpjYXJkdmFsdWUuZGFydDo6U3VpdCINCiJibGFja2phY2thcHA6OmFwaTo6cGxheWluZ2NhcmQuZGFydDo6UGxheWluZ0NhcmQiIG8tIC0gImJsYWNramFja2FwcDo6YXBpOjpjYXJkdmFsdWUuZGFydDo6Q2FyZFR5cGUiDQoNCmNsYXNzICJibGFja2phY2thcHA6OmNvbXBvbmVudHM6OmNhcmRiYWNrLmRhcnQ6OkNhcmRCYWNrIiB7DQogICtkeW5hbWljIGNvbG9yDQogICtXaWRnZXQgYnVpbGQoKQ0KfQ0KDQoiZmx1dHRlcjo6c3JjOjp3aWRnZXRzOjpmcmFtZXdvcmsuZGFydDo6U3RhdGVsZXNzV2lkZ2V0IiA8fC0gLSAiYmxhY2tqYWNrYXBwOjpjb21wb25lbnRzOjpjYXJkYmFjay5kYXJ0OjpDYXJkQmFjayINCg0KY2xhc3MgImJsYWNramFja2FwcDo6Y29tcG9uZW50czo6Y2FyZHRlbXBsYXRlLmRhcnQ6OkNhcmRUZW1wbGF0ZSIgew0KICArZHluYW1pYyBzdWl0DQogICtkeW5hbWljIG51bWJlcg0KICArV2lkZ2V0IGJ1aWxkKCkNCn0NCg0KImZsdXR0ZXI6OnNyYzo6d2lkZ2V0czo6ZnJhbWV3b3JrLmRhcnQ6OlN0YXRlbGVzc1dpZGdldCIgPHwtIC0gImJsYWNramFja2FwcDo6Y29tcG9uZW50czo6Y2FyZHRlbXBsYXRlLmRhcnQ6OkNhcmRUZW1wbGF0ZSINCg0KY2xhc3MgImJsYWNramFja2FwcDo6Y29tcG9uZW50czo6Z2FtZWJvYXJkLmRhcnQ6OkdhbWVCb2FyZCIgew0KICArV2lkZ2V0IGJ1aWxkKCkNCn0NCg0KImZsdXR0ZXI6OnNyYzo6d2lkZ2V0czo6ZnJhbWV3b3JrLmRhcnQ6OlN0YXRlbGVzc1dpZGdldCIgPHwtIC0gImJsYWNramFja2FwcDo6Y29tcG9uZW50czo6Z2FtZWJvYXJkLmRhcnQ6OkdhbWVCb2FyZCINCg0KY2xhc3MgImJsYWNramFja2FwcDo6bWFpbi5kYXJ0OjpNeUFwcCIgew0KICArV2lkZ2V0IGJ1aWxkKCkNCn0NCg0KImZsdXR0ZXI6OnNyYzo6d2lkZ2V0czo6ZnJhbWV3b3JrLmRhcnQ6OlN0YXRlbGVzc1dpZGdldCIgPHwtIC0gImJsYWNramFja2FwcDo6bWFpbi5kYXJ0OjpNeUFwcCINCg0KY2xhc3MgImJsYWNramFja2FwcDo6bW9kZWxzOjpjYXJkX21vZGVsLmRhcnQ6OkNhcmRNb2RlbCIgew0KICArU3RyaW5nIGltYWdlDQogICtTdHJpbmcgc3VpdA0KICArU3RyaW5nIHZhbHVlDQp9DQoNCmNsYXNzICJibGFja2phY2thcHA6Om1vZGVsczo6Y2FyZF9tb2RlbC5kYXJ0OjpTdWl0IiB7DQogICtpbnQgaW5kZXgNCiAge3N0YXRpY30gK0xpc3Q8U3VpdD4gdmFsdWVzDQogIHtzdGF0aWN9ICtTdWl0IGhlYXJ0cw0KICB7c3RhdGljfSArU3VpdCBjbHVicw0KICB7c3RhdGljfSArU3VpdCBkaWFtb25kcw0KICB7c3RhdGljfSArU3VpdCBzcGFkZXMNCiAge3N0YXRpY30gK1N1aXQgb3RoZXINCn0NCg0KImJsYWNramFja2FwcDo6bW9kZWxzOjpjYXJkX21vZGVsLmRhcnQ6OlN1aXQiIG8tIC0gImJsYWNramFja2FwcDo6bW9kZWxzOjpjYXJkX21vZGVsLmRhcnQ6OlN1aXQiDQoiZGFydDo6Y29yZTo6RW51bSIgPHwtIC0gImJsYWNramFja2FwcDo6bW9kZWxzOjpjYXJkX21vZGVsLmRhcnQ6OlN1aXQiDQoNCmNsYXNzICJibGFja2phY2thcHA6Om1vZGVsczo6ZGVja19tb2RlbC5kYXJ0OjpEZWNrTW9kZWwiIHsNCiAgK1N0cmluZyBkZWNrSWQNCiAgK2Jvb2wgc2h1ZmZsZWQNCiAgK2ludCByZW1haW5pbmcNCn0NCg0KY2xhc3MgImJsYWNramFja2FwcDo6bW9kZWxzOjpkcmF3X21vZGVsLmRhcnQ6OkRyYXdNb2RlbCIgew0KICAraW50IHJlbWFpbmluZw0KICArTGlzdDxDYXJkPiBjYXJkcw0KfQ0KDQpjbGFzcyAiYmxhY2tqYWNrYXBwOjptb2RlbHM6OnBsYXllcl9tb2RlbC5kYXJ0OjpQbGF5ZXJNb2RlbCIgew0KICArU3RyaW5nIG5hbWUNCiAgK2Jvb2wgaXNIdW1hbg0KICArTGlzdDxDYXJkTW9kZWw+IGNhcmRzDQp9DQoNCmNsYXNzICJibGFja2phY2thcHA6OnNjcmVlbnM6OmdhbWVfc2NyZWVuLmRhcnQ6OkdhbWVTY3JlZW4iIHsNCiAgK1dpZGdldCBidWlsZCgpDQp9DQoNCiJmbHV0dGVyOjpzcmM6OndpZGdldHM6OmZyYW1ld29yay5kYXJ0OjpTdGF0ZWxlc3NXaWRnZXQiIDx8LSAtICJibGFja2phY2thcHA6OnNjcmVlbnM6OmdhbWVfc2NyZWVuLmRhcnQ6OkdhbWVTY3JlZW4iDQoNCmNsYXNzICJibGFja2phY2thcHA6OnNjcmVlbnM6OmhvbWVwYWdlLmRhcnQ6OkhvbWVwYWdlIiB7DQogICtfSG9tZVBhZ2VTdGF0ZSBjcmVhdGVTdGF0ZSgpDQp9DQoNCiJmbHV0dGVyOjpzcmM6OndpZGdldHM6OmZyYW1ld29yay5kYXJ0OjpTdGF0ZWZ1bFdpZGdldCIgPHwtIC0gImJsYWNramFja2FwcDo6c2NyZWVuczo6aG9tZXBhZ2UuZGFydDo6SG9tZXBhZ2UiDQoNCmNsYXNzICJibGFja2phY2thcHA6OnNjcmVlbnM6OmhvbWVwYWdlLmRhcnQ6Ol9Ib21lUGFnZVN0YXRlIiB7DQogIC1BbmltYXRpb25Db250cm9sbGVyIF9hbmltYXRpb25Db250cm9sbGVyDQogIC1BbmltYXRpb248ZG91YmxlPiBfYW5pbWF0aW9uDQogIC1BbmltYXRpb25TdGF0dXMgX2FuaW1hdGlvblN0YXR1cw0KICArdm9pZCBpbml0U3RhdGUoKQ0KICArV2lkZ2V0IGJ1aWxkKCkNCiAgK1dpZGdldCBnZXRGbGlwcGluZ0NhcmQoKQ0KfQ0KDQoiYmxhY2tqYWNrYXBwOjpzY3JlZW5zOjpob21lcGFnZS5kYXJ0OjpfSG9tZVBhZ2VTdGF0ZSIgby0gLSAiZmx1dHRlcjo6c3JjOjphbmltYXRpb246OmFuaW1hdGlvbl9jb250cm9sbGVyLmRhcnQ6OkFuaW1hdGlvbkNvbnRyb2xsZXIiDQoiYmxhY2tqYWNrYXBwOjpzY3JlZW5zOjpob21lcGFnZS5kYXJ0OjpfSG9tZVBhZ2VTdGF0ZSIgby0gLSAiZmx1dHRlcjo6c3JjOjphbmltYXRpb246OmFuaW1hdGlvbi5kYXJ0OjpBbmltYXRpb248ZG91YmxlPiINCiJibGFja2phY2thcHA6OnNjcmVlbnM6OmhvbWVwYWdlLmRhcnQ6Ol9Ib21lUGFnZVN0YXRlIiBvLSAtICJmbHV0dGVyOjpzcmM6OmFuaW1hdGlvbjo6YW5pbWF0aW9uLmRhcnQ6OkFuaW1hdGlvblN0YXR1cyINCiJmbHV0dGVyOjpzcmM6OndpZGdldHM6OmZyYW1ld29yay5kYXJ0OjpTdGF0ZSIgPHwtIC0gImJsYWNramFja2FwcDo6c2NyZWVuczo6aG9tZXBhZ2UuZGFydDo6X0hvbWVQYWdlU3RhdGUiDQoiZmx1dHRlcjo6c3JjOjp3aWRnZXRzOjp0aWNrZXJfcHJvdmlkZXIuZGFydDo6U2luZ2xlVGlja2VyUHJvdmlkZXJTdGF0ZU1peGluIiA8fC0gLSAiYmxhY2tqYWNrYXBwOjpzY3JlZW5zOjpob21lcGFnZS5kYXJ0OjpfSG9tZVBhZ2VTdGF0ZSINCg0KY2xhc3MgImJsYWNramFja2FwcDo6c2NyZWVuczo6c3BsYXNoc2NyZWVuLmRhcnQ6OlNwbGFzaFNjcmVlbiIgew0KICArU3RhdGU8U3RhdGVmdWxXaWRnZXQ+IGNyZWF0ZVN0YXRlKCkNCn0NCg0KImZsdXR0ZXI6OnNyYzo6d2lkZ2V0czo6ZnJhbWV3b3JrLmRhcnQ6OlN0YXRlZnVsV2lkZ2V0IiA8fC0gLSAiYmxhY2tqYWNrYXBwOjpzY3JlZW5zOjpzcGxhc2hzY3JlZW4uZGFydDo6U3BsYXNoU2NyZWVuIg0KDQpjbGFzcyAiYmxhY2tqYWNrYXBwOjpzY3JlZW5zOjpzcGxhc2hzY3JlZW4uZGFydDo6U3RhcnRTdGF0ZSIgew0KICArdm9pZCBpbml0U3RhdGUoKQ0KICArZHluYW1pYyBzdGFydFRpbWVyKCkNCiAgK2R5bmFtaWMgcm91dGUoKQ0KICArV2lkZ2V0IGJ1aWxkKCkNCn0NCg0KImZsdXR0ZXI6OnNyYzo6d2lkZ2V0czo6ZnJhbWV3b3JrLmRhcnQ6OlN0YXRlIiA8fC0gLSAiYmxhY2tqYWNrYXBwOjpzY3JlZW5zOjpzcGxhc2hzY3JlZW4uZGFydDo6U3RhcnRTdGF0ZSINCg0KY2xhc3MgImJsYWNramFja2FwcDo6c2VydmljZXM6OmFwaV9zZXJ2aWNlLmRhcnQ6OkFwaVNlcnZpY2UiIHsNCiAge3N0YXRpY30gK1N0cmluZyBiYXNlVXJsDQogIC1VcmkgX3VybCgpDQogICtGdXR1cmU8TWFwPFN0cmluZywgZHluYW1pYz4+IGdldCgpDQp9DQoNCmNsYXNzICJibGFja2phY2thcHA6OnNlcnZpY2VzOjpkZWNrX3NlcnZpY2UuZGFydDo6RGVja1NlcnZpY2UiIHsNCn0NCg0KImJsYWNramFja2FwcDo6c2VydmljZXM6OmFwaV9zZXJ2aWNlLmRhcnQ6OkFwaVNlcnZpY2UiIDx8LSAtICJibGFja2phY2thcHA6OnNlcnZpY2VzOjpkZWNrX3NlcnZpY2UuZGFydDo6RGVja1NlcnZpY2UiDQpAZW5kdW1sDQoKUGxhbnRVTUwgdmVyc2lvbiAxLjIwMjIuNihUdWUgSnVuIDIxIDE3OjM0OjQ5IEdNVCAyMDIyKQpKYXZhIFJ1bnRpbWU6IE9wZW5KREsgUnVudGltZSBFbnZpcm9ubWVudApKVk06IE9wZW5KREsgNjQtQml0IFNlcnZlciBWTQpEZWZhdWx0IEVuY29kaW5nOiBVVEYtOApMYW5ndWFnZTogZW4KQ291bnRyeTogVVMKLS0+PC9nPjwvc3ZnPg==;" vertex="1" parent="1">
            <mxGeometry x="-1970" y="280" width="4789" height="622" as="geometry" />
          </mxCell>
        </UserObject>
      </root>
    </mxGraphModel>
  </diagram>
</mxfile>
